<svg width="95" height="95" viewBox="0 0 95 95" fill="none" xmlns="http://www.w3.org/2000/svg">
<circle cx="47.5" cy="47.5" r="47.5" fill="#D6F4FF"/>
<mask id="mask0_408_46" style="mask-type:luminance" maskUnits="userSpaceOnUse" x="22" y="56" width="52" height="18">
<path d="M22 56.9263H74V74.0001H22V56.9263Z" fill="white"/>
</mask>
<g mask="url(#mask0_408_46)">
<path d="M73.6751 63.2716C73.3913 62.8251 72.9046 62.4603 72.4179 62.2574C71.6875 61.9735 70.8767 61.9328 70.1056 61.9328C66.293 61.9328 60.168 63.5957 57.9781 64.245C57.4909 63.109 56.1526 62.0546 52.9077 62.0546C50.9608 62.0546 49.1353 62.4603 49.0542 62.4603C48.4457 62.5821 47.9188 62.5413 47.1884 62.3384C45.7283 61.9328 44.5113 61.0404 43.2132 60.148C41.8749 59.2154 40.5366 58.2822 38.8736 57.7552C36.1557 56.9439 33.6003 56.741 31.3288 57.1875C30.2336 57.3898 29.1792 57.7955 28.1247 58.1609C27.1915 58.5258 26.2991 58.8505 25.3665 59.0533C25.1637 59.0935 24.9608 59.1746 24.7172 59.2154C24.2305 59.3372 23.7036 59.4992 23.3381 59.4992C23.2169 59.4992 23.1761 59.4992 23.1353 59.4584L22.04 59.1343C22.04 59.1343 22.04 67.2871 22.04 70.0045C22.04 70.6538 22.6083 71.0997 23.2979 71.0997C23.622 71.0997 23.9874 70.9785 24.3115 70.8969C24.4741 70.8567 24.677 70.7756 24.758 70.7756L24.9201 70.7348C26.2991 70.532 27.6782 70.3292 29.0171 70.3292C30.9231 70.3292 40.4148 72.7627 43.9027 73.6959H43.9435C44.7141 73.8579 45.4445 73.9389 46.1742 73.9389C47.7159 73.9389 48.5675 73.5741 48.6486 73.5338C49.8248 73.0063 52.0153 72.3978 52.0153 72.3978C55.7877 71.3434 70.5113 66.7194 70.6331 66.6786C72.6609 66.1108 73.7159 65.3805 73.9188 64.4881C73.9998 64.0422 73.878 63.6365 73.6751 63.2716ZM70.1464 65.0966C69.9843 65.1374 55.301 69.7614 51.5286 70.8159C51.4476 70.8567 49.2163 71.4652 47.9188 72.0731C47.9188 72.0731 47.3103 72.357 46.134 72.357C45.5663 72.357 44.917 72.276 44.2682 72.1547C42.8483 71.7893 31.4506 68.7472 29.0171 68.7472C27.5564 68.7472 26.0963 68.9501 24.677 69.1937L24.5144 69.2339C24.2713 69.2747 24.0685 69.3557 23.8248 69.3965H23.7846C23.7846 65.9488 23.7846 62.7039 23.7438 61.1622C24.2305 61.122 24.7172 60.9593 25.1637 60.8375C25.3665 60.7973 25.5694 60.7163 25.7314 60.6755C26.7859 60.4324 27.7593 60.0669 28.7327 59.7429C29.7469 59.3774 30.6801 59.0125 31.6535 58.8505C33.6411 58.4448 35.9528 58.6476 38.3864 59.3774C39.8063 59.7831 40.9825 60.6352 42.2398 61.5271C43.5787 62.4603 44.998 63.4337 46.7017 63.9612C47.6751 64.245 48.4865 64.2853 49.3381 64.083C49.4191 64.083 51.0827 63.7175 52.8266 63.7175C54.4086 63.7175 56.3554 64.0014 56.5175 65.3805L56.5583 65.8672C56.4364 65.908 56.2744 65.989 56.1526 66.0298C55.382 66.3137 54.6114 66.4757 53.8001 66.6786C52.9887 66.8412 52.1773 67.0435 51.3665 67.2463C50.5954 67.4899 49.8248 67.652 49.095 67.5307C48.3647 67.4089 47.5131 67.1653 46.7017 67.0435C45.8904 66.9222 45.0388 66.8004 44.2274 66.7596C43.416 66.7194 42.5644 66.7194 41.7129 66.7596C40.9015 66.8412 40.0901 66.8814 39.2385 66.8004C40.0091 67.0843 40.8607 67.125 41.7129 67.1653C42.5237 67.2061 43.335 67.2871 44.1464 67.3681C44.9578 67.4899 45.7686 67.6118 46.5397 67.8146C46.9454 67.8956 47.3505 67.9766 47.7159 68.0985C48.1216 68.1795 48.5267 68.3013 48.9732 68.3823C49.8656 68.5041 50.7982 68.3013 51.5694 68.0174C52.3399 67.7738 53.1105 67.571 53.9219 67.3279C54.7327 67.0843 55.5038 66.8004 56.2744 66.4355C56.3554 66.3947 56.4772 66.4757 56.5583 66.3947L57.4909 66.1108C57.5725 66.07 65.5632 63.6365 69.9435 63.6365C71.4847 63.6365 71.9714 63.9612 72.053 64.1232L72.0932 64.245C72.0932 64.4071 71.5663 64.6909 70.1464 65.0966Z" fill="#00506C"/>
</g>
<path d="M47.9996 39.0964C43.0509 39.0964 39.0757 43.0717 39.0757 48.0203C39.0757 52.9684 43.0509 56.9437 47.9996 56.9437C52.9482 56.9437 56.9229 52.9684 56.9229 48.0203C56.9229 43.0717 52.9482 39.0964 47.9996 39.0964ZM47.9996 55.3209C43.9841 55.3209 40.6984 52.0358 40.6984 48.0203C40.6984 44.0043 43.9841 40.7192 47.9996 40.7192C52.0151 40.7192 55.3008 44.0043 55.3008 48.0203C55.3008 52.0358 52.0151 55.3209 47.9996 55.3209Z" fill="#00506C"/>
<path d="M48.8111 47.3308C47.8779 46.9653 47.513 46.7223 47.5533 46.3574C47.5941 46.0327 47.8371 45.7488 48.5267 45.7891C49.3381 45.8701 49.8248 46.1137 50.0684 46.2758L50.4741 45.0995C50.1086 44.8967 49.6219 44.7346 48.9324 44.6536L48.9732 43.7204L47.9187 43.6394L47.8779 44.6536C46.7017 44.7754 45.9713 45.465 45.9311 46.4384C45.8903 47.452 46.6207 48.0606 47.7561 48.507C48.5675 48.8311 48.8921 49.115 48.8513 49.5207C48.8111 49.9264 48.3646 50.17 47.7561 50.1292C47.0666 50.089 46.4586 49.8453 46.0121 49.5615L45.6064 50.7785C45.9713 51.0216 46.6609 51.2652 47.3912 51.3463L47.3102 52.3605L48.3646 52.4007L48.4457 51.3055C49.7035 51.1836 50.4333 50.4131 50.4741 49.4397C50.5143 48.4662 50.0684 47.8577 48.8111 47.3308Z" fill="#00506C"/>
<mask id="mask1_408_46" style="mask-type:luminance" maskUnits="userSpaceOnUse" x="22" y="22" width="52" height="18">
<path d="M22 22H74V39.0852H22V22Z" fill="white"/>
</mask>
<g mask="url(#mask1_408_46)">
<path d="M22.3246 32.7284C22.6085 33.1743 23.0952 33.5398 23.5819 33.7426C24.3117 34.0265 25.1231 34.0667 25.8936 34.0667C29.7068 34.0667 35.8312 32.4038 38.0216 31.755C38.5084 32.8905 39.8472 33.9455 43.0921 33.9455C45.0389 33.9455 46.864 33.5398 46.9455 33.5398C47.5535 33.418 48.081 33.4582 48.8113 33.6611C50.2715 34.0667 51.488 34.9591 52.786 35.8515C54.1249 36.7847 55.4632 37.7173 57.1262 38.2448C59.8441 39.0562 62.3995 39.259 64.671 38.8126C65.7656 38.6097 66.8206 38.204 67.8751 37.8391C68.8083 37.4742 69.7006 37.1496 70.6333 36.9467C70.8361 36.906 71.0389 36.8249 71.282 36.7847C71.7687 36.6629 72.2962 36.5008 72.6611 36.5008C72.7829 36.5008 72.8237 36.5008 72.864 36.5411L73.919 36.8657C73.919 36.8657 73.919 28.713 73.919 25.995C73.919 25.3462 73.3507 24.8998 72.6611 24.8998C72.337 24.8998 71.9716 25.0216 71.6475 25.1026C71.4849 25.1434 71.282 25.2244 71.201 25.2244L71.0389 25.2652C69.6599 25.4681 68.2808 25.6709 66.9425 25.6709C65.0359 25.6709 55.5442 23.2368 52.0562 22.3042C51.2851 22.1416 50.5553 22.0605 49.825 22.0605C48.2838 22.0605 47.4323 22.426 47.3507 22.4662C46.1744 22.9937 43.9845 23.6023 43.9845 23.6023C40.2121 24.6567 25.488 29.2807 25.3667 29.3209C23.3383 29.8892 22.2838 30.619 22.081 31.5114C22 31.9579 22.1218 32.3635 22.3246 32.7284ZM25.8534 30.9029C26.0155 30.8626 40.6988 26.2386 44.4712 25.1836C44.5522 25.1434 46.7829 24.5349 48.081 23.9264C48.081 23.9264 48.6895 23.6425 49.8658 23.6425C50.4335 23.6425 51.0828 23.7235 51.7316 23.8453C53.1515 24.2102 64.5491 27.2523 66.9827 27.2523C68.4428 27.2523 69.9029 27.05 71.3228 26.8064L71.4849 26.7656C71.7285 26.7253 71.9313 26.6443 72.1744 26.6035H72.2152C72.2152 30.0513 72.2152 33.2962 72.256 34.8373C71.7687 34.8781 71.282 35.0401 70.8361 35.162C70.6333 35.2028 70.4304 35.2838 70.2684 35.3246C69.2134 35.5677 68.24 35.9325 67.2665 36.2572C66.2529 36.6221 65.3197 36.9875 64.3463 37.1496C62.3587 37.5553 60.047 37.3524 57.6129 36.6221C56.1935 36.2164 55.0173 35.3648 53.7594 34.4724C52.4211 33.5398 51.0012 32.5664 49.2981 32.0389C48.3246 31.755 47.5133 31.7142 46.6611 31.9171C46.5801 31.9171 44.9171 32.282 43.1731 32.282C41.5912 32.282 39.6444 31.9981 39.4818 30.619L39.4415 30.1323C39.5634 30.0921 39.7254 30.0105 39.8472 29.9702C40.6178 29.6864 41.3884 29.5238 42.1997 29.3209C43.0111 29.1589 43.8219 28.956 44.6333 28.7532C45.4038 28.5101 46.1744 28.3475 46.9048 28.4693C47.6351 28.5911 48.4867 28.8342 49.2981 28.956C50.1089 29.0778 50.961 29.1997 51.7724 29.2399C52.5832 29.2807 53.4353 29.2807 54.2869 29.2399C55.0983 29.1589 55.9097 29.1186 56.7613 29.1997C55.9907 28.9158 55.1385 28.875 54.2869 28.8342C53.4756 28.794 52.6642 28.713 51.8534 28.6314C51.042 28.5101 50.2307 28.3883 49.4601 28.1855C49.0544 28.1044 48.6487 28.0234 48.2838 27.9016C47.8782 27.8206 47.4725 27.6988 47.0266 27.6177C46.1342 27.4959 45.201 27.6988 44.4304 27.9826C43.6598 28.2263 42.8893 28.4291 42.0779 28.6722C41.2665 28.9158 40.496 29.1997 39.7254 29.5646C39.6444 29.6054 39.5226 29.5238 39.4415 29.6054L38.5084 29.8892C38.4273 29.9294 30.4366 32.3635 26.0563 32.3635C24.5145 32.3635 24.0278 32.0389 23.9468 31.8768L23.906 31.755C23.906 31.5924 24.4335 31.3085 25.8534 30.9029Z" fill="#00506C"/>
</g>
</svg>
