<svg width="95" height="95" viewBox="0 0 95 95" fill="none" xmlns="http://www.w3.org/2000/svg">
<circle cx="47.5" cy="47.5" r="47.5" fill="#D6F4FF"/>
<mask id="mask0_408_45" style="mask-type:luminance" maskUnits="userSpaceOnUse" x="24" y="54" width="57" height="19">
<path d="M24.9805 54.9189H80.6131V72.5888H24.9805V54.9189Z" fill="white"/>
</mask>
<g mask="url(#mask0_408_45)">
<path fill-rule="evenodd" clip-rule="evenodd" d="M54.1995 72.5874C52.8317 72.5874 51.4632 72.3257 50.1718 71.8001L34.8959 65.5889C33.0755 64.8481 31.0995 64.687 29.1839 65.1217L25.9985 65.8465C25.6007 65.9354 25.2042 65.6868 25.1154 65.289C25.0244 64.8905 25.2744 64.494 25.6722 64.4038L28.8576 63.6789C31.0703 63.1769 33.3518 63.363 35.4534 64.2177L50.7273 70.4282C53.142 71.4099 55.8727 71.3203 58.2167 70.1852L77.7792 60.7205C78.3242 60.4574 78.7324 59.9964 78.9268 59.4243C79.1226 58.8508 79.0803 58.2356 78.8102 57.6927C78.4269 56.9262 77.6563 56.4478 76.7995 56.4478C76.5989 56.4478 76.394 56.4756 76.192 56.5311L59.7719 61.1079C59.3782 61.2162 58.9714 60.9878 58.8624 60.5941C58.7527 60.2005 58.9818 59.7943 59.3754 59.6825L75.7976 55.1057C76.1295 55.0148 76.4656 54.9683 76.7981 54.9683C78.218 54.9683 79.4948 55.7584 80.1294 57.0296C80.5786 57.928 80.6473 58.948 80.3224 59.8992C79.9995 60.849 79.3219 61.6141 78.4186 62.0487L58.861 71.521C57.3932 72.2306 55.7977 72.5888 54.1995 72.5874Z" fill="#00506C"/>
</g>
<path fill-rule="evenodd" clip-rule="evenodd" d="M57.5497 63.5889C57.2121 63.5889 56.8668 63.5451 56.5278 63.4511L44.1103 60.0353C43.7117 59.9261 43.4876 59.5483 43.6103 59.1914C43.7323 58.8339 44.155 58.6332 44.5528 58.7424L56.9696 62.1569C57.9703 62.4325 59.0284 61.9562 59.378 61.0729C59.4539 60.8843 59.4915 60.6888 59.4915 60.4868C59.4915 60.424 59.4866 60.3598 59.4795 60.2969C59.4121 59.7546 59.0653 59.2714 58.5504 58.9945L43.3068 53.4362C39.9288 52.2037 36.2239 51.7192 32.5928 52.0348L25.8284 52.6228C25.4128 52.6558 25.044 52.3872 25.0036 52.0151C24.9632 51.643 25.2667 51.3134 25.6816 51.2759L32.446 50.6885C36.3197 50.3526 40.2707 50.8695 43.8741 52.1834L59.1667 57.7594C59.1972 57.7715 59.227 57.7848 59.2554 57.7982C60.2114 58.2865 60.8553 59.1615 60.9773 60.1414C60.9929 60.2525 61 60.37 61 60.4868C61 60.8443 60.9326 61.1961 60.7986 61.5276C60.2986 62.7938 58.9759 63.5889 57.5497 63.5889Z" fill="#00506C"/>
<path fill-rule="evenodd" clip-rule="evenodd" d="M24.4798 68.5889H22.5747C22.2573 68.5889 22 68.2502 22 67.8319C22 67.4121 22.2573 67.0749 22.5747 67.0749H24.4798C24.6836 67.0749 24.8501 66.8557 24.8501 66.5875V50.5909C24.8501 50.3206 24.6841 50.1036 24.4798 50.1036H22.5747C22.2573 50.1036 22 49.7642 22 49.3459C22 48.9282 22.2573 48.5889 22.5747 48.5889H24.4798C25.3183 48.5889 26 49.4874 26 50.5924V66.5875C26 67.691 25.3183 68.5889 24.4798 68.5889Z" fill="#00506C"/>
<mask id="mask1_408_45" style="mask-type:luminance" maskUnits="userSpaceOnUse" x="16" y="47" width="8" height="23">
<path d="M16 47.0986H23.0256V69.8493H16V47.0986Z" fill="white"/>
</mask>
<g mask="url(#mask1_408_45)">
<path fill-rule="evenodd" clip-rule="evenodd" d="M17.4831 68.2393H20.9317C21.208 68.2393 21.433 68.0136 21.433 67.7359V49.1857C21.433 48.9087 21.208 48.6837 20.9317 48.6837H17.4831V68.2393ZM20.9317 69.7168H16.7444C16.3368 69.7168 16.0063 69.3863 16.0063 68.978V47.945C16.0063 47.7485 16.0834 47.5617 16.2223 47.4222C16.3618 47.2833 16.5486 47.2056 16.7444 47.2056H20.9317C22.0224 47.2056 22.9104 48.0943 22.9104 49.1857V67.7359C22.9104 68.8274 22.0224 69.7168 20.9317 69.7168Z" fill="#00506C"/>
</g>
<path fill-rule="evenodd" clip-rule="evenodd" d="M19.0014 65.5889C18.7379 65.5889 18.48 65.5353 18.2936 65.4424C18.1054 65.3494 18 65.2208 18 65.0893C18 64.9574 18.1073 64.8288 18.2936 64.7349C18.5252 64.6189 18.8706 64.5658 19.1953 64.5982C19.2593 64.6043 19.3224 64.6151 19.3845 64.6269C19.4456 64.6391 19.5031 64.655 19.5586 64.6724C19.6122 64.6903 19.6659 64.7109 19.7092 64.7339C19.7562 64.7579 19.7986 64.7823 19.8344 64.81C19.8692 64.8367 19.8993 64.8668 19.9247 64.8964C19.9492 64.9269 19.9689 64.9579 19.9802 64.9903C19.9944 65.0222 20 65.0555 20 65.0884C20 65.2198 19.8936 65.3485 19.7073 65.4414C19.6612 65.4654 19.6104 65.486 19.5567 65.5039C19.5012 65.5208 19.4438 65.5368 19.3816 65.5494C19.3205 65.5612 19.2593 65.571 19.1934 65.5781C19.1304 65.5846 19.0645 65.5889 19.0014 65.5889Z" fill="#00506C"/>
<path fill-rule="evenodd" clip-rule="evenodd" d="M59.2523 47.5889C59.0098 47.5889 58.7716 47.4721 58.6275 47.2605C57.2627 45.2445 54.9666 44.043 52.487 44.043C50.0265 44.043 47.7396 45.2329 46.3698 47.2264C46.1407 47.5595 45.6754 47.6503 45.3317 47.4257C44.9887 47.2031 44.8967 46.7512 45.1265 46.4174C46.7739 44.0205 49.5261 42.5889 52.487 42.5889C55.4712 42.5889 58.2339 44.0362 59.8771 46.4604C60.1034 46.7956 60.0085 47.2462 59.6635 47.4673C59.5369 47.55 59.3929 47.5889 59.2523 47.5889Z" fill="#00506C"/>
<path fill-rule="evenodd" clip-rule="evenodd" d="M53.0003 37.0606C51.5158 37.0606 50.3086 38.4197 50.3086 40.0878C50.3086 41.758 51.5158 43.1157 53.0003 43.1157C54.4848 43.1157 55.692 41.758 55.692 40.0878C55.692 38.4197 54.4848 37.0606 53.0003 37.0606ZM53.0003 44.5889C50.7944 44.5889 49 42.5696 49 40.0878C49 37.6068 50.7944 35.5889 53.0003 35.5889C55.2062 35.5889 57 37.6068 57 40.0878C57.0012 42.5696 55.2062 44.5889 53.0003 44.5889Z" fill="#00506C"/>
<mask id="mask2_408_45" style="mask-type:luminance" maskUnits="userSpaceOnUse" x="47" y="21" width="11" height="10">
<path d="M47.9092 21H57.6849V30.2133H47.9092V21Z" fill="white"/>
</mask>
<g mask="url(#mask2_408_45)">
<path fill-rule="evenodd" clip-rule="evenodd" d="M50.7502 23.4523C50.7488 23.4536 50.7467 23.4564 50.7467 23.4578L50.7502 23.4523ZM55.8776 26.7793V26.7828C55.8776 26.7814 55.8776 26.7793 55.8776 26.7793ZM49.6678 26.7828C49.6678 26.7828 49.6678 26.7842 49.6678 26.7856V26.7828ZM55.7762 27.1015L55.7734 27.1043C55.7734 27.1029 55.7748 27.1015 55.7762 27.1015ZM52.7727 27.7194C52.9219 27.7194 53.0698 27.75 53.208 27.8124L54.5681 28.4213L54.4091 26.939C54.3751 26.6377 54.4737 26.3336 54.6813 26.1079L55.6783 25.0061L54.2203 24.7006C53.9252 24.6388 53.6704 24.4527 53.5183 24.1924L52.774 22.8933L52.0325 24.1868C51.886 24.4486 51.6271 24.6374 51.3278 24.7006L49.8698 25.0061L50.8696 26.1114C51.0744 26.3405 51.1709 26.6426 51.139 26.9425L50.9793 28.4213L52.3394 27.8117C52.4755 27.75 52.6248 27.7194 52.7727 27.7194ZM55.2235 28.7171L55.2263 28.7185C55.2249 28.7185 55.2235 28.7171 55.2235 28.7171ZM55.0569 30.1599C54.9076 30.1599 54.7583 30.1279 54.6181 30.0647L52.7727 29.2364L50.9237 30.0661C50.5773 30.2217 50.1704 30.1793 49.8636 29.9564C49.5567 29.7329 49.39 29.3607 49.4289 28.9816L49.6469 26.9654L48.2882 25.4629C48.0327 25.1818 47.948 24.7811 48.0646 24.4194C48.1834 24.0584 48.4875 23.7841 48.8589 23.7071L50.8404 23.2912L51.8485 21.5339C52.0416 21.2034 52.3936 21 52.7727 21C52.774 21 52.774 21 52.7754 21C53.1545 21.0014 53.5065 21.2048 53.6954 21.5339L54.7028 23.2912L56.6843 23.7071C57.0558 23.7848 57.3606 24.057 57.4786 24.4194C57.5973 24.7811 57.5112 25.1818 57.255 25.4629L55.8963 26.9654L56.1143 28.9802C56.1539 29.3607 55.9873 29.737 55.6797 29.9578C55.4971 30.0925 55.2777 30.1599 55.0569 30.1599Z" fill="#00506C"/>
</g>
<path fill-rule="evenodd" clip-rule="evenodd" d="M63.5839 28.9983C63.5826 28.9997 63.5826 29.0024 63.5813 29.0038L63.5839 28.9983ZM68.4327 32.2673V32.2701C68.4327 32.2687 68.4327 32.2687 68.4327 32.2673ZM68.3362 32.5825L68.3336 32.5852C68.3349 32.5852 68.3362 32.5839 68.3362 32.5825ZM65.4973 33.1903C65.6384 33.1903 65.7782 33.2203 65.9095 33.2824L67.1954 33.8821L67.0444 32.427C67.0129 32.1295 67.1068 31.8307 67.3017 31.609L68.245 30.5264L66.8665 30.2263C66.5882 30.1655 66.3454 29.9827 66.2016 29.7269L65.4973 28.4505L64.7963 29.7214C64.6584 29.9786 64.4136 30.1642 64.13 30.2263L62.7516 30.5264L63.6974 31.6124C63.8911 31.8376 63.9823 32.1343 63.9515 32.429L63.8012 33.8827L65.087 33.2824C65.217 33.2203 65.3568 33.1903 65.4973 33.1903ZM67.815 34.1699L67.8177 34.1713C67.8163 34.1713 67.815 34.1699 67.815 34.1699ZM67.6575 35.5889C67.5164 35.5889 67.3752 35.5568 67.244 35.4954L65.4986 34.6816L63.7513 35.4968C63.4237 35.6489 63.0404 35.6073 62.749 35.3904C62.4582 35.17 62.3006 34.8037 62.338 34.4326L62.5442 32.4515L61.2596 30.9753C61.0193 30.699 60.9373 30.3047 61.0495 29.95C61.1598 29.5946 61.4493 29.3258 61.8005 29.2501L63.6738 28.8414L64.6263 27.1148C64.8074 26.7901 65.1409 26.5889 65.5006 26.5889C65.8583 26.5889 66.1931 26.7881 66.3729 27.1135L66.3742 27.1148L67.3267 28.8414L69.2 29.2501C69.5512 29.3258 69.8394 29.5932 69.951 29.95C70.0619 30.3047 69.9818 30.699 69.7396 30.9766L68.455 32.4515L68.6611 34.4312C68.6999 34.805 68.5423 35.1734 68.2502 35.3917C68.0723 35.5213 67.8649 35.5889 67.6575 35.5889Z" fill="#00506C"/>
<path fill-rule="evenodd" clip-rule="evenodd" d="M38.5863 29.0002C38.5843 29.0029 38.583 29.0043 38.583 29.0056L38.5863 29.0002ZM43.9124 30.6707C43.9137 30.6707 43.9137 30.6707 43.9124 30.6707V30.6707ZM37.0871 30.6721C37.0857 30.6721 37.0857 30.6721 37.0871 30.6721V30.6721ZM43.4352 32.2676V32.2703C43.4352 32.2689 43.4352 32.2689 43.4352 32.2676ZM37.5643 32.2703C37.5643 32.2703 37.5643 32.2724 37.5643 32.2737V32.2703ZM43.338 32.5827L43.3354 32.5855C43.3367 32.5855 43.338 32.5841 43.338 32.5827ZM37.754 30.5268L38.6979 31.6107C38.8928 31.8365 38.9841 32.1339 38.9526 32.4286L38.8016 33.8808L40.0875 33.2812C40.3487 33.1584 40.6507 33.1584 40.9119 33.2812L42.1978 33.8808L42.0469 32.4245C42.0154 32.1284 42.1092 31.829 42.3042 31.6073L43.2468 30.5247L41.8683 30.2246C41.5907 30.1639 41.3484 29.9831 41.2047 29.726L40.501 28.4504L39.8 29.7226C39.6621 29.979 39.4173 30.1639 39.1337 30.226L37.754 30.5268ZM42.8155 34.17L42.8181 34.1714C42.8168 34.1714 42.8168 34.17 42.8155 34.17ZM42.658 35.5889C42.5168 35.5889 42.3757 35.5568 42.2444 35.4954L40.4997 34.6816L38.7517 35.4968C38.4242 35.6489 38.0415 35.6073 37.7494 35.3904C37.4592 35.17 37.3017 34.8037 37.3391 34.4327L37.5446 32.4518L36.2606 30.9784C36.0184 30.7007 35.9383 30.3065 36.0486 29.9518C36.1609 29.5964 36.4484 29.3276 36.7996 29.2519L38.6729 28.8433L39.626 27.1168C39.8052 26.7935 40.1387 26.5902 40.4984 26.5889H40.4997C40.8581 26.5889 41.1922 26.7887 41.3721 27.1141C41.3721 27.1141 41.3721 27.1155 41.3734 27.1155L42.3265 28.8419L44.1999 29.2498C44.551 29.3262 44.8386 29.5936 44.9508 29.9504C45.0624 30.3051 44.981 30.6994 44.7388 30.9763L43.4542 32.4518L43.6603 34.4313C43.699 34.8051 43.5415 35.1728 43.2501 35.3917C43.0741 35.5213 42.8667 35.5889 42.658 35.5889Z" fill="#00506C"/>
<path fill-rule="evenodd" clip-rule="evenodd" d="M52.4997 33.1169C48.0626 33.1169 44.451 36.9179 44.451 41.5889C44.451 46.2612 48.0619 50.0616 52.4997 50.0616C56.9374 50.0616 60.5483 46.2605 60.5483 41.5889C60.5483 36.9165 56.9387 33.1169 52.4997 33.1169ZM52.4997 51.5889C47.2617 51.5889 43 47.1024 43 41.5889C43 36.0739 47.2617 31.5889 52.4997 31.5889C57.7376 31.5889 62 36.0739 62 41.5889C62 47.1038 57.739 51.5889 52.4997 51.5889Z" fill="#00506C"/>
</svg>
