<svg width="95" height="95" viewBox="0 0 95 95" fill="none" xmlns="http://www.w3.org/2000/svg">
<circle cx="47.5" cy="47.5" r="47.5" fill="#D6F4FF"/>
<path d="M45.8735 69.8777H36.5552C36.4647 69.8824 36.3759 69.8723 36.2884 69.8479C36.2014 69.824 36.1204 69.7859 36.0453 69.7353C35.9709 69.6841 35.906 69.6227 35.8511 69.5506C35.7963 69.478 35.7546 69.3993 35.7261 69.313L30.5108 53.83C30.468 53.7037 30.456 53.575 30.4751 53.4434C30.4942 53.3117 30.5424 53.1914 30.6187 53.083C30.6973 52.9728 30.7962 52.887 30.9165 52.8256C31.0362 52.7637 31.1637 52.7333 31.2989 52.7339H51.1382C51.2043 52.7339 51.2692 52.7416 51.333 52.7571C51.3973 52.772 51.4586 52.7947 51.5176 52.825C51.576 52.8548 51.6302 52.8918 51.6802 52.9346C51.7303 52.9775 51.775 53.0258 51.8131 53.0794C51.8518 53.133 51.8834 53.1902 51.9084 53.2515C51.9328 53.3123 51.9507 53.3754 51.9602 53.441C51.9697 53.5065 51.9721 53.572 51.9662 53.6375C51.9602 53.7031 51.9471 53.7674 51.9257 53.83L46.7027 69.313C46.6741 69.3993 46.6318 69.478 46.5776 69.5506C46.5228 69.6227 46.4579 69.6841 46.3828 69.7353C46.3084 69.7859 46.2274 69.824 46.1398 69.8479C46.0528 69.8723 45.9641 69.8824 45.8735 69.8777ZM37.1354 68.2175H45.2766L50.0189 54.3696H32.451L37.1354 68.2175Z" fill="#00506C"/>
<mask id="mask0_408_44" style="mask-type:luminance" maskUnits="userSpaceOnUse" x="27" y="68" width="29" height="7">
<path d="M27.1162 68.0781H55.3278V75H27.1162V68.0781Z" fill="white"/>
</mask>
<g mask="url(#mask0_408_44)">
<path d="M54.4876 75.0417H27.9576C27.9028 75.0417 27.8492 75.0363 27.7956 75.0256C27.7426 75.0149 27.6907 74.9994 27.6401 74.9785C27.5901 74.9577 27.5418 74.9321 27.4966 74.9017C27.4513 74.8713 27.4096 74.8368 27.3715 74.7986C27.3327 74.7599 27.2982 74.7176 27.2678 74.6724C27.238 74.6271 27.2124 74.5794 27.1916 74.5288C27.1707 74.4788 27.1546 74.4269 27.1445 74.3733C27.1338 74.3197 27.1284 74.2661 27.1284 74.2113V71.4134C27.1284 71.3091 27.1338 71.2043 27.1439 71.1C27.154 70.9964 27.1695 70.8927 27.1898 70.7903C27.21 70.6872 27.2356 70.586 27.266 70.4859C27.2964 70.3858 27.3315 70.2869 27.3715 70.1904C27.4114 70.0939 27.456 69.9992 27.5055 69.9069C27.5543 69.8146 27.6079 69.7246 27.6663 69.6376C27.7241 69.5507 27.7866 69.4667 27.8528 69.3857C27.9195 69.3052 27.9892 69.2272 28.063 69.1533C28.1369 69.0795 28.2143 69.0092 28.2954 68.9431C28.3764 68.8764 28.4598 68.8144 28.5467 68.756C28.6337 68.6977 28.7237 68.644 28.8154 68.5946C28.9077 68.5452 29.0024 68.5005 29.0989 68.4606C29.1954 68.4207 29.2937 68.3855 29.3938 68.3551C29.4939 68.3248 29.5951 68.2991 29.6976 68.2789C29.8001 68.258 29.9031 68.2431 30.0074 68.2324C30.1116 68.2223 30.2158 68.2175 30.3201 68.2175H52.1245C52.2293 68.2175 52.3336 68.2229 52.4372 68.2336C52.5409 68.2437 52.6445 68.2592 52.747 68.2801C52.8494 68.3009 52.9501 68.3265 53.0502 68.3569C53.1502 68.3873 53.2485 68.4224 53.345 68.463C53.4415 68.5029 53.5357 68.5475 53.6274 68.597C53.7197 68.6464 53.8091 68.7006 53.896 68.7584C53.983 68.8168 54.0664 68.8787 54.1474 68.9455C54.2278 69.0116 54.3053 69.0819 54.3791 69.1557C54.453 69.2296 54.5233 69.307 54.5894 69.388C54.6555 69.4691 54.7181 69.5531 54.7759 69.64C54.8342 69.727 54.8879 69.8163 54.9373 69.9087C54.9867 70.001 55.0314 70.0951 55.0713 70.1916C55.1112 70.2881 55.147 70.3864 55.1774 70.4865C55.2077 70.5866 55.2333 70.6878 55.2536 70.7909C55.2745 70.8933 55.2899 70.9964 55.3007 71.1006C55.3108 71.2049 55.3161 71.3091 55.3167 71.4134V74.2113C55.3167 74.2661 55.3114 74.3197 55.3007 74.3733C55.2899 74.4269 55.2745 74.4788 55.2536 74.5288C55.2328 74.5794 55.2071 74.6271 55.1768 74.6724C55.1464 74.7176 55.1124 74.7599 55.0737 74.7986C55.035 74.8368 54.9933 74.8713 54.948 74.9017C54.9027 74.9321 54.8551 74.9577 54.8045 74.9785C54.7544 74.9994 54.7026 75.0149 54.649 75.0256C54.596 75.0363 54.5418 75.0417 54.4876 75.0417ZM28.7862 73.3809H53.6584V71.4134C53.6584 71.3127 53.6488 71.2126 53.6292 71.1137C53.6095 71.0149 53.5803 70.919 53.5416 70.826C53.5029 70.7325 53.4558 70.6443 53.3998 70.5604C53.3438 70.4764 53.2801 70.3989 53.2092 70.3274C53.1377 70.256 53.0603 70.1928 52.9769 70.1368C52.8929 70.0802 52.8047 70.0332 52.7118 69.9945C52.6183 69.9557 52.5224 69.9271 52.4241 69.9075C52.3252 69.8878 52.2251 69.8777 52.1245 69.8777H30.3117C30.2111 69.8777 30.1116 69.8878 30.0127 69.9075C29.9138 69.9271 29.8179 69.9557 29.725 69.9945C29.6321 70.0332 29.5433 70.0802 29.4599 70.1368C29.3759 70.1928 29.2985 70.256 29.2276 70.3274C29.1561 70.3989 29.0924 70.4764 29.0364 70.5604C28.981 70.6443 28.9333 70.7325 28.8952 70.826C28.8565 70.919 28.8273 71.0149 28.8076 71.1137C28.788 71.2126 28.7785 71.3127 28.7785 71.4134L28.7862 73.3809Z" fill="#00506C"/>
</g>
<path d="M71.4829 60.9616C71.0201 60.961 70.5698 60.8866 70.1319 60.737L51.2952 54.3781H31.2987C31.0682 54.3775 30.8389 54.3591 30.6113 54.3209C30.3838 54.2834 30.161 54.2274 29.9424 54.1535C29.7244 54.0797 29.5135 53.9885 29.3098 53.8801C29.106 53.7717 28.9124 53.6472 28.7296 53.5072C28.5461 53.3672 28.3751 53.213 28.2167 53.0456C28.0588 52.8776 27.9153 52.6977 27.786 52.5065C27.6567 52.3153 27.5442 52.1145 27.4477 51.9048C27.3512 51.6952 27.2725 51.4789 27.2112 51.2567L21.1507 29.0485C21.1078 28.8918 21.0738 28.7334 21.0494 28.5725C21.0244 28.4117 21.0089 28.2503 21.003 28.0876C20.997 27.925 21 27.763 21.0125 27.601C21.025 27.4389 21.047 27.2781 21.078 27.1185C21.109 26.9588 21.1489 26.8016 21.1983 26.6467C21.2472 26.4918 21.305 26.3399 21.3717 26.1916C21.4384 26.0433 21.5129 25.8997 21.5963 25.7597C21.6797 25.6203 21.7702 25.4857 21.8691 25.3564C21.9674 25.2278 22.0734 25.1045 22.186 24.9877C22.2986 24.8704 22.4177 24.7601 22.5434 24.6571C22.6685 24.554 22.7995 24.4581 22.9359 24.37C23.0724 24.2818 23.2135 24.202 23.3589 24.1299C23.5048 24.0584 23.6537 23.9947 23.8068 23.9405C23.9599 23.8857 24.1154 23.8398 24.2733 23.8035C24.4317 23.7665 24.5914 23.7391 24.7528 23.7207C24.9136 23.7022 25.0756 23.6933 25.2383 23.6939C25.467 23.6969 25.6946 23.7177 25.9197 23.757C26.1455 23.7963 26.3665 23.8541 26.5833 23.9292C26.7996 24.0042 27.0086 24.096 27.21 24.205C27.4113 24.314 27.6031 24.4385 27.7848 24.5779C27.9665 24.7179 28.1357 24.8709 28.2923 25.0383C28.449 25.2057 28.5914 25.3838 28.72 25.5744C28.8481 25.7645 28.9601 25.9634 29.056 26.1719C29.1519 26.3798 29.2305 26.5943 29.2919 26.8153L34.4904 45.9099H51.9922C52.4544 45.9105 52.9054 45.9849 53.3432 46.1339L72.8429 52.7174C72.9644 52.7543 73.0847 52.7966 73.2027 52.8442C73.3206 52.8919 73.4362 52.9443 73.5494 53.0027C73.6631 53.0605 73.7733 53.1236 73.8812 53.1915C73.9884 53.2594 74.0926 53.3321 74.1939 53.4095C74.2952 53.487 74.3923 53.5686 74.4864 53.655C74.5799 53.7413 74.6693 53.8313 74.755 53.9254C74.8408 54.0201 74.9218 54.1178 74.9987 54.2197C75.0755 54.3209 75.1476 54.4258 75.2149 54.5342C75.2822 54.642 75.3448 54.7528 75.4019 54.8666C75.4591 54.9804 75.5115 55.0965 75.5586 55.2151C75.6051 55.3336 75.6468 55.4539 75.6831 55.576C75.7188 55.6982 75.7498 55.8215 75.7748 55.9466C75.7993 56.0716 75.8189 56.1973 75.8326 56.3242C75.8463 56.4505 75.8541 56.578 75.8564 56.7049C75.8588 56.8323 75.8553 56.9598 75.8457 57.0867C75.8368 57.2142 75.8219 57.3405 75.801 57.4661C75.7808 57.5918 75.7546 57.7163 75.7224 57.8396C75.6908 57.9629 75.6533 58.0851 75.611 58.2048C75.5681 58.3245 75.5199 58.4425 75.4669 58.558C75.4133 58.6742 75.3549 58.7868 75.2911 58.8976C75.228 59.0078 75.1595 59.115 75.0862 59.2192C75.013 59.3235 74.9355 59.4242 74.8533 59.5218C74.7711 59.6189 74.6841 59.7119 74.5936 59.8018C74.5031 59.8912 74.4089 59.9763 74.3106 60.0568C74.2118 60.1378 74.1105 60.214 74.0051 60.2861C73.9002 60.3576 73.7918 60.4243 73.6804 60.4863C73.5696 60.5482 73.4558 60.6054 73.3397 60.6572C73.2229 60.7084 73.105 60.7549 72.9841 60.796C72.8637 60.8371 72.7416 60.8723 72.6183 60.9026C72.4944 60.9324 72.3699 60.9568 72.2436 60.9759C72.1179 60.9944 71.9917 61.0075 71.8642 61.0146C71.7373 61.0224 71.6104 61.0236 71.4829 61.0194V60.9616ZM25.2383 25.354C25.0077 25.3552 24.7808 25.3862 24.558 25.4458C24.477 25.4678 24.3966 25.494 24.3179 25.5244C24.2387 25.5548 24.1619 25.5887 24.0862 25.6263C24.0106 25.6638 23.9367 25.7055 23.8652 25.7502C23.7937 25.7954 23.7246 25.8437 23.6579 25.8955C23.5912 25.9473 23.5275 26.0027 23.4661 26.0605C23.4048 26.1189 23.3464 26.1797 23.291 26.2434C23.2356 26.3071 23.1838 26.3739 23.1349 26.443C23.0861 26.5121 23.0402 26.5829 22.9985 26.6562C22.9568 26.7301 22.9187 26.8051 22.8841 26.8826C22.8496 26.9594 22.8192 27.038 22.7924 27.1185C22.7656 27.1989 22.7429 27.2799 22.7239 27.3627C22.7054 27.4449 22.6905 27.5283 22.6798 27.6123C22.6697 27.6957 22.6631 27.7803 22.6607 27.8649C22.6584 27.9494 22.6601 28.0334 22.6661 28.118C22.6721 28.2026 22.6822 28.286 22.6965 28.3694C22.7102 28.4528 22.7287 28.5356 22.7507 28.6172L28.8112 50.8165C28.8481 50.9523 28.8964 51.084 28.9547 51.2115C29.0131 51.3395 29.0816 51.4617 29.1602 51.5784C29.2383 51.6946 29.3258 51.8042 29.4223 51.9066C29.5182 52.0091 29.6225 52.1026 29.7339 52.1878C29.8459 52.2736 29.9632 52.3492 30.0871 52.4147C30.211 52.4809 30.3397 52.5369 30.4725 52.5815C30.606 52.6268 30.7418 52.6608 30.88 52.6834C31.0188 52.706 31.1582 52.7174 31.2987 52.7174H51.4281C51.5192 52.7144 51.6074 52.7281 51.6932 52.7591L70.6627 59.1597C70.7431 59.1859 70.8247 59.2073 70.9075 59.2252C70.9903 59.2425 71.0737 59.2562 71.1577 59.2657C71.2423 59.2752 71.3263 59.2812 71.4109 59.2824C71.4954 59.2836 71.58 59.2812 71.6646 59.274C71.7486 59.2675 71.8326 59.2562 71.916 59.2413C71.9994 59.2264 72.0816 59.2073 72.1632 59.1841C72.2448 59.1609 72.3246 59.1341 72.4039 59.1031C72.4825 59.0727 72.5599 59.0376 72.635 58.9994C72.7106 58.9613 72.7839 58.919 72.8554 58.8737C72.9269 58.8279 72.996 58.779 73.0627 58.7272C73.1294 58.6748 73.1931 58.6194 73.2545 58.561C73.3159 58.5026 73.3742 58.4413 73.4296 58.3769C73.485 58.3126 73.5369 58.2459 73.5857 58.1768C73.6345 58.1077 73.6798 58.0362 73.7221 57.9623C73.7638 57.8891 73.8019 57.8134 73.8365 57.736C73.871 57.6585 73.902 57.5799 73.9288 57.4995C74.0366 57.1754 74.0783 56.8425 74.0539 56.5017C74.0295 56.161 73.9407 55.8375 73.7882 55.532C73.6411 55.224 73.4392 54.9577 73.183 54.7325C72.9269 54.5074 72.6362 54.3424 72.3121 54.2369L52.8124 47.6951C52.5444 47.6016 52.268 47.5546 51.9838 47.554H33.8935C33.8006 47.5569 33.7095 47.545 33.6201 47.5182C33.5314 47.4908 33.4492 47.4497 33.3741 47.3949C33.299 47.3395 33.2347 47.274 33.1817 47.1972C33.1287 47.1209 33.0894 47.0375 33.0644 46.9476L27.7252 27.2638C27.6883 27.128 27.6413 26.9957 27.5829 26.8677C27.5245 26.739 27.4566 26.6163 27.378 26.4995C27.2999 26.3822 27.2124 26.2726 27.1165 26.1695C27.02 26.0671 26.9163 25.973 26.8043 25.8872C26.6929 25.8014 26.575 25.7252 26.4511 25.659C26.3272 25.5929 26.1985 25.5369 26.0651 25.4916C25.9322 25.4464 25.7958 25.4118 25.657 25.3892C25.5182 25.366 25.3788 25.3546 25.2383 25.354Z" fill="#00506C"/>
<path d="M69.2941 53.2159C69.2399 53.2159 69.1857 53.2105 69.1327 53.1998C69.0791 53.189 69.0273 53.1736 68.9766 53.1527C68.9266 53.1319 68.879 53.1062 68.8337 53.0759C68.7884 53.0455 68.7467 53.0109 68.708 52.9722C68.6693 52.9341 68.6353 52.8918 68.6049 52.8465C68.5746 52.8013 68.5489 52.7536 68.5281 52.703C68.5072 52.6529 68.4918 52.6011 68.481 52.5475C68.4703 52.4939 68.465 52.4397 68.465 52.3855V25.9187C68.465 25.8007 68.4584 25.6828 68.4453 25.5648C68.4328 25.4475 68.4131 25.3307 68.3875 25.2152C68.3619 25.0996 68.3303 24.9864 68.2922 24.8738C68.2547 24.7619 68.2106 24.6522 68.1606 24.545C68.1111 24.4378 68.0551 24.3336 67.9944 24.2329C67.933 24.1316 67.8663 24.0339 67.7948 23.9398C67.7233 23.8457 67.6465 23.7563 67.5649 23.6706C67.4833 23.5848 67.3975 23.5038 67.3069 23.4275C67.217 23.3513 67.1229 23.2804 67.0246 23.2143C66.9269 23.1487 66.825 23.088 66.7208 23.0332C66.616 22.9784 66.5087 22.9289 66.3991 22.8854C66.2889 22.8426 66.1769 22.805 66.0632 22.7741C65.9488 22.7431 65.8338 22.7181 65.7171 22.6996C65.6003 22.6811 65.483 22.6692 65.365 22.6633C65.2471 22.6579 65.1291 22.6585 65.0112 22.6656C64.8932 22.6728 64.7759 22.6859 64.6597 22.7061L55.8883 24.2001L53.2024 26.6907C53.1613 26.7234 53.1184 26.752 53.0719 26.777C53.026 26.8015 52.9778 26.8217 52.9283 26.8372C52.8783 26.8527 52.8277 26.8634 52.7758 26.8694C52.724 26.8753 52.6722 26.8759 52.6198 26.8724C52.568 26.8682 52.5167 26.8598 52.4661 26.8461C52.4161 26.8324 52.3672 26.8146 52.3202 26.7913C52.2731 26.7687 52.229 26.7419 52.1867 26.7103C52.145 26.6794 52.1063 26.6442 52.0712 26.6061C52.036 26.5674 52.0044 26.5263 51.977 26.4816C51.9496 26.4369 51.9264 26.3904 51.9079 26.3416C51.8889 26.2928 51.8752 26.2427 51.8656 26.1915C51.8567 26.1403 51.8525 26.0884 51.8525 26.036C51.8531 25.9836 51.8585 25.9318 51.8692 25.8805C51.8793 25.8293 51.8942 25.7799 51.9139 25.731C51.9336 25.6828 51.958 25.6369 51.986 25.5928C52.0146 25.5487 52.0467 25.5082 52.0831 25.4707L54.993 22.814C55.1133 22.7026 55.2545 22.6335 55.4159 22.6061L64.378 21.0704C64.5537 21.04 64.7306 21.0198 64.9087 21.009C65.0862 20.9983 65.2643 20.9971 65.4425 21.0055C65.6206 21.0138 65.7981 21.0323 65.9738 21.0603C66.1501 21.0883 66.3247 21.1252 66.4962 21.1723C66.6684 21.2193 66.8375 21.2753 67.0037 21.3402C67.1693 21.4058 67.3314 21.4796 67.4892 21.5624C67.6477 21.6458 67.8002 21.737 67.9485 21.8365C68.0962 21.9359 68.2386 22.0432 68.375 22.1581C68.5114 22.2737 68.6413 22.3958 68.764 22.5251C68.8873 22.6537 69.0029 22.7895 69.1113 22.9313C69.2197 23.0731 69.3204 23.2202 69.4127 23.3733C69.505 23.5258 69.5884 23.6831 69.6641 23.8451C69.7391 24.0071 69.8052 24.1727 69.863 24.3419C69.9202 24.5111 69.9679 24.6826 70.0066 24.8566C70.0453 25.0311 70.0745 25.2068 70.0935 25.3843C70.1132 25.5619 70.1233 25.74 70.1233 25.9187V52.3855C70.1233 52.4397 70.118 52.4939 70.1073 52.5475C70.0965 52.6011 70.081 52.6529 70.0602 52.703C70.0393 52.7536 70.0137 52.8013 69.9833 52.8465C69.9536 52.8918 69.919 52.9341 69.8803 52.9722C69.8422 53.0109 69.7999 53.0455 69.7546 53.0759C69.7093 53.1062 69.6617 53.1319 69.6116 53.1527C69.561 53.1736 69.5092 53.189 69.4562 53.1998C69.4026 53.2105 69.3483 53.2159 69.2941 53.2159Z" fill="#00506C"/>
<path d="M52.2658 33.6066C52.1472 33.6072 52.034 33.584 51.9256 33.5363C51.8172 33.4887 51.7231 33.4207 51.6439 33.3326L45.31 26.2177C45.2742 26.1772 45.2432 26.1338 45.2158 26.0867C45.189 26.0402 45.167 25.9914 45.1491 25.9402C45.1319 25.8895 45.1193 25.8371 45.1116 25.7841C45.1045 25.7305 45.1021 25.6769 45.1056 25.6227C45.1086 25.569 45.117 25.516 45.1301 25.4636C45.1438 25.4118 45.1616 25.3611 45.1849 25.3123C45.2081 25.2641 45.2361 25.2176 45.2683 25.1747C45.3004 25.1312 45.3362 25.0913 45.3761 25.0556C45.5125 24.9329 45.6549 24.8179 45.8026 24.7095C45.9503 24.6011 46.1028 24.4998 46.2607 24.4069C46.4185 24.3133 46.58 24.2282 46.7462 24.1507C46.9124 24.0733 47.0815 24.0042 47.2543 23.9434C47.427 23.8827 47.6028 23.8302 47.7803 23.7868C47.9584 23.7433 48.1383 23.7087 48.3194 23.6831C48.501 23.6569 48.6827 23.6402 48.8656 23.6325C49.0491 23.6241 49.2319 23.6253 49.4148 23.6355C49.5977 23.6456 49.7794 23.6646 49.9605 23.6926C50.1416 23.7206 50.3209 23.7576 50.4984 23.8028C50.6753 23.8487 50.8504 23.9029 51.0226 23.9661C51.1947 24.0286 51.3633 24.0995 51.5283 24.1793C51.6933 24.2585 51.8541 24.3461 52.0108 24.4408C52.1669 24.5361 52.3188 24.6392 52.4653 24.7494C52.6113 24.859 52.7524 24.9763 52.8871 25.1002C53.0223 25.2241 53.1509 25.3546 53.2731 25.491C53.3952 25.628 53.5101 25.7704 53.6186 25.9181C53.727 26.0658 53.8276 26.2189 53.9206 26.3768C54.0141 26.5346 54.0993 26.6967 54.1767 26.8629C54.2541 27.0291 54.3227 27.1988 54.3834 27.3722C54.4442 27.5449 54.496 27.7207 54.5395 27.8988C54.583 28.0769 54.6175 28.2568 54.6437 28.4384C54.6693 28.6201 54.686 28.8024 54.6944 28.9859C54.7021 29.1688 54.7009 29.3522 54.6908 29.5351C54.6807 29.7186 54.6616 29.9009 54.6336 30.0819C54.6056 30.263 54.5693 30.4423 54.5234 30.6204C54.4781 30.798 54.4239 30.9731 54.3608 31.1452C54.2982 31.3174 54.2273 31.4866 54.1481 31.6516C54.0689 31.8172 53.9813 31.978 53.8866 32.1347C53.7913 32.2913 53.6888 32.4432 53.5786 32.5898C53.469 32.7363 53.3517 32.8775 53.2278 33.0127C53.1045 33.1479 52.974 33.2766 52.8376 33.3987C52.6744 33.5435 52.4838 33.6126 52.2658 33.6066ZM47.1506 25.7942L52.2741 31.539C52.4051 31.3591 52.5201 31.1691 52.619 30.9689C52.7173 30.7688 52.7989 30.5621 52.862 30.3482C52.9258 30.135 52.971 29.9169 52.9973 29.6959C53.0241 29.4743 53.0318 29.2522 53.0205 29.0294C53.0092 28.8066 52.9794 28.5868 52.9305 28.3688C52.8817 28.1513 52.815 27.9393 52.7304 27.7332C52.6458 27.5271 52.5439 27.3293 52.4254 27.1405C52.3075 26.9516 52.174 26.7741 52.0251 26.6079C51.878 26.4393 51.7171 26.2851 51.5438 26.1445C51.3699 26.0039 51.1852 25.8788 50.9904 25.7698C50.795 25.6602 50.5925 25.5684 50.3816 25.494C50.1707 25.4201 49.9551 25.3641 49.7347 25.3266C49.5149 25.2891 49.2927 25.27 49.0693 25.2706C48.8459 25.2712 48.6238 25.2909 48.4039 25.329C48.1835 25.3677 47.9685 25.4243 47.7582 25.4999C47.5474 25.575 47.3448 25.6679 47.1506 25.7775V25.7942Z" fill="#00506C"/>
<path d="M48.7005 37.5585H38.4863C38.4321 37.5585 38.3779 37.5531 38.3249 37.5424C38.2713 37.5317 38.2194 37.5162 38.1694 37.4953C38.1188 37.4745 38.0711 37.4489 38.0258 37.4185C37.9806 37.3881 37.9389 37.3536 37.9002 37.3148C37.862 37.2767 37.8275 37.2344 37.7971 37.1891C37.7667 37.1439 37.7411 37.0962 37.7209 37.0456C37.7 36.9955 37.6839 36.9437 37.6732 36.8901C37.6625 36.8365 37.6577 36.7823 37.6577 36.7281C37.6577 36.6733 37.6625 36.6197 37.6732 36.5661C37.6839 36.5125 37.7 36.4606 37.7209 36.4106C37.7411 36.36 37.7667 36.3123 37.7971 36.267C37.8275 36.2218 37.862 36.1795 37.9002 36.1407C37.9389 36.1026 37.9806 36.0681 38.0258 36.0377C38.0711 36.0073 38.1188 35.9817 38.1694 35.9608C38.2194 35.94 38.2713 35.9245 38.3249 35.9138C38.3779 35.9031 38.4321 35.8977 38.4863 35.8977H48.7005C48.7553 35.8977 48.8089 35.9031 48.8625 35.9138C48.9155 35.9245 48.9674 35.94 49.018 35.9608C49.068 35.9817 49.1157 36.0073 49.161 36.0377C49.2062 36.0681 49.2485 36.1026 49.2866 36.1407C49.3254 36.1795 49.3599 36.2218 49.3897 36.267C49.4201 36.3123 49.4457 36.36 49.4665 36.4106C49.4874 36.4606 49.5029 36.5125 49.5136 36.5661C49.5243 36.6197 49.5297 36.6733 49.5297 36.7281C49.5297 36.7823 49.5243 36.8365 49.5136 36.8901C49.5029 36.9437 49.4874 36.9955 49.4665 37.0456C49.4457 37.0962 49.4201 37.1439 49.3897 37.1891C49.3599 37.2344 49.3254 37.2767 49.2866 37.3148C49.2485 37.3536 49.2062 37.3881 49.161 37.4185C49.1157 37.4489 49.068 37.4745 49.018 37.4953C48.9674 37.5162 48.9155 37.5317 48.8625 37.5424C48.8089 37.5531 48.7553 37.5585 48.7005 37.5585Z" fill="#00506C"/>
<path d="M43.5938 47.5539C43.539 47.5539 43.4854 47.5485 43.4318 47.5378C43.3788 47.5271 43.327 47.5116 43.2763 47.4907C43.2263 47.4699 43.1781 47.4443 43.1334 47.4139C43.0881 47.3835 43.0458 47.349 43.0077 47.3102C42.969 47.2721 42.9344 47.2298 42.9046 47.1846C42.8743 47.1393 42.8486 47.0916 42.8278 47.041C42.8069 46.991 42.7915 46.9391 42.7807 46.8855C42.77 46.8319 42.7646 46.7777 42.7646 46.7235V36.7613C42.7646 36.7065 42.77 36.6529 42.7807 36.5993C42.7915 36.5457 42.8069 36.4938 42.8278 36.4432C42.8486 36.3932 42.8743 36.3449 42.9046 36.2996C42.9344 36.2544 42.969 36.2127 43.0077 36.1739C43.0458 36.1352 43.0881 36.1013 43.1334 36.0709C43.1781 36.0405 43.2263 36.0149 43.2763 35.9941C43.327 35.9732 43.3788 35.9577 43.4318 35.947C43.4854 35.9363 43.539 35.9309 43.5938 35.9309C43.648 35.9309 43.7023 35.9363 43.7553 35.947C43.8089 35.9577 43.8607 35.9732 43.9107 35.9941C43.9614 36.0149 44.009 36.0405 44.0543 36.0709C44.0996 36.1013 44.1413 36.1352 44.18 36.1739C44.2187 36.2127 44.2527 36.2544 44.283 36.2996C44.3134 36.3449 44.339 36.3932 44.3599 36.4432C44.3807 36.4938 44.3962 36.5457 44.4069 36.5993C44.4177 36.6529 44.423 36.7065 44.423 36.7613V46.7235C44.423 46.7777 44.4177 46.8319 44.4069 46.8855C44.3962 46.9391 44.3807 46.991 44.3599 47.041C44.339 47.0916 44.3134 47.1393 44.283 47.1846C44.2527 47.2298 44.2187 47.2721 44.18 47.3102C44.1413 47.349 44.0996 47.3835 44.0543 47.4139C44.009 47.4443 43.9614 47.4699 43.9107 47.4907C43.8607 47.5116 43.8089 47.5271 43.7553 47.5378C43.7023 47.5485 43.648 47.5539 43.5938 47.5539Z" fill="#00506C"/>
</svg>
