<svg width="95" height="95" viewBox="0 0 95 95" fill="none" xmlns="http://www.w3.org/2000/svg">
<circle cx="47.5" cy="47.5" r="47.5" fill="#D6F4FF"/>
<mask id="mask0_408_43" style="mask-type:luminance" maskUnits="userSpaceOnUse" x="27" y="52" width="43" height="22">
<path d="M70 52.0203H26.9999V73.1312H70V52.0203Z" fill="white"/>
</mask>
<g mask="url(#mask0_408_43)">
<path d="M42.7086 52.1468C43.2119 52.0768 43.6764 52.4299 43.7458 52.9333C43.8158 53.4379 43.4639 53.9036 42.9606 53.973L35.1931 55.0732C33.3841 55.3283 31.7405 56.1746 30.5786 57.4702C29.507 58.6652 28.8446 60.254 28.8446 62.1261V71.2896H68.156V62.1261C68.156 60.2623 67.4974 58.6881 66.4322 57.5007C65.2671 56.2014 63.614 55.3513 61.7954 55.0732L54.2691 53.9202C53.7658 53.8445 53.4196 53.3749 53.4947 52.8703C53.5698 52.3657 54.04 52.0189 54.5433 52.0946L62.0696 53.2463C64.305 53.588 66.3482 54.6462 67.8009 56.2663C69.1601 57.7813 70 59.7762 70 62.1261V72.2135C70 72.7238 69.587 73.1381 69.0773 73.1381H27.9226C27.4129 73.1381 27.0006 72.7238 27.0006 72.2135V62.1261C27.0006 59.7704 27.8437 57.7584 29.2099 56.2357C30.6613 54.6182 32.7026 53.5632 34.9411 53.2463L42.7086 52.1468Z" fill="#00506C"/>
</g>
<mask id="mask1_408_43" style="mask-type:luminance" maskUnits="userSpaceOnUse" x="49" y="52" width="11" height="22">
<path d="M59.7539 52.7437H49.8548V73.1311H59.7539V52.7437Z" fill="white"/>
</mask>
<g mask="url(#mask1_408_43)">
<path d="M58.0563 53.1205C58.3967 52.7412 58.9789 52.7107 59.3562 53.0517C59.7348 53.3922 59.7654 53.9757 59.4256 54.3549L51.7084 62.9235V72.2136C51.7084 72.7246 51.2954 73.1382 50.7864 73.1382C50.2767 73.1382 49.8637 72.7246 49.8637 72.2136V62.5703C49.8637 62.3495 49.9426 62.1275 50.1017 61.9512L50.103 61.9525L58.0563 53.1205Z" fill="#00506C"/>
</g>
<mask id="mask2_408_43" style="mask-type:luminance" maskUnits="userSpaceOnUse" x="37" y="52" width="11" height="22">
<path d="M47.2485 52.7437H37.3119V73.1311H47.2485V52.7437Z" fill="white"/>
</mask>
<g mask="url(#mask2_408_43)">
<path d="M37.5755 54.3549C37.2351 53.9757 37.2662 53.3922 37.6436 53.0517C38.0222 52.7107 38.6044 52.7412 38.9442 53.1205L46.8981 61.9525L46.8994 61.9512C47.0578 62.1275 47.1367 62.3495 47.1361 62.5703H47.1367V72.2136C47.1367 72.7246 46.7238 73.1382 46.2147 73.1382C45.7057 73.1382 45.2927 72.7246 45.2927 72.2136V62.9235L37.5755 54.3549Z" fill="#00506C"/>
</g>
<mask id="mask3_408_43" style="mask-type:luminance" maskUnits="userSpaceOnUse" x="32" y="14" width="34" height="37">
<path d="M65.4927 14H32.2619V50.1374H65.4927V14Z" fill="white"/>
</mask>
<g mask="url(#mask3_408_43)">
<path d="M54.0979 49.3427C53.6385 49.1282 53.44 48.5797 53.6544 48.1197C53.8695 47.659 54.4161 47.4605 54.8761 47.6755C56.3333 48.3577 57.6104 48.2749 58.6908 47.6386C59.8877 46.933 60.9001 45.5585 61.6936 43.7718C62.5227 41.9067 63.0992 39.609 63.3932 37.1484C64.1803 30.5568 62.9388 22.9154 59.0987 19.4157C56.4885 17.0378 52.7623 15.8479 49.0227 15.8479C45.2837 15.8479 41.5581 17.0378 38.948 19.4157C35.1015 22.9211 33.6666 30.5715 34.252 37.177C34.4721 39.6574 34.9799 41.9786 35.7549 43.8647C36.4899 45.6552 37.4533 47.0265 38.6203 47.7169C39.5995 48.2966 40.7691 48.3844 42.1193 47.8047C42.5864 47.6055 43.1266 47.8232 43.3264 48.2921C43.525 48.7605 43.3067 49.3013 42.8396 49.5011C40.8957 50.3353 39.1681 50.1832 37.6836 49.3051C36.1546 48.3997 34.9379 46.7173 34.0547 44.5652C33.2097 42.51 32.6587 40.001 32.4226 37.3361C31.7939 30.2476 33.4165 21.9622 37.7091 18.0514C40.6724 15.3509 44.8542 14 49.0227 14C53.1924 14 57.3743 15.3509 60.3376 18.0514C64.6448 21.9762 66.0695 30.2762 65.2226 37.3654C64.9089 39.9959 64.2815 42.4775 63.3722 44.5226C62.4285 46.6466 61.1686 48.3138 59.6198 49.2269C58.0195 50.1699 56.1659 50.3111 54.0979 49.3427Z" fill="#00506C"/>
</g>
<path d="M45.7643 24.671C47.1241 25.9672 51.4669 29.7876 56.0745 30.436C57.4349 30.6275 58.1425 31.776 58.3175 33.3388C58.4594 34.6153 58.2678 36.1386 57.7976 37.6906C57.3204 39.2629 56.5568 40.8569 55.5616 42.2491C53.4669 45.1781 50.3438 47.1557 46.7856 45.8901C44.2728 44.9961 41.8389 41.9889 40.5694 38.4325C40.0788 37.0606 39.7683 35.6187 39.699 34.1979C39.6296 32.7922 39.7931 31.4 40.2507 30.1095C41.0505 27.8519 42.7755 25.8838 45.7643 24.671ZM56.3264 28.6091C51.6833 27.9556 47.2011 23.5199 46.6939 23.0045C46.4534 22.7162 46.0494 22.5934 45.6752 22.7277H45.6758C41.7708 24.1282 39.5373 26.6092 38.5148 29.4961C37.9752 31.0188 37.7805 32.6478 37.8613 34.2844C37.9415 35.9044 38.2876 37.527 38.8323 39.0529C40.2767 43.0967 43.1484 46.5538 46.1734 47.6298C50.6741 49.2314 54.5276 46.8668 57.0601 43.3245C58.166 41.7776 59.0193 39.9934 59.5557 38.2244C60.0985 36.4345 60.3168 34.6541 60.1475 33.1371C59.8777 30.7268 58.6776 28.9406 56.3264 28.6091Z" fill="#00506C"/>
<path d="M36.0024 65.2627C36.0024 65.7711 35.5913 66.1834 35.0835 66.1834C34.5764 66.1834 34.166 65.7711 34.166 65.2627L34.1571 61.6191C34.1507 58.9492 34.8901 56.4459 36.1767 54.3085C37.5111 52.0923 39.4321 50.2648 41.7196 49.0469C42.1689 48.807 42.7269 48.9788 42.9662 49.4287C43.2042 49.8792 43.0336 50.4391 42.5838 50.6777C40.5902 51.7397 38.916 53.3318 37.7548 55.2617C36.6336 57.1249 35.989 59.301 35.9941 61.6191L36.0024 65.2627ZM54.4694 50.8699C54.0278 50.6173 53.8745 50.0529 54.1271 49.6106C54.3797 49.1684 54.9428 49.0144 55.3844 49.2677C57.3443 50.3952 59.014 51.9777 60.2471 53.8676C61.4485 55.7084 62.2369 57.8452 62.4761 60.1429C62.5277 60.6488 62.1599 61.1012 61.6547 61.1533C61.1494 61.2055 60.6983 60.8371 60.6461 60.3306C60.4393 58.3396 59.7527 56.4822 58.7054 54.878C57.6306 53.2306 56.176 51.8524 54.4694 50.8699Z" fill="#00506C"/>
</svg>
