<svg width="66" height="78" viewBox="0 0 66 78" fill="none" xmlns="http://www.w3.org/2000/svg">
<g clip-path="url(#clip0_340_1142)">
<path d="M48.8815 39.3282L48.8734 39.325V39.3323L48.6338 39.4216L48.8734 39.6386V39.6499L48.6501 39.8506L48.8734 39.6524V39.9343L48.8878 39.6499L48.8906 39.6524L49.113 39.8539L48.8942 39.6337L49.1301 39.4216L48.8906 39.3323V39.325L48.8815 39.3282Z" fill="#010101"/>
<mask id="mask0_340_1142" style="mask-type:luminance" maskUnits="userSpaceOnUse" x="0" y="15" width="66" height="58">
<path d="M66.0004 15.1492H0.467773V72.3289H66.0004V15.1492Z" fill="white"/>
</mask>
<g mask="url(#mask0_340_1142)">
<path d="M39.6159 42.991L33.4977 44.3576L35.2454 38.0477L38.4306 35.1869C38.0753 34.5467 37.6539 33.9081 37.1504 33.3125L33.3305 36.7469C33.1768 36.8843 33.0692 37.0565 33.0159 37.245L30.7917 45.2798L25.5949 49.9484C25.1311 50.3677 25.1311 51.0437 25.5949 51.4605C25.8273 51.6701 26.132 51.7749 26.4367 51.7749C26.7404 51.7749 27.0442 51.6701 27.2775 51.4605L32.4743 46.7903L39.5806 45.2018C39.6023 44.7939 39.615 44.3658 39.615 43.9083L39.6159 42.991Z" fill="#3BC7F7"/>
</g>
<mask id="mask1_340_1142" style="mask-type:luminance" maskUnits="userSpaceOnUse" x="0" y="15" width="66" height="58">
<path d="M66.0004 15.1492H0.467773V72.3289H66.0004V15.1492Z" fill="white"/>
</mask>
<g mask="url(#mask1_340_1142)">
<path d="M64.2127 16.7564C63.06 15.7213 61.5248 15.1484 59.8938 15.1484C58.261 15.1484 56.7276 15.7196 55.573 16.7564L49.5951 22.1294L45.9506 18.8551C45.4877 18.4366 44.7337 18.4366 44.2699 18.8551C43.8061 19.2719 43.8061 19.9487 44.2699 20.3663L47.9134 23.6399L39.168 31.5016C39.6797 32.0793 40.1254 32.6903 40.5169 33.3111L49.5951 25.1519L54.8724 29.8945L42.4508 41.055V43.9069C42.4508 43.967 42.4472 44.0214 42.4472 44.0799L56.5531 31.4049L60.1976 34.6785C60.429 34.8881 60.7319 34.9929 61.0366 34.9929C61.3413 34.9929 61.6459 34.8881 61.8792 34.6785C62.3448 34.2617 62.3448 33.5849 61.8792 33.1681L58.2356 29.8945L64.2136 24.5214C66.595 22.3813 66.595 18.8973 64.2127 16.7564ZM62.532 23.0086L56.5531 28.3816L51.2776 23.6399L57.2547 18.2676C57.9599 17.6347 58.8956 17.2861 59.8938 17.2861C60.8901 17.2861 61.8277 17.6339 62.532 18.2676C63.984 19.5766 63.984 21.7029 62.532 23.0086Z" fill="#3BC7F7"/>
</g>
<mask id="mask2_340_1142" style="mask-type:luminance" maskUnits="userSpaceOnUse" x="0" y="15" width="66" height="58">
<path d="M66.0004 15.1492H0.467773V72.3289H66.0004V15.1492Z" fill="white"/>
</mask>
<g mask="url(#mask2_340_1142)">
<path d="M36.18 29.0698C32.0537 26.7827 27.9581 27.7707 24.9664 28.4905C23.6662 28.8033 22.4403 29.104 21.5696 29.043C21.5027 29.0382 21.4349 29.0382 21.3662 29.043C20.5064 29.1048 19.2714 28.8033 17.9704 28.4905C14.9787 27.7707 10.8812 26.7827 6.75669 29.0698C3.61762 30.8078 1.6548 34.087 0.863701 36.5741C0.66118 37.2111 0.540934 37.9009 0.492112 38.6825L0.525564 38.6842C0.481263 38.9726 0.479454 39.2748 0.477646 39.547C0.47403 40.0313 0.471317 40.6764 0.469509 41.3207L0.466797 43.8963C0.466797 49.5936 2.06707 51.88 4.97288 56.0335C5.26039 56.4478 5.56417 56.8793 5.88241 57.3392C6.5397 58.2898 6.68074 58.6562 6.70877 58.7448C6.79828 59.0324 6.91581 59.4777 7.06409 60.0334C8.70504 66.1889 10.7881 72.719 14.8358 72.3095C17.0699 72.0828 17.9469 69.8801 18.0409 69.629C18.0599 69.5778 18.0743 69.5258 18.0861 69.4738C18.3908 68.082 18.4758 66.5748 18.558 65.1148C18.6602 63.268 18.7587 61.5252 19.2714 60.2763C19.5146 59.6832 19.7198 59.2404 20.1574 58.9113C20.6519 58.5384 21.1058 58.3353 21.4412 58.3353H21.4593C21.8282 58.3353 22.2839 58.5384 22.7784 58.9113C23.2142 59.238 23.4194 59.6824 23.6635 60.2763C24.1762 61.5252 24.2747 63.2712 24.3778 65.1164C24.4601 66.5765 24.545 68.0837 24.8488 69.4722C24.8597 69.5258 24.8759 69.5787 24.8949 69.629C24.9872 69.8801 25.8669 72.0828 28.0991 72.3095C28.2212 72.3225 28.3423 72.3282 28.4589 72.3282C32.267 72.3282 34.2787 66.0045 35.869 60.0326C36.0173 59.4768 36.1357 59.03 36.2261 58.744C36.3021 58.566 36.9413 57.357 37.1176 57.0491C37.481 56.4267 37.2161 55.6573 36.5209 55.3307C35.8283 55.0057 34.9703 55.2462 34.6087 55.8685C34.5508 55.9685 33.6277 57.6398 33.4975 58.0582C33.4017 58.3662 33.2742 58.8439 33.1151 59.4387C30.4435 69.4665 28.7338 69.8151 28.4182 69.7777C28.1425 69.7509 27.7736 69.2537 27.6091 68.884C27.3622 67.6953 27.2845 66.3213 27.2095 64.988C27.101 63.0315 26.9861 61.0084 26.3243 59.3956C25.9808 58.5612 25.5658 57.6853 24.5966 56.9565C23.5514 56.1692 22.5036 55.8011 21.4512 55.7881C20.4521 55.7735 19.3871 56.1708 18.3401 56.9565C17.3718 57.6837 16.955 58.5595 16.6133 59.3956C15.9515 61.0076 15.8367 63.0315 15.7282 64.9848C15.6522 66.3181 15.5763 67.6969 15.3276 68.8856C15.1667 69.2488 14.796 69.7501 14.5185 69.7777C14.2165 69.8175 12.4933 69.4665 9.82162 59.4387C9.6625 58.8439 9.53502 58.3662 9.43918 58.0582C9.28367 57.5602 8.92022 56.9045 8.29006 55.9937C7.97 55.5305 7.66351 55.0926 7.37239 54.6782C4.57598 50.6807 3.30028 48.8575 3.30028 43.8955C3.30028 42.134 3.3048 39.2635 3.31926 38.8629C3.32017 38.8491 3.32107 38.8353 3.32288 38.8207C3.35814 38.2332 3.44584 37.727 3.58778 37.2769C4.23332 35.2473 5.79471 32.5953 8.24395 31.2384C11.327 29.5305 14.3295 30.252 17.2362 30.9516C18.0662 31.1507 18.8709 31.3416 19.6475 31.4651C19.727 31.5228 19.812 31.5748 19.9061 31.6178L26.9183 34.7785C27.1227 34.8695 27.3396 34.9142 27.553 34.9142C28.072 34.9142 28.5719 34.6558 28.8206 34.2105C29.1714 33.5825 28.8875 32.8163 28.1886 32.501L25.0803 31.0987C25.2855 31.0491 25.4907 31.0012 25.6996 30.9508C28.6045 30.2512 31.6079 29.5281 34.691 31.2368C35.6502 31.769 36.4675 32.5002 37.151 33.3127L39.1672 31.5017C38.3291 30.5608 37.3364 29.7093 36.18 29.0698Z" fill="#3BC7F7"/>
</g>
<mask id="mask3_340_1142" style="mask-type:luminance" maskUnits="userSpaceOnUse" x="0" y="15" width="66" height="58">
<path d="M66.0004 15.1492H0.467773V72.3289H66.0004V15.1492Z" fill="white"/>
</mask>
<g mask="url(#mask3_340_1142)">
<path d="M41.416 44.7924L39.5825 45.2019C39.4107 48.4316 38.5464 50.2703 36.843 52.8158C36.4389 53.4171 36.6559 54.1995 37.3267 54.5627C37.9958 54.9259 38.8682 54.7293 39.2706 54.128C41.3988 50.9463 42.4214 48.612 42.4485 44.0798L41.9693 44.5096C41.8174 44.6478 41.624 44.7445 41.416 44.7924Z" fill="#3BC7F7"/>
</g>
<mask id="mask4_340_1142" style="mask-type:luminance" maskUnits="userSpaceOnUse" x="0" y="15" width="66" height="58">
<path d="M66.0004 15.1492H0.467773V72.3289H66.0004V15.1492Z" fill="white"/>
</mask>
<g mask="url(#mask4_340_1142)">
<path d="M42.4507 41.0549L40.5213 42.7896L39.6154 42.9911V43.9084C39.6154 44.3659 39.6028 44.7941 39.5811 45.2019L41.4146 44.7924C41.6225 44.7445 41.816 44.6478 41.967 44.5097L42.4462 44.0799C42.4462 44.0214 42.4498 43.9669 42.4498 43.9068L42.4507 41.0549Z" fill="#3BC7F7"/>
</g>
<mask id="mask5_340_1142" style="mask-type:luminance" maskUnits="userSpaceOnUse" x="0" y="15" width="66" height="58">
<path d="M66.0004 15.1492H0.467773V72.3289H66.0004V15.1492Z" fill="white"/>
</mask>
<g mask="url(#mask5_340_1142)">
<path d="M40.5183 33.3101C40.1241 32.6902 39.6793 32.0783 39.1675 31.5015L37.1514 33.3125C37.655 33.9073 38.0781 34.5459 38.4316 35.187L40.5183 33.3101Z" fill="#3BC7F7"/>
</g>
<mask id="mask6_340_1142" style="mask-type:luminance" maskUnits="userSpaceOnUse" x="0" y="15" width="66" height="58">
<path d="M66.0004 15.1492H0.467773V72.3289H66.0004V15.1492Z" fill="white"/>
</mask>
<g mask="url(#mask6_340_1142)">
<path d="M5.69265 39.7955L5.69807 39.9003L5.69627 42.9561C5.69627 43.6589 6.33185 44.2301 7.11391 44.2301C7.89596 44.2301 8.53065 43.6589 8.53065 42.9561L8.52432 39.6898C8.51438 39.5013 8.51347 39.3299 8.5189 39.1788L8.53517 38.9537C8.60388 38.2542 8.02796 37.635 7.24772 37.5749C6.46385 37.5213 5.78125 38.0315 5.71254 38.7319C5.70621 38.8002 5.69988 38.8757 5.69446 38.9562L5.68722 39.0683C5.67999 39.3072 5.6809 39.5412 5.69265 39.7955Z" fill="#3BC7F7"/>
</g>
<mask id="mask7_340_1142" style="mask-type:luminance" maskUnits="userSpaceOnUse" x="0" y="15" width="66" height="58">
<path d="M66.0004 15.1492H0.467773V72.3289H66.0004V15.1492Z" fill="white"/>
</mask>
<g mask="url(#mask7_340_1142)">
<path d="M7.58037 34.8327C7.11024 35.3933 7.23591 36.1912 7.86065 36.6145C8.11561 36.7876 8.41577 36.8704 8.71232 36.8704C9.14268 36.8704 9.5667 36.6966 9.84607 36.3651C9.95818 36.2318 10.7927 35.4461 11.7763 35.1796C12.5259 34.9773 12.9508 34.268 12.7257 33.5944C12.5005 32.9201 11.7085 32.5374 10.9608 32.7405C9.23851 33.2044 7.93659 34.4086 7.58037 34.8327Z" fill="#3BC7F7"/>
</g>
</g>
<defs>
<clipPath id="clip0_340_1142">
<rect width="66" height="78" fill="white"/>
</clipPath>
</defs>
</svg>
