<svg width="64" height="78" viewBox="0 0 64 78" fill="none" xmlns="http://www.w3.org/2000/svg">
<g clip-path="url(#clip0_340_1178)">
<path d="M47.4004 39.3282L47.3925 39.325V39.3323L47.1602 39.4216L47.3925 39.6386V39.6499L47.1759 39.8506L47.3925 39.6524V39.9343L47.4065 39.6499L47.4091 39.6524L47.6248 39.8539L47.4127 39.6337L47.6415 39.4216L47.4091 39.3323V39.325L47.4004 39.3282Z" fill="#010101"/>
<path d="M48.8911 43.706L48.8806 43.7019V43.71L48.5869 43.8246L48.8806 44.0968V44.113L48.6062 44.3657L48.8806 44.1155V44.4722L48.8981 44.113L48.9017 44.1155L49.1743 44.3698L48.906 44.0911L49.1945 43.8246L48.9017 43.71V43.7019L48.8911 43.706Z" fill="#3BC7F7"/>
<mask id="mask0_340_1178" style="mask-type:luminance" maskUnits="userSpaceOnUse" x="12" y="0" width="45" height="78">
<path d="M56.4983 0.111328H12.333V78H56.4983V0.111328Z" fill="white"/>
</mask>
<g mask="url(#mask0_340_1178)">
<path d="M12.4431 45.842C11.7479 49.6339 14.52 53.2609 15.8518 55.0053L15.9929 55.1857C16.4339 55.765 16.4287 56.3728 16.348 56.7782C13.7556 69.857 23.3608 77.172 23.815 77.5091C24.2691 77.8138 24.7381 77.9674 25.2063 77.9674C26.4845 77.9674 27.221 76.8762 27.4796 75.8663C27.7312 74.4184 27.5454 73.133 27.3665 71.8883C27.3236 71.5958 27.2815 71.3 27.2438 71.0018C26.9825 68.8958 26.8168 65.0543 28.6465 62.9524C29.3838 62.1082 30.3745 61.6394 31.6729 61.5208C32.4602 61.4501 33.102 61.4647 33.7727 61.5687C38.5446 62.213 38.584 67.7795 38.1816 71.04C38.1457 71.3406 38.1036 71.6372 38.0598 71.9321C37.8818 73.1736 37.6968 74.455 37.9616 75.9825C38.0265 76.2319 38.4122 77.4986 39.5607 77.8918C39.7404 77.9536 39.9622 77.9999 40.2174 77.9999C40.6154 77.9999 41.0967 77.8829 41.635 77.5221C42.0567 77.2215 51.9215 69.987 49.4088 56.9529C49.3124 56.4556 49.2852 55.7821 49.6999 55.4026C52.8622 52.5012 53.6635 47.9415 53.3873 44.9198V44.9181C53.2646 43.5881 52.8324 42.3913 52.1012 41.3545C48.7127 36.5648 41.9217 37.7909 38.8541 39.0901C32.4006 41.4569 27.192 39.212 27.0974 39.1738L26.872 39.0852C23.4853 37.7868 19.9618 37.8559 17.1993 39.2729C14.6717 40.568 12.9832 42.9023 12.4431 45.842ZM26.0637 40.997L26.1759 41.0393C26.4214 41.1498 32.2761 43.7124 39.7211 40.9791C39.7948 40.9475 47.0434 37.9493 50.2478 42.479C50.7765 43.2273 51.0895 44.1056 51.1798 45.092C51.2333 45.6681 51.5901 50.7811 48.1411 53.9434C47.2723 54.7413 46.9558 55.9064 47.2276 57.3161C49.4982 69.0933 40.6575 75.6282 40.3094 75.8809C40.3033 75.8833 40.2989 75.8874 40.2936 75.8915C40.2253 75.7915 40.1551 75.651 40.1306 75.5803C39.9333 74.4298 40.0894 73.3508 40.2551 72.206C40.2998 71.8972 40.3454 71.586 40.3831 71.274C41.2203 64.4677 38.9277 60.1907 34.1163 59.5431C33.6192 59.4651 33.1195 59.4245 32.5908 59.4245C32.2296 59.4245 31.8562 59.4424 31.4599 59.4781C29.5636 59.6512 28.0363 60.3849 26.9229 61.6638C24.7022 64.2126 24.6759 68.2775 25.0441 71.235C25.0809 71.5478 25.1256 71.855 25.1704 72.1613C25.3352 73.3085 25.4921 74.3916 25.3115 75.4584C25.2747 75.5908 25.201 75.7509 25.1327 75.8573C24.4848 75.3625 16.2244 68.7788 18.5284 57.1503C18.7511 56.0299 18.4942 54.9103 17.8025 54.0043L17.6622 53.8183C16.4129 52.186 14.0861 49.1423 14.6288 46.1881C15.0592 43.8416 16.3199 42.072 18.2741 41.071C20.4414 39.9562 23.267 39.9245 26.0637 40.997Z" fill="#3BC7F7"/>
</g>
<mask id="mask1_340_1178" style="mask-type:luminance" maskUnits="userSpaceOnUse" x="12" y="0" width="45" height="78">
<path d="M56.4983 0.111328H12.333V78H56.4983V0.111328Z" fill="white"/>
</mask>
<g mask="url(#mask1_340_1178)">
<path d="M52.9279 0.263236C48.4181 2.7568 43.9109 5.24955 39.4011 7.74392C36.9112 9.1203 34.4222 10.4975 31.9324 11.8747C31.5221 12.1005 31.0495 12.2996 30.6725 12.571C29.8563 13.1568 30.1211 14.3707 30.1211 15.227V23.9395C30.1211 24.4952 30.6278 24.9665 31.2292 24.9665H35.6794C36.2791 24.9665 36.7876 24.496 36.7876 23.9395V15.2433C36.5158 15.574 36.2458 15.903 35.9749 16.2337L55.7053 11.9965C57.0931 11.6992 56.5049 9.7183 55.117 10.0165C48.539 11.4278 41.962 12.8399 35.3849 14.2529C34.9149 14.3544 34.5713 14.8062 34.5713 15.2425V23.9395C34.9412 23.5974 35.3103 23.2554 35.6794 22.9125H31.2292C31.5975 23.2554 31.9683 23.5974 32.3374 23.9395V13.459C32.1542 13.7548 31.9709 14.0514 31.7877 14.3455C38.2868 10.751 44.7858 7.1573 51.2849 3.5628C52.2046 3.05417 53.1251 2.54555 54.0439 2.03611C55.2687 1.36011 54.1561 -0.416827 52.9279 0.263236Z" fill="#3BC7F7"/>
</g>
<mask id="mask2_340_1178" style="mask-type:luminance" maskUnits="userSpaceOnUse" x="12" y="0" width="45" height="78">
<path d="M56.4983 0.111328H12.333V78H56.4983V0.111328Z" fill="white"/>
</mask>
<g mask="url(#mask2_340_1178)">
<path d="M37.7849 33.0378C37.741 35.2868 35.7509 37.0775 33.3084 36.9914C30.9114 36.9069 29.1563 34.9447 29.2527 32.7794C29.3325 30.9846 30.2592 28.6982 31.5365 27.1464C31.7618 26.8742 32.223 26.4224 32.4027 26.2924C32.8121 25.9959 33.0068 25.8837 33.4793 25.8325C33.2233 25.861 33.5223 25.8439 33.5837 25.8496C33.8379 25.8797 33.2637 25.7675 33.6827 25.8561C33.9536 25.9138 34.022 25.943 34.1316 25.9983C34.5805 26.2242 34.8032 26.4175 35.1687 26.7897C35.9762 27.6103 36.5741 28.6869 36.9976 29.7317C37.45 30.8481 37.7717 31.9572 37.7849 33.0378C37.805 34.688 40.5754 34.692 40.5544 33.0378C40.5193 30.2623 39.2253 27.2528 37.293 25.1509C36.3769 24.1539 35.1012 23.3349 33.652 23.2837C32.1888 23.2317 30.858 24.0036 29.9032 24.9729C27.9052 27.005 26.6024 30.034 26.4832 32.7786C26.3359 36.1594 29.101 39.099 32.6982 39.5061C36.8704 39.9782 40.4816 36.8687 40.5553 33.037C40.5868 31.3852 37.8173 31.3852 37.7849 33.0378Z" fill="#3BC7F7"/>
</g>
</g>
<defs>
<clipPath id="clip0_340_1178">
<rect width="64" height="78" fill="white"/>
</clipPath>
</defs>
</svg>
