<svg width="55" height="54" viewBox="0 0 55 54" fill="none" xmlns="http://www.w3.org/2000/svg">
<path d="M24.8735 48.8778H15.5552C15.4647 48.8825 15.3759 48.8724 15.2884 48.848C15.2014 48.8242 15.1204 48.786 15.0453 48.7354C14.9709 48.6842 14.906 48.6228 14.8511 48.5508C14.7963 48.4781 14.7546 48.3994 14.7261 48.3131L9.51085 32.8301C9.46796 32.7038 9.45604 32.5751 9.47511 32.4435C9.49417 32.3118 9.54242 32.1915 9.61867 32.0831C9.6973 31.9729 9.79618 31.8871 9.91651 31.8258C10.0362 31.7638 10.1637 31.7334 10.2989 31.734H30.1382C30.2043 31.734 30.2692 31.7418 30.333 31.7572C30.3973 31.7721 30.4586 31.7948 30.5176 31.8252C30.576 31.8549 30.6302 31.8919 30.6802 31.9348C30.7303 31.9777 30.775 32.0259 30.8131 32.0795C30.8518 32.1331 30.8834 32.1903 30.9084 32.2517C30.9328 32.3124 30.9507 32.3756 30.9602 32.4411C30.9697 32.5066 30.9721 32.5721 30.9662 32.6377C30.9602 32.7032 30.9471 32.7675 30.9257 32.8301L25.7027 48.3131C25.6741 48.3994 25.6318 48.4781 25.5776 48.5508C25.5228 48.6228 25.4579 48.6842 25.3828 48.7354C25.3084 48.786 25.2274 48.8242 25.1398 48.848C25.0528 48.8724 24.9641 48.8825 24.8735 48.8778ZM16.1354 47.2176H24.2766L29.0189 33.3698H11.451L16.1354 47.2176Z" fill="#00506C"/>
<mask id="mask0_204_878" style="mask-type:luminance" maskUnits="userSpaceOnUse" x="6" y="47" width="29" height="7">
<path d="M6.11621 47.0781H34.3278V54H6.11621V47.0781Z" fill="white"/>
</mask>
<g mask="url(#mask0_204_878)">
<path d="M33.4876 54.0417H6.95761C6.90281 54.0417 6.84919 54.0363 6.79558 54.0256C6.74257 54.0149 6.69074 53.9994 6.64011 53.9785C6.59007 53.9577 6.54182 53.9321 6.49655 53.9017C6.45128 53.8713 6.40958 53.8368 6.37146 53.7986C6.33274 53.7599 6.29819 53.7176 6.26781 53.6724C6.23802 53.6271 6.21241 53.5794 6.19156 53.5288C6.17071 53.4788 6.15463 53.4269 6.1445 53.3733C6.13378 53.3197 6.12842 53.2661 6.12842 53.2113V50.4134C6.12842 50.3091 6.13378 50.2043 6.14391 50.1C6.15403 49.9964 6.16952 49.8927 6.18977 49.7903C6.21003 49.6872 6.23564 49.586 6.26602 49.4859C6.2964 49.3858 6.33155 49.2869 6.37146 49.1904C6.41137 49.0939 6.45604 48.9992 6.50549 48.9069C6.55433 48.8146 6.60794 48.7246 6.66632 48.6376C6.7241 48.5507 6.78665 48.4667 6.85277 48.3857C6.91949 48.3052 6.98918 48.2272 7.06304 48.1533C7.13691 48.0795 7.21435 48.0092 7.29536 47.9431C7.37637 47.8764 7.45977 47.8144 7.54674 47.756C7.63371 47.6977 7.72366 47.644 7.81539 47.5946C7.90772 47.5452 8.00244 47.5005 8.09894 47.4606C8.19544 47.4207 8.29373 47.3855 8.3938 47.3551C8.49388 47.3248 8.59514 47.2991 8.6976 47.2789C8.80006 47.258 8.90311 47.2431 9.00735 47.2324C9.1116 47.2223 9.21584 47.2175 9.32009 47.2175H31.1245C31.2293 47.2175 31.3336 47.2229 31.4372 47.2336C31.5409 47.2437 31.6445 47.2592 31.747 47.2801C31.8494 47.3009 31.9501 47.3265 32.0502 47.3569C32.1502 47.3873 32.2485 47.4224 32.345 47.463C32.4415 47.5029 32.5357 47.5475 32.6274 47.597C32.7197 47.6464 32.8091 47.7006 32.896 47.7584C32.983 47.8168 33.0664 47.8787 33.1474 47.9455C33.2278 48.0116 33.3053 48.0819 33.3791 48.1557C33.453 48.2296 33.5233 48.307 33.5894 48.388C33.6555 48.4691 33.7181 48.5531 33.7759 48.64C33.8342 48.727 33.8879 48.8163 33.9373 48.9087C33.9867 49.001 34.0314 49.0951 34.0713 49.1916C34.1112 49.2881 34.147 49.3864 34.1774 49.4865C34.2077 49.5866 34.2333 49.6878 34.2536 49.7909C34.2745 49.8933 34.2899 49.9964 34.3007 50.1006C34.3108 50.2049 34.3161 50.3091 34.3167 50.4134V53.2113C34.3167 53.2661 34.3114 53.3197 34.3007 53.3733C34.2899 53.4269 34.2745 53.4788 34.2536 53.5288C34.2328 53.5794 34.2071 53.6271 34.1768 53.6724C34.1464 53.7176 34.1124 53.7599 34.0737 53.7986C34.035 53.8368 33.9933 53.8713 33.948 53.9017C33.9027 53.9321 33.8551 53.9577 33.8045 53.9785C33.7544 53.9994 33.7026 54.0149 33.649 54.0256C33.596 54.0363 33.5418 54.0417 33.4876 54.0417ZM7.7862 52.3809H32.6584V50.4134C32.6584 50.3127 32.6488 50.2126 32.6292 50.1137C32.6095 50.0149 32.5803 49.919 32.5416 49.826C32.5029 49.7325 32.4558 49.6443 32.3998 49.5604C32.3438 49.4764 32.2801 49.3989 32.2092 49.3274C32.1377 49.256 32.0603 49.1928 31.9769 49.1368C31.8929 49.0802 31.8047 49.0332 31.7118 48.9945C31.6183 48.9557 31.5224 48.9271 31.4241 48.9075C31.3252 48.8878 31.2251 48.8777 31.1245 48.8777H9.31175C9.21108 48.8777 9.1116 48.8878 9.01272 48.9075C8.91383 48.9271 8.81793 48.9557 8.725 48.9945C8.63207 49.0332 8.54332 49.0802 8.45992 49.1368C8.37593 49.1928 8.29849 49.256 8.22761 49.3274C8.15612 49.3989 8.09239 49.4764 8.03639 49.5604C7.98099 49.6443 7.93334 49.7325 7.89521 49.826C7.8565 49.919 7.82731 50.0149 7.80765 50.1137C7.78799 50.2126 7.77846 50.3127 7.77846 50.4134L7.7862 52.3809Z" fill="#00506C"/>
</g>
<path d="M50.4829 39.9616C50.0201 39.961 49.5698 39.8866 49.1319 39.737L30.2952 33.3781H10.2987C10.0682 33.3775 9.83888 33.3591 9.61133 33.3209C9.38378 33.2834 9.16099 33.2274 8.94238 33.1535C8.72435 33.0797 8.51348 32.9885 8.30976 32.8801C8.10604 32.7717 7.91244 32.6472 7.72956 32.5072C7.54609 32.3672 7.37513 32.213 7.21668 32.0456C7.05883 31.8776 6.91527 31.6977 6.786 31.5065C6.65674 31.3153 6.54415 31.1145 6.44765 30.9048C6.35115 30.6952 6.27252 30.4789 6.21117 30.2567L0.150686 8.04847C0.107797 7.89181 0.0738431 7.73336 0.0494201 7.57252C0.0244013 7.41169 0.00891358 7.25026 0.00295667 7.08764C-0.00300009 6.92501 -2.17066e-05 6.76299 0.0124876 6.60096C0.0249971 6.43894 0.0470374 6.2781 0.0780129 6.11846C0.108988 5.95882 0.148899 5.80156 0.198341 5.64668C0.247187 5.4918 0.304968 5.3399 0.371685 5.19158C0.438401 5.04325 0.512862 4.89969 0.596257 4.75971C0.679653 4.62032 0.770197 4.48569 0.86908 4.35643C0.967368 4.22776 1.0734 4.10445 1.18598 3.9877C1.29857 3.87035 1.4177 3.76015 1.54339 3.6571C1.66849 3.55404 1.79954 3.45814 1.93595 3.36998C2.07236 3.28181 2.21354 3.20199 2.35888 3.12992C2.50483 3.05843 2.65375 2.9947 2.80684 2.94049C2.95993 2.88569 3.1154 2.83982 3.27326 2.80348C3.43171 2.76655 3.59135 2.73915 3.75278 2.72068C3.91362 2.70222 4.07564 2.69328 4.23826 2.69388C4.46701 2.69685 4.69456 2.7177 4.91973 2.75702C5.14549 2.79633 5.36649 2.85411 5.58332 2.92917C5.79955 3.00423 6.00864 3.09596 6.20998 3.20497C6.41132 3.31398 6.60313 3.43848 6.78481 3.57787C6.96649 3.71786 7.13567 3.87095 7.29233 4.03833C7.449 4.20572 7.59137 4.38383 7.72003 4.57445C7.8481 4.76447 7.96009 4.96343 8.056 5.17192C8.1519 5.37981 8.23053 5.59426 8.29189 5.81526L13.4904 24.9099H30.9922C31.4544 24.9105 31.9054 24.9849 32.3432 25.1339L51.8429 31.7174C51.9644 31.7543 52.0847 31.7966 52.2027 31.8442C52.3206 31.8919 52.4362 31.9443 52.5494 32.0027C52.6631 32.0605 52.7733 32.1236 52.8812 32.1915C52.9884 32.2594 53.0926 32.3321 53.1939 32.4095C53.2952 32.487 53.3923 32.5686 53.4864 32.655C53.5799 32.7413 53.6693 32.8313 53.755 32.9254C53.8408 33.0201 53.9218 33.1178 53.9987 33.2197C54.0755 33.3209 54.1476 33.4258 54.2149 33.5342C54.2822 33.642 54.3448 33.7528 54.4019 33.8666C54.4591 33.9804 54.5115 34.0965 54.5586 34.2151C54.6051 34.3336 54.6468 34.4539 54.6831 34.576C54.7188 34.6982 54.7498 34.8215 54.7748 34.9466C54.7993 35.0716 54.8189 35.1973 54.8326 35.3242C54.8463 35.4505 54.8541 35.578 54.8564 35.7049C54.8588 35.8323 54.8553 35.9598 54.8457 36.0867C54.8368 36.2142 54.8219 36.3405 54.801 36.4661C54.7808 36.5918 54.7546 36.7163 54.7224 36.8396C54.6908 36.9629 54.6533 37.0851 54.611 37.2048C54.5681 37.3245 54.5199 37.4425 54.4669 37.558C54.4133 37.6742 54.3549 37.7868 54.2911 37.8976C54.228 38.0078 54.1595 38.115 54.0862 38.2192C54.013 38.3235 53.9355 38.4242 53.8533 38.5218C53.7711 38.6189 53.6841 38.7119 53.5936 38.8018C53.5031 38.8912 53.4089 38.9763 53.3106 39.0568C53.2118 39.1378 53.1105 39.214 53.0051 39.2861C52.9002 39.3576 52.7918 39.4243 52.6804 39.4863C52.5696 39.5482 52.4558 39.6054 52.3397 39.6572C52.2229 39.7084 52.105 39.7549 51.9841 39.796C51.8637 39.8371 51.7416 39.8723 51.6183 39.9026C51.4944 39.9324 51.3699 39.9568 51.2436 39.9759C51.1179 39.9944 50.9917 40.0075 50.8642 40.0146C50.7373 40.0224 50.6104 40.0236 50.4829 40.0194V39.9616ZM4.23826 4.35404C4.00773 4.35524 3.78078 4.38621 3.55799 4.44578C3.47698 4.46782 3.39656 4.49403 3.31793 4.52441C3.23871 4.55479 3.16186 4.58874 3.08621 4.62627C3.01056 4.6638 2.9367 4.7055 2.86521 4.75017C2.79373 4.79545 2.72463 4.8437 2.65792 4.89552C2.5912 4.94735 2.52746 5.00274 2.46611 5.06053C2.40475 5.1189 2.34637 5.17966 2.29098 5.2434C2.23558 5.30714 2.18375 5.37385 2.13491 5.44295C2.08606 5.51205 2.04019 5.58294 1.9985 5.65621C1.9568 5.73007 1.91867 5.80513 1.88412 5.88257C1.84957 5.95941 1.81919 6.03804 1.79239 6.11846C1.76558 6.19888 1.74295 6.27989 1.72389 6.36269C1.70542 6.44489 1.69053 6.52829 1.67981 6.61228C1.66968 6.69568 1.66313 6.78026 1.66074 6.86485C1.65836 6.94944 1.66015 7.03343 1.6661 7.11802C1.67206 7.2026 1.68219 7.286 1.69648 7.36939C1.71018 7.45279 1.72865 7.53559 1.75069 7.6172L7.81117 29.8165C7.8481 29.9523 7.89636 30.084 7.95473 30.2115C8.01311 30.3395 8.08161 30.4617 8.16024 30.5784C8.23828 30.6946 8.32584 30.8042 8.42234 30.9066C8.51825 31.0091 8.62249 31.1026 8.73389 31.1878C8.84587 31.2736 8.96322 31.3492 9.08713 31.4147C9.21103 31.4809 9.3397 31.5369 9.47253 31.5815C9.60597 31.6268 9.74178 31.6608 9.87998 31.6834C10.0188 31.706 10.1582 31.7174 10.2987 31.7174H30.4281C30.5192 31.7144 30.6074 31.7281 30.6932 31.7591L49.6627 38.1597C49.7431 38.1859 49.8247 38.2073 49.9075 38.2252C49.9903 38.2425 50.0737 38.2562 50.1577 38.2657C50.2423 38.2752 50.3263 38.2812 50.4109 38.2824C50.4954 38.2836 50.58 38.2812 50.6646 38.274C50.7486 38.2675 50.8326 38.2562 50.916 38.2413C50.9994 38.2264 51.0816 38.2073 51.1632 38.1841C51.2448 38.1609 51.3246 38.1341 51.4039 38.1031C51.4825 38.0727 51.5599 38.0376 51.635 37.9994C51.7106 37.9613 51.7839 37.919 51.8554 37.8737C51.9269 37.8279 51.996 37.779 52.0627 37.7272C52.1294 37.6748 52.1931 37.6194 52.2545 37.561C52.3159 37.5026 52.3742 37.4413 52.4296 37.3769C52.485 37.3126 52.5369 37.2459 52.5857 37.1768C52.6345 37.1077 52.6798 37.0362 52.7221 36.9623C52.7638 36.8891 52.8019 36.8134 52.8365 36.736C52.871 36.6585 52.902 36.5799 52.9288 36.4995C53.0366 36.1754 53.0783 35.8425 53.0539 35.5017C53.0295 35.161 52.9407 34.8375 52.7882 34.532C52.6411 34.224 52.4392 33.9577 52.183 33.7325C51.9269 33.5074 51.6362 33.3424 51.3121 33.2369L31.8124 26.6951C31.5444 26.6016 31.268 26.5546 30.9838 26.554H12.8935C12.8006 26.5569 12.7095 26.545 12.6201 26.5182C12.5314 26.4908 12.4492 26.4497 12.3741 26.3949C12.299 26.3395 12.2347 26.274 12.1817 26.1972C12.1287 26.1209 12.0894 26.0375 12.0644 25.9476L6.72524 6.26381C6.68831 6.12799 6.64125 5.99575 6.58287 5.86768C6.5245 5.73901 6.45659 5.6163 6.37796 5.49954C6.29992 5.38219 6.21236 5.27259 6.11645 5.16954C6.01995 5.06708 5.9163 4.97296 5.80432 4.88718C5.69292 4.8014 5.57498 4.72516 5.45108 4.65903C5.32717 4.59291 5.19851 4.53692 5.06507 4.49165C4.93224 4.44638 4.79582 4.41183 4.65703 4.38919C4.51824 4.36596 4.37885 4.35464 4.23826 4.35404Z" fill="#00506C"/>
<path d="M48.2941 32.2159C48.2399 32.2159 48.1857 32.2105 48.1327 32.1998C48.0791 32.189 48.0273 32.1736 47.9766 32.1527C47.9266 32.1319 47.879 32.1062 47.8337 32.0759C47.7884 32.0455 47.7467 32.0109 47.708 31.9722C47.6693 31.9341 47.6353 31.8918 47.6049 31.8465C47.5746 31.8013 47.5489 31.7536 47.5281 31.703C47.5072 31.6529 47.4918 31.6011 47.481 31.5475C47.4703 31.4939 47.465 31.4397 47.465 31.3855V4.91867C47.465 4.80072 47.4584 4.68278 47.4453 4.56483C47.4328 4.44748 47.4131 4.33073 47.3875 4.21517C47.3619 4.0996 47.3303 3.98642 47.2922 3.87384C47.2547 3.76185 47.2106 3.65225 47.1606 3.54502C47.1111 3.4378 47.0551 3.33355 46.9944 3.23288C46.933 3.13162 46.8663 3.03393 46.7948 2.93981C46.7233 2.84569 46.6465 2.75634 46.5649 2.67056C46.4833 2.58478 46.3975 2.50377 46.3069 2.42752C46.217 2.35127 46.1229 2.28039 46.0246 2.21427C45.9269 2.14874 45.825 2.08798 45.7208 2.03318C45.616 1.97838 45.5087 1.92893 45.3991 1.88545C45.2889 1.84256 45.1769 1.80503 45.0632 1.77406C44.9488 1.74308 44.8338 1.71806 44.7171 1.6996C44.6003 1.68113 44.483 1.66922 44.365 1.66326C44.2471 1.6579 44.1291 1.65849 44.0112 1.66564C43.8932 1.67279 43.7759 1.6859 43.6597 1.70615L34.8883 3.20012L32.2024 5.69067C32.1613 5.72344 32.1184 5.75203 32.0719 5.77705C32.026 5.80147 31.9778 5.82172 31.9283 5.83721C31.8783 5.8527 31.8277 5.86342 31.7758 5.86938C31.724 5.87534 31.6722 5.87593 31.6198 5.87236C31.568 5.86819 31.5167 5.85985 31.4661 5.84615C31.4161 5.83245 31.3672 5.81458 31.3202 5.79134C31.2731 5.76871 31.229 5.7419 31.1867 5.71033C31.145 5.67936 31.1063 5.64421 31.0712 5.60609C31.036 5.56737 31.0044 5.52627 30.977 5.48159C30.9496 5.43691 30.9264 5.39045 30.9079 5.3416C30.8889 5.29276 30.8752 5.24272 30.8656 5.19149C30.8567 5.14026 30.8525 5.08844 30.8525 5.03602C30.8531 4.9836 30.8585 4.93177 30.8692 4.88054C30.8793 4.82932 30.8942 4.77987 30.9139 4.73103C30.9336 4.68278 30.958 4.63691 30.986 4.59283C31.0146 4.54875 31.0467 4.50824 31.0831 4.47071L33.993 1.81397C34.1133 1.70257 34.2545 1.63348 34.4159 1.60607L43.378 0.0704025C43.5537 0.0400226 43.7306 0.0197692 43.9087 0.00904693C44.0862 -0.00167544 44.2643 -0.00286666 44.4425 0.00547283C44.6206 0.0138125 44.7981 0.0322787 44.9738 0.0602757C45.1501 0.0882728 45.3247 0.125205 45.4962 0.172264C45.6684 0.219323 45.8375 0.275317 46.0037 0.340247C46.1693 0.405772 46.3314 0.479637 46.4892 0.562437C46.6477 0.645832 46.8002 0.736972 46.9485 0.836451C47.0962 0.93593 47.2386 1.04315 47.375 1.15812C47.5114 1.27368 47.6413 1.3958 47.764 1.52506C47.8873 1.65373 48.0029 1.78954 48.1113 1.93132C48.2197 2.07309 48.3204 2.22022 48.4127 2.37331C48.505 2.52581 48.5884 2.68307 48.6641 2.84509C48.7391 3.00712 48.8052 3.17272 48.863 3.34189C48.9202 3.51107 48.9679 3.68263 49.0066 3.85656C49.0453 4.0311 49.0745 4.20683 49.0935 4.38434C49.1132 4.56185 49.1233 4.73996 49.1233 4.91867V31.3855C49.1233 31.4397 49.118 31.4939 49.1073 31.5475C49.0965 31.6011 49.081 31.6529 49.0602 31.703C49.0393 31.7536 49.0137 31.8013 48.9833 31.8465C48.9536 31.8918 48.919 31.9341 48.8803 31.9722C48.8422 32.0109 48.7999 32.0455 48.7546 32.0759C48.7093 32.1062 48.6617 32.1319 48.6116 32.1527C48.561 32.1736 48.5092 32.189 48.4562 32.1998C48.4026 32.2105 48.3483 32.2159 48.2941 32.2159Z" fill="#00506C"/>
<path d="M31.2658 12.6066C31.1472 12.6072 31.034 12.584 30.9256 12.5363C30.8172 12.4887 30.7231 12.4207 30.6439 12.3326L24.31 5.21774C24.2742 5.17724 24.2432 5.13375 24.2158 5.08669C24.189 5.04023 24.167 4.99138 24.1491 4.94015C24.1319 4.88952 24.1193 4.8371 24.1116 4.78408C24.1045 4.73047 24.1021 4.67686 24.1056 4.62265C24.1086 4.56904 24.117 4.51603 24.1301 4.46361C24.1438 4.41178 24.1616 4.36115 24.1849 4.3123C24.2081 4.26405 24.2361 4.21759 24.2683 4.1747C24.3004 4.13122 24.3362 4.09131 24.3761 4.05556C24.5125 3.93285 24.6549 3.81789 24.8026 3.70947C24.9503 3.60106 25.1028 3.49979 25.2607 3.40687C25.4185 3.31334 25.58 3.22816 25.7462 3.15072C25.9124 3.07328 26.0815 3.00418 26.2543 2.94342C26.427 2.88266 26.6028 2.83024 26.7803 2.78676C26.9584 2.74327 27.1383 2.70872 27.3194 2.68311C27.501 2.6569 27.6827 2.64022 27.8656 2.63248C28.0491 2.62414 28.2319 2.62533 28.4148 2.63546C28.5977 2.64558 28.7794 2.66464 28.9605 2.69264C29.1416 2.72064 29.3209 2.75757 29.4984 2.80284C29.6753 2.84871 29.8504 2.90292 30.0226 2.96606C30.1947 3.02861 30.3633 3.09949 30.5283 3.17931C30.6933 3.25854 30.8541 3.34611 31.0108 3.44082C31.1669 3.53613 31.3188 3.63918 31.4653 3.74938C31.6113 3.85899 31.7524 3.97634 31.8871 4.10024C32.0223 4.22414 32.1509 4.3546 32.2731 4.49101C32.3952 4.62802 32.5101 4.77038 32.6186 4.91811C32.727 5.06584 32.8276 5.21893 32.9206 5.37679C33.0141 5.53465 33.0993 5.69667 33.1767 5.86287C33.2541 6.02906 33.3227 6.19883 33.3834 6.37218C33.4442 6.54492 33.496 6.72065 33.5395 6.89876C33.583 7.07687 33.6175 7.25677 33.6437 7.43845C33.6693 7.62013 33.686 7.80241 33.6944 7.98588C33.7021 8.16876 33.7009 8.35223 33.6908 8.5351C33.6807 8.71857 33.6616 8.90085 33.6336 9.08194C33.6056 9.26303 33.5693 9.44233 33.5234 9.62044C33.4781 9.79795 33.4239 9.97308 33.3608 10.1452C33.2982 10.3174 33.2273 10.4866 33.1481 10.6516C33.0689 10.8172 32.9813 10.978 32.8866 11.1347C32.7913 11.2913 32.6888 11.4432 32.5786 11.5898C32.469 11.7363 32.3517 11.8775 32.2278 12.0127C32.1045 12.1479 31.974 12.2766 31.8376 12.3987C31.6744 12.5435 31.4838 12.6126 31.2658 12.6066ZM26.1506 4.79421L31.2741 10.539C31.4051 10.3591 31.5201 10.1691 31.619 9.96891C31.7173 9.76876 31.7989 9.56206 31.862 9.34821C31.9258 9.13496 31.971 8.91693 31.9973 8.69594C32.0241 8.47434 32.0318 8.25215 32.0205 8.02937C32.0092 7.80658 31.9794 7.58677 31.9305 7.36875C31.8817 7.15133 31.815 6.93927 31.7304 6.73316C31.6458 6.52705 31.5439 6.32929 31.4254 6.14046C31.3075 5.95162 31.174 5.77411 31.0251 5.60791C30.878 5.43934 30.7171 5.28505 30.5438 5.14447C30.3699 5.00389 30.1852 4.8788 29.9904 4.76979C29.795 4.66018 29.5925 4.56845 29.3816 4.49399C29.1707 4.42012 28.9551 4.36413 28.7347 4.3266C28.5149 4.28907 28.2927 4.27001 28.0693 4.27061C27.8459 4.2712 27.6238 4.29086 27.4039 4.32898C27.1835 4.3677 26.9685 4.42429 26.7582 4.49994C26.5474 4.575 26.3448 4.66793 26.1506 4.77753V4.79421Z" fill="#00506C"/>
<path d="M27.7005 16.5583H17.4863C17.4321 16.5583 17.3779 16.553 17.3249 16.5423C17.2713 16.5315 17.2194 16.5161 17.1694 16.4952C17.1188 16.4744 17.0711 16.4487 17.0258 16.4184C16.9806 16.388 16.9389 16.3534 16.9002 16.3147C16.862 16.2766 16.8275 16.2343 16.7971 16.189C16.7667 16.1438 16.7411 16.0961 16.7209 16.0455C16.7 15.9954 16.6839 15.9436 16.6732 15.89C16.6625 15.8364 16.6577 15.7822 16.6577 15.728C16.6577 15.6732 16.6625 15.6196 16.6732 15.5659C16.6839 15.5123 16.7 15.4605 16.7209 15.4105C16.7411 15.3598 16.7667 15.3122 16.7971 15.2669C16.8275 15.2216 16.862 15.1793 16.9002 15.1406C16.9389 15.1025 16.9806 15.0679 17.0258 15.0376C17.0711 15.0072 17.1188 14.9816 17.1694 14.9607C17.2194 14.9399 17.2713 14.9244 17.3249 14.9137C17.3779 14.9029 17.4321 14.8976 17.4863 14.8976H27.7005C27.7553 14.8976 27.8089 14.9029 27.8625 14.9137C27.9155 14.9244 27.9674 14.9399 28.018 14.9607C28.068 14.9816 28.1157 15.0072 28.161 15.0376C28.2062 15.0679 28.2485 15.1025 28.2866 15.1406C28.3254 15.1793 28.3599 15.2216 28.3897 15.2669C28.4201 15.3122 28.4457 15.3598 28.4665 15.4105C28.4874 15.4605 28.5029 15.5123 28.5136 15.5659C28.5243 15.6196 28.5297 15.6732 28.5297 15.728C28.5297 15.7822 28.5243 15.8364 28.5136 15.89C28.5029 15.9436 28.4874 15.9954 28.4665 16.0455C28.4457 16.0961 28.4201 16.1438 28.3897 16.189C28.3599 16.2343 28.3254 16.2766 28.2866 16.3147C28.2485 16.3534 28.2062 16.388 28.161 16.4184C28.1157 16.4487 28.068 16.4744 28.018 16.4952C27.9674 16.5161 27.9155 16.5315 27.8625 16.5423C27.8089 16.553 27.7553 16.5583 27.7005 16.5583Z" fill="#00506C"/>
<path d="M22.5938 26.5539C22.539 26.5539 22.4854 26.5485 22.4318 26.5378C22.3788 26.5271 22.327 26.5116 22.2763 26.4907C22.2263 26.4699 22.1781 26.4443 22.1334 26.4139C22.0881 26.3835 22.0458 26.349 22.0077 26.3102C21.969 26.2721 21.9344 26.2298 21.9046 26.1846C21.8743 26.1393 21.8486 26.0916 21.8278 26.041C21.8069 25.991 21.7915 25.9391 21.7807 25.8855C21.77 25.8319 21.7646 25.7777 21.7646 25.7235V15.7613C21.7646 15.7065 21.77 15.6529 21.7807 15.5993C21.7915 15.5457 21.8069 15.4938 21.8278 15.4432C21.8486 15.3932 21.8743 15.3449 21.9046 15.2996C21.9344 15.2544 21.969 15.2127 22.0077 15.1739C22.0458 15.1352 22.0881 15.1013 22.1334 15.0709C22.1781 15.0405 22.2263 15.0149 22.2763 14.9941C22.327 14.9732 22.3788 14.9577 22.4318 14.947C22.4854 14.9363 22.539 14.9309 22.5938 14.9309C22.648 14.9309 22.7023 14.9363 22.7553 14.947C22.8089 14.9577 22.8607 14.9732 22.9107 14.9941C22.9614 15.0149 23.009 15.0405 23.0543 15.0709C23.0996 15.1013 23.1413 15.1352 23.18 15.1739C23.2187 15.2127 23.2527 15.2544 23.283 15.2996C23.3134 15.3449 23.339 15.3932 23.3599 15.4432C23.3807 15.4938 23.3962 15.5457 23.4069 15.5993C23.4177 15.6529 23.423 15.7065 23.423 15.7613V25.7235C23.423 25.7777 23.4177 25.8319 23.4069 25.8855C23.3962 25.9391 23.3807 25.991 23.3599 26.041C23.339 26.0916 23.3134 26.1393 23.283 26.1846C23.2527 26.2298 23.2187 26.2721 23.18 26.3102C23.1413 26.349 23.0996 26.3835 23.0543 26.4139C23.009 26.4443 22.9614 26.4699 22.9107 26.4907C22.8607 26.5116 22.8089 26.5271 22.7553 26.5378C22.7023 26.5485 22.648 26.5539 22.5938 26.5539Z" fill="#00506C"/>
</svg>
