<svg width="42" height="42" viewBox="0 0 42 42" fill="none" xmlns="http://www.w3.org/2000/svg">
<circle cx="21" cy="21" r="21" fill="#3BC7F7" fill-opacity="0.8"/>
<g clip-path="url(#clip0_404_42)">
<path d="M20.5 12.8908C23.3055 12.8908 23.6377 12.9031 24.741 12.9523C25.7664 12.9975 26.3201 13.1697 26.6893 13.3133C27.1773 13.502 27.5301 13.7316 27.8951 14.0967C28.2643 14.4658 28.4898 14.8145 28.6785 15.3025C28.8221 15.6717 28.9943 16.2295 29.0395 17.2508C29.0887 18.3582 29.101 18.6904 29.101 21.4918C29.101 24.2973 29.0887 24.6295 29.0395 25.7328C28.9943 26.7582 28.8221 27.3119 28.6785 27.6811C28.4898 28.1691 28.2602 28.5219 27.8951 28.8869C27.526 29.2561 27.1773 29.4816 26.6893 29.6703C26.3201 29.8139 25.7623 29.9861 24.741 30.0312C23.6336 30.0805 23.3014 30.0928 20.5 30.0928C17.6945 30.0928 17.3623 30.0805 16.259 30.0312C15.2336 29.9861 14.6799 29.8139 14.3107 29.6703C13.8227 29.4816 13.4699 29.252 13.1049 28.8869C12.7357 28.5178 12.5102 28.1691 12.3215 27.6811C12.1779 27.3119 12.0057 26.7541 11.9605 25.7328C11.9113 24.6254 11.899 24.2932 11.899 21.4918C11.899 18.6863 11.9113 18.3541 11.9605 17.2508C12.0057 16.2254 12.1779 15.6717 12.3215 15.3025C12.5102 14.8145 12.7398 14.4617 13.1049 14.0967C13.474 13.7275 13.8227 13.502 14.3107 13.3133C14.6799 13.1697 15.2377 12.9975 16.259 12.9523C17.3623 12.9031 17.6945 12.8908 20.5 12.8908ZM20.5 11C17.6494 11 17.2926 11.0123 16.1729 11.0615C15.0572 11.1107 14.2902 11.2912 13.6258 11.5496C12.9326 11.8203 12.3461 12.1771 11.7637 12.7637C11.1771 13.3461 10.8203 13.9326 10.5496 14.6217C10.2912 15.2902 10.1107 16.0531 10.0615 17.1687C10.0123 18.2926 10 18.6494 10 21.5C10 24.3506 10.0123 24.7074 10.0615 25.8271C10.1107 26.9428 10.2912 27.7098 10.5496 28.3742C10.8203 29.0674 11.1771 29.6539 11.7637 30.2363C12.3461 30.8187 12.9326 31.1797 13.6217 31.4463C14.2902 31.7047 15.0531 31.8852 16.1688 31.9344C17.2885 31.9836 17.6453 31.9959 20.4959 31.9959C23.3465 31.9959 23.7033 31.9836 24.823 31.9344C25.9387 31.8852 26.7057 31.7047 27.3701 31.4463C28.0592 31.1797 28.6457 30.8187 29.2281 30.2363C29.8105 29.6539 30.1715 29.0674 30.4381 28.3783C30.6965 27.7098 30.877 26.9469 30.9262 25.8313C30.9754 24.7115 30.9877 24.3547 30.9877 21.5041C30.9877 18.6535 30.9754 18.2967 30.9262 17.177C30.877 16.0613 30.6965 15.2943 30.4381 14.6299C30.1797 13.9326 29.8229 13.3461 29.2363 12.7637C28.6539 12.1813 28.0674 11.8203 27.3783 11.5537C26.7098 11.2953 25.9469 11.1148 24.8313 11.0656C23.7074 11.0123 23.3506 11 20.5 11Z" fill="#F5F5F5"/>
<path d="M20.5 16.1064C17.5223 16.1064 15.1064 18.5223 15.1064 21.5C15.1064 24.4777 17.5223 26.8936 20.5 26.8936C23.4777 26.8936 25.8936 24.4777 25.8936 21.5C25.8936 18.5223 23.4777 16.1064 20.5 16.1064ZM20.5 24.9986C18.5682 24.9986 17.0014 23.4318 17.0014 21.5C17.0014 19.5682 18.5682 18.0014 20.5 18.0014C22.4318 18.0014 23.9986 19.5682 23.9986 21.5C23.9986 23.4318 22.4318 24.9986 20.5 24.9986Z" fill="#F5F5F5"/>
<path d="M27.366 15.893C27.366 16.5902 26.8 17.1522 26.1068 17.1522C25.4096 17.1522 24.8477 16.5861 24.8477 15.893C24.8477 15.1957 25.4137 14.6338 26.1068 14.6338C26.8 14.6338 27.366 15.1998 27.366 15.893Z" fill="#F5F5F5"/>
</g>
<defs>
<clipPath id="clip0_404_42">
<rect width="21" height="21" fill="white" transform="translate(10 11)"/>
</clipPath>
</defs>
</svg>
