<svg width="65" height="52" viewBox="0 0 65 52" fill="none" xmlns="http://www.w3.org/2000/svg">
<mask id="mask0_204_841" style="mask-type:luminance" maskUnits="userSpaceOnUse" x="8" y="33" width="57" height="19">
<path d="M8.98047 33.9189H64.6131V51.5888H8.98047V33.9189Z" fill="white"/>
</mask>
<g mask="url(#mask0_204_841)">
<path fill-rule="evenodd" clip-rule="evenodd" d="M38.1995 51.5874C36.8317 51.5874 35.4632 51.3257 34.1718 50.8001L18.8959 44.5889C17.0755 43.8481 15.0995 43.687 13.1839 44.1217L9.99851 44.8465C9.60068 44.9354 9.20424 44.6868 9.11537 44.289C9.02441 43.8905 9.27436 43.494 9.67219 43.4038L12.8576 42.6789C15.0703 42.1769 17.3518 42.363 19.4534 43.2177L34.7273 49.4282C37.142 50.4099 39.8727 50.3203 42.2167 49.1852L61.7792 39.7205C62.3242 39.4574 62.7324 38.9964 62.9268 38.4243C63.1226 37.8508 63.0803 37.2356 62.8102 36.6927C62.4269 35.9262 61.6563 35.4478 60.7995 35.4478C60.5989 35.4478 60.394 35.4756 60.192 35.5311L43.7719 40.1079C43.3782 40.2162 42.9714 39.9878 42.8624 39.5941C42.7527 39.2005 42.9818 38.7943 43.3754 38.6825L59.7976 34.1057C60.1295 34.0148 60.4656 33.9683 60.7981 33.9683C62.218 33.9683 63.4948 34.7584 64.1294 36.0296C64.5786 36.928 64.6473 37.948 64.3224 38.8992C63.9995 39.849 63.3219 40.6141 62.4186 41.0487L42.861 50.521C41.3932 51.2306 39.7977 51.5888 38.1995 51.5874Z" fill="#00506C"/>
</g>
<path fill-rule="evenodd" clip-rule="evenodd" d="M41.5497 42.5889C41.2121 42.5889 40.8668 42.5451 40.5278 42.4511L28.1103 39.0353C27.7117 38.9261 27.4876 38.5483 27.6103 38.1914C27.7323 37.8339 28.155 37.6332 28.5528 37.7424L40.9696 41.1569C41.9703 41.4325 43.0284 40.9562 43.378 40.0729C43.4539 39.8843 43.4915 39.6888 43.4915 39.4868C43.4915 39.424 43.4866 39.3598 43.4795 39.2969C43.4121 38.7546 43.0653 38.2714 42.5504 37.9945L27.3068 32.4362C23.9288 31.2037 20.2239 30.7192 16.5928 31.0348L9.82842 31.6228C9.41282 31.6558 9.04404 31.3872 9.00361 31.0151C8.96319 30.643 9.26673 30.3134 9.68161 30.2759L16.446 29.6885C20.3197 29.3526 24.2707 29.8695 27.8741 31.1834L43.1667 36.7594C43.1972 36.7715 43.227 36.7848 43.2554 36.7982C44.2114 37.2865 44.8553 38.1615 44.9773 39.1414C44.9929 39.2525 45 39.37 45 39.4868C45 39.8443 44.9326 40.1961 44.7986 40.5276C44.2986 41.7938 42.9759 42.5889 41.5497 42.5889Z" fill="#00506C"/>
<path fill-rule="evenodd" clip-rule="evenodd" d="M8.47979 47.5889H6.57467C6.25733 47.5889 6 47.2502 6 46.8319C6 46.4121 6.25733 46.0749 6.57467 46.0749H8.47979C8.68361 46.0749 8.85011 45.8557 8.85011 45.5875V29.5909C8.85011 29.3206 8.68415 29.1036 8.47979 29.1036H6.57467C6.25733 29.1036 6 28.7642 6 28.3459C6 27.9282 6.25733 27.5889 6.57467 27.5889H8.47979C9.31829 27.5889 10 28.4874 10 29.5924V45.5875C10 46.691 9.31829 47.5889 8.47979 47.5889Z" fill="#00506C"/>
<mask id="mask1_204_841" style="mask-type:luminance" maskUnits="userSpaceOnUse" x="0" y="26" width="8" height="23">
<path d="M0 26.0986H7.02559V48.8493H0V26.0986Z" fill="white"/>
</mask>
<g mask="url(#mask1_204_841)">
<path fill-rule="evenodd" clip-rule="evenodd" d="M1.48312 47.2393H4.93169C5.20802 47.2393 5.43297 47.0136 5.43297 46.7359V28.1857C5.43297 27.9087 5.20802 27.6837 4.93169 27.6837H1.48312V47.2393ZM4.93169 48.7168H0.744385C0.336833 48.7168 0.00634766 48.3863 0.00634766 47.978V26.945C0.00634766 26.7485 0.0834146 26.5617 0.222274 26.4222C0.361828 26.2833 0.548594 26.2056 0.744385 26.2056H4.93169C6.02243 26.2056 6.91043 27.0943 6.91043 28.1857V46.7359C6.91043 47.8274 6.02243 48.7168 4.93169 48.7168Z" fill="#00506C"/>
</g>
<path fill-rule="evenodd" clip-rule="evenodd" d="M3.00141 44.5889C2.73788 44.5889 2.48 44.5353 2.29365 44.4424C2.10541 44.3494 2 44.2208 2 44.0893C2 43.9574 2.10729 43.8288 2.29365 43.7349C2.52518 43.6189 2.87059 43.5658 3.19529 43.5982C3.25929 43.6043 3.32235 43.6151 3.38447 43.6269C3.44565 43.6391 3.50306 43.655 3.55859 43.6724C3.61224 43.6903 3.66588 43.7109 3.70918 43.7339C3.75624 43.7579 3.79859 43.7823 3.83435 43.81C3.86918 43.8367 3.89929 43.8668 3.92471 43.8964C3.94918 43.9269 3.96894 43.9579 3.98024 43.9903C3.99435 44.0222 4 44.0555 4 44.0884C4 44.2198 3.89365 44.3485 3.70729 44.4414C3.66118 44.4654 3.61035 44.486 3.55671 44.5039C3.50118 44.5208 3.44376 44.5368 3.38165 44.5494C3.32047 44.5612 3.25929 44.571 3.19341 44.5781C3.13035 44.5846 3.06447 44.5889 3.00141 44.5889Z" fill="#00506C"/>
<path fill-rule="evenodd" clip-rule="evenodd" d="M43.2523 26.5889C43.0098 26.5889 42.7716 26.4721 42.6275 26.2605C41.2627 24.2445 38.9666 23.043 36.487 23.043C34.0265 23.043 31.7396 24.2329 30.3698 26.2264C30.1407 26.5595 29.6754 26.6503 29.3317 26.4257C28.9887 26.2031 28.8967 25.7512 29.1265 25.4174C30.7739 23.0205 33.5261 21.5889 36.487 21.5889C39.4712 21.5889 42.2339 23.0362 43.8771 25.4604C44.1034 25.7956 44.0085 26.2462 43.6635 26.4673C43.5369 26.55 43.3929 26.5889 43.2523 26.5889Z" fill="#00506C"/>
<path fill-rule="evenodd" clip-rule="evenodd" d="M37.0003 16.0606C35.5158 16.0606 34.3086 17.4197 34.3086 19.0878C34.3086 20.758 35.5158 22.1157 37.0003 22.1157C38.4848 22.1157 39.692 20.758 39.692 19.0878C39.692 17.4197 38.4848 16.0606 37.0003 16.0606ZM37.0003 23.5889C34.7944 23.5889 33 21.5696 33 19.0878C33 16.6068 34.7944 14.5889 37.0003 14.5889C39.2062 14.5889 41 16.6068 41 19.0878C41.0012 21.5696 39.2062 23.5889 37.0003 23.5889Z" fill="#00506C"/>
<mask id="mask2_204_841" style="mask-type:luminance" maskUnits="userSpaceOnUse" x="31" y="0" width="11" height="10">
<path d="M31.9092 0H41.6849V9.21332H31.9092V0Z" fill="white"/>
</mask>
<g mask="url(#mask2_204_841)">
<path fill-rule="evenodd" clip-rule="evenodd" d="M34.7502 2.45226C34.7488 2.45365 34.7467 2.45642 34.7467 2.45781L34.7502 2.45226ZM39.8776 5.77933V5.7828C39.8776 5.78141 39.8776 5.77933 39.8776 5.77933ZM33.6678 5.7828C33.6678 5.7828 33.6678 5.78419 33.6678 5.78558V5.7828ZM39.7762 6.10148L39.7734 6.10426C39.7734 6.10287 39.7748 6.10148 39.7762 6.10148ZM36.7727 6.71941C36.9219 6.71941 37.0698 6.74995 37.208 6.81244L38.5681 7.42134L38.4091 5.93902C38.3751 5.63769 38.4737 5.33359 38.6813 5.10794L39.6783 4.00609L38.2203 3.7006C37.9252 3.63881 37.6704 3.45274 37.5183 3.19238L36.774 1.89335L36.0325 3.18682C35.886 3.44857 35.6271 3.63742 35.3278 3.7006L33.8698 4.00609L34.8696 5.11141C35.0744 5.34053 35.1709 5.64255 35.139 5.94249L34.9793 7.42134L36.3394 6.81175C36.4755 6.74995 36.6248 6.71941 36.7727 6.71941ZM39.2235 7.71711L39.2263 7.7185C39.2249 7.7185 39.2235 7.71711 39.2235 7.71711ZM39.0569 9.15986C38.9076 9.15986 38.7583 9.12792 38.6181 9.06474L36.7727 8.23644L34.9237 9.06613C34.5773 9.22165 34.1704 9.1793 33.8636 8.95643C33.5567 8.73287 33.39 8.36072 33.4289 7.98164L33.6469 5.9654L32.2882 4.46294C32.0327 4.18175 31.948 3.78114 32.0646 3.41941C32.1834 3.05838 32.4875 2.78413 32.8589 2.70706L34.8404 2.29118L35.8485 0.533914C36.0416 0.203429 36.3936 0 36.7727 0C36.774 0 36.774 0 36.7754 0C37.1545 0.00138868 37.5065 0.204818 37.6954 0.533914L38.7028 2.29118L40.6843 2.70706C41.0558 2.78482 41.3606 3.05699 41.4786 3.41941C41.5973 3.78114 41.5112 4.18175 41.255 4.46294L39.8963 5.9654L40.1143 7.98025C40.1539 8.36072 39.9873 8.73703 39.6797 8.95782C39.4971 9.09251 39.2777 9.15986 39.0569 9.15986Z" fill="#00506C"/>
</g>
<path fill-rule="evenodd" clip-rule="evenodd" d="M47.5839 7.99845C47.5826 7.99981 47.5826 8.00254 47.5813 8.00391L47.5839 7.99845ZM52.4327 11.2675V11.2702C52.4327 11.2688 52.4327 11.2688 52.4327 11.2675ZM52.3362 11.5826L52.3336 11.5854C52.3349 11.5854 52.3362 11.584 52.3362 11.5826ZM49.4973 12.1904C49.6384 12.1904 49.7782 12.2205 49.9095 12.2825L51.1954 12.8822L51.0444 11.4271C51.0129 11.1297 51.1068 10.8309 51.3017 10.6092L52.245 9.52653L50.8665 9.22637C50.5882 9.16566 50.3454 8.98283 50.2016 8.72702L49.4973 7.45066L48.7963 8.72156C48.6584 8.97874 48.4136 9.16429 48.13 9.22637L46.7516 9.52653L47.6974 10.6126C47.8911 10.8377 47.9823 11.1344 47.9515 11.4291L47.8012 12.8829L49.087 12.2825C49.217 12.2205 49.3568 12.1904 49.4973 12.1904ZM51.815 13.1701L51.8177 13.1714C51.8163 13.1714 51.815 13.1701 51.815 13.1701ZM51.6575 14.589C51.5164 14.589 51.3752 14.5569 51.244 14.4955L49.4986 13.6817L47.7513 14.4969C47.4237 14.649 47.0404 14.6074 46.749 14.3905C46.4582 14.1701 46.3006 13.8038 46.338 13.4327L46.5442 11.4516L45.2596 9.97541C45.0193 9.69912 44.9373 9.30482 45.0495 8.95009C45.1598 8.59467 45.4493 8.3259 45.8005 8.25017L47.6738 7.84155L48.6263 6.11495C48.8074 5.79023 49.1409 5.58899 49.5006 5.58899C49.8583 5.58899 50.1931 5.78819 50.3729 6.11359L50.3742 6.11495L51.3267 7.84155L53.2 8.25017C53.5512 8.3259 53.8394 8.59331 53.951 8.95009C54.0619 9.30482 53.9818 9.69912 53.7396 9.97677L52.455 11.4516L52.6611 13.4313C52.6999 13.8052 52.5423 14.1735 52.2502 14.3918C52.0723 14.5215 51.8649 14.589 51.6575 14.589Z" fill="#00506C"/>
<path fill-rule="evenodd" clip-rule="evenodd" d="M22.5863 8.00031C22.5843 8.00304 22.583 8.00441 22.583 8.00577L22.5863 8.00031ZM27.9124 9.67084C27.9137 9.67084 27.9137 9.67084 27.9124 9.67084V9.67084ZM21.0871 9.67221C21.0857 9.67221 21.0857 9.67221 21.0871 9.67221V9.67221ZM27.4352 11.2677V11.2704C27.4352 11.2691 27.4352 11.2691 27.4352 11.2677ZM21.5643 11.2704C21.5643 11.2704 21.5643 11.2725 21.5643 11.2738V11.2704ZM27.338 11.5828L27.3354 11.5856C27.3367 11.5856 27.338 11.5842 27.338 11.5828ZM21.754 9.52692L22.6979 10.6108C22.8928 10.8366 22.9841 11.134 22.9526 11.4287L22.8016 12.8809L24.0875 12.2813C24.3487 12.1586 24.6507 12.1586 24.9119 12.2813L26.1978 12.8809L26.0469 11.4246C26.0154 11.1286 26.1092 10.8291 26.3042 10.6074L27.2468 9.52487L25.8683 9.22473C25.5907 9.16402 25.3484 8.98326 25.2047 8.7261L24.501 7.45052L23.8 8.72269C23.6621 8.97917 23.4173 9.16402 23.1337 9.2261L21.754 9.52692ZM26.8155 13.1702L26.8181 13.1715C26.8168 13.1715 26.8168 13.1702 26.8155 13.1702ZM26.658 14.589C26.5168 14.589 26.3757 14.5569 26.2444 14.4955L24.4997 13.6818L22.7517 14.4969C22.4242 14.649 22.0415 14.6074 21.7494 14.3905C21.4592 14.1702 21.3017 13.8039 21.3391 13.4328L21.5446 11.4519L20.2606 9.97848C20.0184 9.70086 19.9383 9.30659 20.0486 8.95188C20.1609 8.59649 20.4484 8.32773 20.7996 8.25202L22.6729 7.84342L23.626 6.11696C23.8052 5.79363 24.1387 5.59035 24.4984 5.58899H24.4997C24.8581 5.58899 25.1922 5.78885 25.3721 6.11423C25.3721 6.11423 25.3721 6.11559 25.3734 6.11559L26.3265 7.84206L28.1999 8.24997C28.551 8.32637 28.8386 8.59376 28.9508 8.95052C29.0624 9.30522 28.981 9.69949 28.7388 9.97644L27.4542 11.4519L27.6603 13.4314C27.699 13.8052 27.5415 14.1729 27.2501 14.3919C27.0741 14.5215 26.8667 14.589 26.658 14.589Z" fill="#00506C"/>
<path fill-rule="evenodd" clip-rule="evenodd" d="M36.4997 12.1169C32.0626 12.1169 28.451 15.9179 28.451 20.5889C28.451 25.2612 32.0619 29.0616 36.4997 29.0616C40.9374 29.0616 44.5483 25.2605 44.5483 20.5889C44.5483 15.9165 40.9387 12.1169 36.4997 12.1169ZM36.4997 30.5889C31.2617 30.5889 27 26.1024 27 20.5889C27 15.0739 31.2617 10.5889 36.4997 10.5889C41.7376 10.5889 46 15.0739 46 20.5889C46 26.1038 41.739 30.5889 36.4997 30.5889Z" fill="#00506C"/>
</svg>
