<svg width="42" height="42" viewBox="0 0 42 42" fill="none" xmlns="http://www.w3.org/2000/svg">
<circle cx="21" cy="21" r="21" fill="#3BC7F7" fill-opacity="0.8"/>
<g clip-path="url(#clip0_404_41)">
<path d="M33 22C33 15.3726 27.6274 10 21 10C14.3726 10 9 15.3726 9 22C9 27.9895 13.3882 32.954 19.125 33.8542V25.4688H16.0781V22H19.125V19.3563C19.125 16.3488 20.9166 14.6875 23.6576 14.6875C24.9701 14.6875 26.3438 14.9219 26.3438 14.9219V17.875H24.8306C23.34 17.875 22.875 18.8001 22.875 19.75V22H26.2031L25.6711 25.4688H22.875V33.8542C28.6118 32.954 33 27.9895 33 22Z" fill="#F5F5F5"/>
</g>
<defs>
<clipPath id="clip0_404_41">
<rect width="24" height="24" fill="white" transform="translate(9 10)"/>
</clipPath>
</defs>
</svg>
