<svg width="70" height="52" viewBox="0 0 70 52" fill="none" xmlns="http://www.w3.org/2000/svg">
<path d="M62.6796 0H25.7773C25.028 0 24.4206 0.607336 24.4206 1.3567C24.4206 2.10607 25.028 2.7134 25.7773 2.7134H62.6796C64.924 2.7134 66.7498 4.53912 66.7498 6.78351V44.7712C66.7498 47.0156 64.924 48.8413 62.6796 48.8413H6.78351C4.53912 48.8413 2.7134 47.0156 2.7134 44.7712V6.78351C2.7134 4.53912 4.53912 2.7134 6.78351 2.7134H14.9237C15.6731 2.7134 16.2804 2.10607 16.2804 1.3567C16.2804 0.607336 15.6731 0 14.9237 0H6.78351C3.04304 0 0 3.04304 0 6.78351V44.7712C0 48.5116 3.04304 51.5547 6.78351 51.5547H62.6796C66.4201 51.5547 69.4632 48.5116 69.4632 44.7712V6.78351C69.4632 3.04304 66.4201 0 62.6796 0Z" fill="white"/>
<path d="M20.3505 7.05481C13.169 7.05481 7.32617 12.8976 7.32617 20.0792C7.32617 27.2607 13.169 33.1035 20.3505 33.1035C27.532 33.1035 33.3749 27.2607 33.3749 20.0792C33.3749 12.8976 27.532 7.05481 20.3505 7.05481ZM18.1169 30.1458C15.8241 29.6362 15.0313 26.7536 17.0389 25.5345C18.0125 24.9432 19.1503 24.6082 20.3505 24.6082C21.5506 24.6082 22.6883 24.9431 23.662 25.5343C25.67 26.7533 24.8771 29.6362 22.584 30.1458C21.8647 30.3057 21.1173 30.3901 20.3505 30.3901C19.5836 30.3901 18.8362 30.3057 18.1169 30.1458ZM17.882 19.4262V18.9164C17.882 17.5549 18.9896 16.4479 20.3505 16.4479C21.7115 16.4479 22.8191 17.5549 22.8191 18.9164V19.4262C22.8191 20.7872 21.7115 21.8948 20.3505 21.8948C18.9896 21.8948 17.882 20.7872 17.882 19.4262ZM29.8674 24.0456C29.3122 25.3721 27.5303 25.223 26.4651 24.2569C25.4766 23.3604 25.1711 21.7497 25.4325 20.4411C25.4981 20.1129 25.5325 19.7735 25.5325 19.4262V18.9164C25.5325 16.0589 23.2075 13.7344 20.3505 13.7344C17.4935 13.7344 15.1685 16.0589 15.1685 18.9164V19.4262C15.1685 19.7734 15.2029 20.1126 15.2685 20.4407C15.5298 21.7494 15.2241 23.3603 14.2357 24.257C13.1707 25.223 11.3889 25.3722 10.8337 24.0459C10.3223 22.8243 10.0396 21.4841 10.0396 20.0792C10.0396 14.3937 14.6651 9.76821 20.3505 9.76821C26.0359 9.76821 30.6615 14.3937 30.6615 20.0792C30.6615 21.484 30.3787 22.824 29.8674 24.0456Z" fill="white"/>
<path d="M41.2434 27.134H60.7799C61.5293 27.134 62.1366 26.5267 62.1366 25.7773V14.9237C62.1366 14.1744 61.5293 13.567 60.7799 13.567H41.2434C40.4941 13.567 39.8867 14.1744 39.8867 14.9237V25.7773C39.8867 26.5267 40.4941 27.134 41.2434 27.134ZM42.6001 20.3505C42.6001 18.1027 44.4224 16.2804 46.6702 16.2804H55.3531C57.601 16.2804 59.4232 18.1027 59.4232 20.3505C59.4232 22.5984 57.601 24.4206 55.3531 24.4206H46.6702C44.4224 24.4206 42.6001 22.5984 42.6001 20.3505Z" fill="white"/>
<path d="M41.2434 32.5608H60.7799C61.5293 32.5608 62.1366 31.9535 62.1366 31.2041C62.1366 30.4547 61.5293 29.8474 60.7799 29.8474H41.2434C40.4941 29.8474 39.8867 30.4547 39.8867 31.2041C39.8867 31.9535 40.4941 32.5608 41.2434 32.5608Z" fill="white"/>
<path d="M40.2842 37.5902C40.5365 37.8425 40.8868 37.9877 41.2434 37.9877C41.6001 37.9877 41.9504 37.8425 42.2027 37.5902C42.4549 37.338 42.6001 36.9877 42.6001 36.631C42.6001 36.2743 42.4549 35.924 42.2027 35.6718C41.9504 35.4195 41.6001 35.2743 41.2434 35.2743C40.8868 35.2743 40.5365 35.4195 40.2842 35.6718C40.0319 35.924 39.8867 36.2743 39.8867 36.631C39.8867 36.9877 40.0319 37.338 40.2842 37.5902Z" fill="white"/>
<path d="M45.7109 35.6718C45.4587 35.924 45.3135 36.2743 45.3135 36.631C45.3135 36.9877 45.4587 37.338 45.7109 37.5902C45.9632 37.8425 46.3135 37.9877 46.6702 37.9877C47.0268 37.9877 47.3771 37.8425 47.6294 37.5902C47.8817 37.338 48.0269 36.9877 48.0269 36.631C48.0269 36.2743 47.8817 35.924 47.6294 35.6718C47.3771 35.4195 47.0268 35.2743 46.6702 35.2743C46.3135 35.2743 45.9632 35.4195 45.7109 35.6718Z" fill="white"/>
<path d="M60.7798 35.2743H52.0969C51.3476 35.2743 50.7402 35.8816 50.7402 36.631C50.7402 37.3804 51.3476 37.9877 52.0969 37.9877H60.7798C61.5292 37.9877 62.1365 37.3804 62.1365 36.631C62.1365 35.8816 61.5292 35.2743 60.7798 35.2743Z" fill="white"/>
<path d="M30.0743 37.1848C30.0743 36.436 29.4665 35.8281 28.7176 35.8281H11.9846C11.2358 35.8281 10.6279 36.436 10.6279 37.1848C10.6279 37.9342 11.2358 38.5415 11.9846 38.5415H28.7176C29.4665 38.5415 30.0743 37.9342 30.0743 37.1848Z" fill="white"/>
<path d="M14.1546 41.2549C13.4057 41.2549 12.7979 41.8627 12.7979 42.6116C12.7979 43.361 13.4057 43.9683 14.1546 43.9683H26.5461C27.295 43.9683 27.9028 43.361 27.9028 42.6116C27.9028 41.8627 27.295 41.2549 26.5461 41.2549H14.1546Z" fill="white"/>
<path d="M20.3508 2.7134C20.7075 2.7134 21.0578 2.5682 21.3101 2.31593C21.5623 2.06367 21.7075 1.71337 21.7075 1.3567C21.7075 1.00004 21.5623 0.649733 21.3101 0.397471C21.0578 0.145209 20.7075 0 20.3508 0C19.9942 0 19.6439 0.145209 19.3916 0.397471C19.1394 0.649733 18.9941 1.00004 18.9941 1.3567C18.9941 1.71337 19.1394 2.06367 19.3916 2.31593C19.6439 2.5682 19.9942 2.7134 20.3508 2.7134Z" fill="white"/>
</svg>
