<svg width="60" height="62" viewBox="0 0 60 62" fill="none" xmlns="http://www.w3.org/2000/svg">
<mask id="mask0_340_1198" style="mask-type:luminance" maskUnits="userSpaceOnUse" x="0" y="0" width="60" height="62">
<path d="M59.25 0.363525H0.25V61.8272H59.25V0.363525Z" fill="white"/>
</mask>
<g mask="url(#mask0_340_1198)">
<path d="M44.9029 26.672C44.9009 26.3784 44.8979 26.0548 44.8509 25.7458L44.8869 25.744C44.8349 24.9057 44.7049 24.1662 44.4909 23.4847C43.6489 20.8158 41.5609 17.2996 38.2229 15.4345C33.8359 12.984 29.4799 14.0416 26.2989 14.8137C24.9159 15.149 23.6009 15.4726 22.6869 15.4055C22.6149 15.4019 22.5429 15.4019 22.4699 15.4055C21.5449 15.4717 20.2409 15.149 18.8579 14.8137C15.6779 14.0407 11.3209 12.9822 6.93392 15.4345C3.59592 17.2996 1.50692 20.8158 0.665917 23.4847C0.455917 24.1544 0.324917 24.8903 0.266917 25.734C0.265917 25.7612 0.266917 25.7839 0.266917 25.812C0.243917 26.2397 0.242917 26.6829 0.264917 27.1097V31.3492C0.264917 36.3344 1.35392 38.8538 3.64692 42.3084C4.07692 42.9537 5.00292 43.1648 5.71492 42.7761C6.42892 42.3864 6.65892 41.5472 6.22992 40.9038C4.18892 37.8261 3.27992 35.7164 3.27992 31.3501L3.27892 27.0526C3.25892 26.653 3.25892 26.2905 3.27792 25.9488C3.27892 25.9343 3.27892 25.8981 3.27992 25.8663C3.32492 25.2383 3.41792 24.7054 3.56492 24.2369C4.25192 22.0601 5.91292 19.2154 8.51692 17.7608C11.7949 15.9293 14.9909 16.7033 18.0799 17.4536C18.3009 17.5071 18.5189 17.5606 18.7379 17.6113L15.4309 19.1148C14.6869 19.4537 14.3849 20.2739 14.7589 20.9481C15.0239 21.4257 15.5549 21.7021 16.1079 21.7021C16.3349 21.7021 16.5659 21.6559 16.7829 21.5571L24.2399 18.1668C24.3399 18.1215 24.4309 18.0663 24.5149 18.0037C25.3419 17.8732 26.1959 17.6675 27.0789 17.4536C30.1699 16.7033 33.3629 15.9293 36.6419 17.7608C39.2459 19.2154 40.9059 22.0592 41.5919 24.236C41.7439 24.7199 41.8379 25.2619 41.8759 25.8944C41.8769 25.908 41.8779 25.9234 41.8799 25.937C41.8949 26.3684 41.8989 29.4469 41.8989 31.3347C41.8989 36.6562 40.5439 38.6118 37.5689 42.8993C37.2579 43.3443 36.9329 43.8155 36.5929 44.3122C35.9239 45.2873 35.5349 45.9914 35.3729 46.5261C35.2689 46.8533 35.1329 47.368 34.9639 48.006C32.1219 58.7587 30.2899 59.1357 29.9699 59.094C29.6739 59.0641 29.2809 58.5267 29.1099 58.1361C28.8439 56.8619 28.7639 55.3838 28.6839 53.9528C28.5679 51.8576 28.4469 49.6889 27.7429 47.9589C27.3799 47.0617 26.9369 46.1238 25.9069 45.3417C24.7939 44.5007 23.6609 44.0756 22.5969 44.0901C21.4799 44.1046 20.3649 44.4998 19.2519 45.3426C18.2219 46.1238 17.7799 47.0617 17.4139 47.9589C16.7109 49.6898 16.5909 51.8585 16.4739 53.9574C16.3949 55.3856 16.3129 56.861 16.0479 58.1343C15.8749 58.5312 15.4819 59.0632 15.1889 59.094C14.8549 59.1339 13.0349 58.7587 10.1939 48.006C10.0249 47.368 9.88992 46.8542 9.78592 46.5243C9.64692 46.0748 8.66692 44.2841 8.60492 44.1762C8.21992 43.5074 7.30792 43.2491 6.57092 43.6008C5.83292 43.9497 5.54992 44.7762 5.93492 45.4423C6.12392 45.7721 6.80292 47.0681 6.88592 47.2593C6.97992 47.5656 7.10592 48.045 7.26292 48.6413C8.95392 55.0431 11.0949 61.8273 15.1459 61.8273C15.2709 61.8273 15.3979 61.82 15.5269 61.8073C17.9009 61.5635 18.8369 59.2009 18.9349 58.9327C18.9539 58.8765 18.9719 58.823 18.9829 58.7641C19.3079 57.2743 19.3969 55.6566 19.4849 54.0933C19.5949 52.1123 19.6979 50.2408 20.2429 48.9023C20.5019 48.2652 20.7219 47.7885 21.1859 47.4369C21.7109 47.04 22.1959 46.8216 22.5879 46.8216H22.6059C22.9629 46.8216 23.4459 47.0391 23.9729 47.4369C24.4369 47.7904 24.6559 48.2652 24.9139 48.9014C25.4579 50.2399 25.5619 52.1095 25.6719 54.0915C25.7589 55.6575 25.8499 57.2743 26.1729 58.765C26.1859 58.8221 26.2029 58.8765 26.2219 58.9327C26.3219 59.2009 27.2559 61.5635 29.6299 61.8073C33.9329 62.245 36.1509 55.2424 37.8939 48.6422C38.0529 48.0468 38.1779 47.5665 38.2719 47.2602C38.3009 47.165 38.4519 46.7726 39.1509 45.7531C39.4889 45.2592 39.8129 44.7961 40.1179 44.3529C43.2119 39.8978 44.9119 37.4446 44.9119 31.3347L44.9099 28.5742C44.9099 27.8809 44.9069 27.1895 44.9029 26.672Z" fill="#3BC7F7"/>
</g>
<mask id="mask1_340_1198" style="mask-type:luminance" maskUnits="userSpaceOnUse" x="0" y="0" width="60" height="62">
<path d="M59.25 0.363525H0.25V61.8272H59.25V0.363525Z" fill="white"/>
</mask>
<g mask="url(#mask1_340_1198)">
<path d="M39.3609 26.1581L39.3529 26.0385C39.3489 25.9497 39.3409 25.8699 39.3339 25.7956C39.2619 25.0452 38.5339 24.4969 37.7019 24.5558C36.8699 24.6211 36.2599 25.2854 36.3319 26.0348L36.3499 26.2768C36.3559 26.4408 36.3539 26.6248 36.3439 26.8251L36.3369 30.3268C36.3369 31.0799 37.0129 31.6935 37.8439 31.6935C38.6769 31.6935 39.3529 31.0799 39.3529 30.3268L39.3509 27.0498L39.3559 26.9393C39.3689 26.6647 39.3699 26.4128 39.3609 26.1581Z" fill="#3BC7F7"/>
</g>
<mask id="mask2_340_1198" style="mask-type:luminance" maskUnits="userSpaceOnUse" x="0" y="0" width="60" height="62">
<path d="M59.25 0.363525H0.25V61.8272H59.25V0.363525Z" fill="white"/>
</mask>
<g mask="url(#mask2_340_1198)">
<path d="M33.7543 19.3721C32.9593 19.1537 32.1163 19.5643 31.8793 20.2865C31.6383 21.0088 32.0903 21.771 32.8893 21.9876C33.9333 22.273 34.8213 23.115 34.9413 23.2581C35.2393 23.6134 35.6893 23.801 36.1463 23.801C36.4633 23.801 36.7823 23.7104 37.0523 23.5255C37.7163 23.0705 37.8513 22.2169 37.3483 21.6142C36.9703 21.1602 35.5873 19.8697 33.7543 19.3721Z" fill="#3BC7F7"/>
</g>
<mask id="mask3_340_1198" style="mask-type:luminance" maskUnits="userSpaceOnUse" x="0" y="0" width="60" height="62">
<path d="M59.25 0.363525H0.25V61.8272H59.25V0.363525Z" fill="white"/>
</mask>
<g mask="url(#mask3_340_1198)">
<path d="M50.4808 19.8035C50.4808 20.5566 51.1568 21.171 51.9898 21.171C52.8198 21.171 53.4968 20.5566 53.4968 19.8035V17.4563H56.0868C56.9188 17.4563 57.5938 16.8446 57.5938 16.0906C57.5938 15.3366 56.9188 14.7249 56.0868 14.7249H53.4968V12.3777C53.4968 11.6237 52.8198 11.012 51.9898 11.012C51.1568 11.012 50.4808 11.6237 50.4808 12.3777V14.7249H47.8908C47.0588 14.7249 46.3838 15.3366 46.3838 16.0906C46.3838 16.8446 47.0588 17.4563 47.8908 17.4563H50.4808V19.8035Z" fill="#3BC7F7"/>
</g>
<mask id="mask4_340_1198" style="mask-type:luminance" maskUnits="userSpaceOnUse" x="0" y="0" width="60" height="62">
<path d="M59.25 0.363525H0.25V61.8272H59.25V0.363525Z" fill="white"/>
</mask>
<g mask="url(#mask4_340_1198)">
<path d="M29.674 6.18527H31.578V7.91078C31.578 8.66478 32.254 9.27649 33.085 9.27649C33.917 9.27649 34.592 8.66478 34.592 7.91078V6.18527H36.496C37.328 6.18527 38.003 5.57356 38.003 4.81956C38.003 4.06556 37.328 3.45384 36.496 3.45384H34.592V1.72924C34.592 0.975244 33.917 0.363525 33.085 0.363525C32.254 0.363525 31.578 0.975244 31.578 1.72924V3.45384H29.674C28.844 3.45384 28.168 4.06646 28.168 4.81956C28.167 5.57356 28.844 6.18527 29.674 6.18527Z" fill="#3BC7F7"/>
</g>
<mask id="mask5_340_1198" style="mask-type:luminance" maskUnits="userSpaceOnUse" x="0" y="0" width="60" height="62">
<path d="M59.25 0.363525H0.25V61.8272H59.25V0.363525Z" fill="white"/>
</mask>
<g mask="url(#mask5_340_1198)">
<path d="M57.744 34.7096H55.84V32.9822C55.84 32.2292 55.164 31.6174 54.333 31.6174C53.5 31.6174 52.825 32.2292 52.825 32.9822V34.7096H50.921C50.091 34.7096 49.415 35.3195 49.415 36.0744C49.415 36.8275 50.091 37.4401 50.921 37.4401H52.825V39.1656C52.825 39.9178 53.5 40.5313 54.333 40.5313C55.164 40.5313 55.84 39.9178 55.84 39.1656V37.4401H57.744C58.575 37.4401 59.251 36.8275 59.251 36.0744C59.251 35.3195 58.575 34.7096 57.744 34.7096Z" fill="#3BC7F7"/>
</g>
</svg>
