<svg width="43" height="60" viewBox="0 0 43 60" fill="none" xmlns="http://www.w3.org/2000/svg">
<path d="M32.1079 53.9415C32.12 53.9415 32.1328 53.9415 32.1442 53.9421C32.1843 53.6297 32.2104 53.421 32.2358 53.2212C32.7443 49.1386 32.9988 47.0941 34.6379 47.1209C36.2911 47.1476 36.5341 49.1221 37.019 53.0761C37.0495 53.3255 37.082 53.5851 37.1272 53.9421C37.1431 53.9415 37.159 53.9415 37.1749 53.9415V54.3156L37.1272 53.9421C36.6404 53.9676 36.2529 54.371 36.2529 54.8648C36.2529 55.3757 36.6658 55.7893 37.1749 55.7893H38.1669C38.2089 55.7893 38.2509 55.7868 38.2935 55.7811C38.7981 55.7149 39.1545 55.2504 39.0877 54.7445L39.0851 54.7451C39.0387 54.3914 38.9413 53.5972 38.849 52.8528C38.2331 47.8373 37.9251 45.3335 34.6666 45.28C31.373 45.2259 31.0504 47.8189 30.4058 52.9972C30.3218 53.6698 30.2346 54.3735 30.1965 54.6701C30.1825 54.7324 30.1755 54.798 30.1755 54.8648C30.1755 55.3757 30.5884 55.7893 31.0975 55.7893H32.1079C32.617 55.7893 33.03 55.3757 33.03 54.8648C33.03 54.3672 32.6367 53.9612 32.1442 53.9421L32.1079 54.2278V53.9415Z" fill="#00506C"/>
<path fill-rule="evenodd" clip-rule="evenodd" d="M36.3415 56.0966C35.8293 56.0966 35.4106 55.6773 35.4106 55.1644V54.5656C35.4106 54.0528 35.8293 53.6328 36.3415 53.6328C36.8538 53.6328 37.2725 54.0528 37.2725 54.5656V55.1644C37.2725 55.6773 36.8538 56.0966 36.3415 56.0966Z" fill="#00506C"/>
<path fill-rule="evenodd" clip-rule="evenodd" d="M32.9395 56.0966C32.4279 56.0966 32.0086 55.6773 32.0086 55.1644V54.5656C32.0086 54.0528 32.4279 53.6328 32.9395 53.6328C33.4518 53.6328 33.8711 54.0528 33.8711 54.5656V55.1644C33.8711 55.6773 33.4518 56.0966 32.9395 56.0966Z" fill="#00506C"/>
<mask id="mask0_204_890" style="mask-type:luminance" maskUnits="userSpaceOnUse" x="0" y="38" width="43" height="22">
<path d="M43 38.0204H-6.48499e-05V59.1313H43V38.0204Z" fill="white"/>
</mask>
<g mask="url(#mask0_204_890)">
<path d="M15.7086 38.1469C16.2119 38.0769 16.6764 38.4301 16.7458 38.9334C16.8158 39.438 16.4639 39.9038 15.9606 39.9731L8.19309 41.0733C6.38406 41.3285 4.74046 42.1748 3.57856 43.4703C2.50701 44.6653 1.84461 46.2542 1.84461 48.1262V57.2897H41.156V48.1262C41.156 46.2624 40.4974 44.6882 39.4322 43.5008C38.2671 42.2015 36.614 41.3514 34.7954 41.0733L27.2691 39.9203C26.7658 39.8446 26.4196 39.375 26.4947 38.8704C26.5698 38.3658 27.04 38.019 27.5433 38.0947L35.0696 39.2465C37.305 39.5882 39.3482 40.6463 40.8009 42.2664C42.1601 43.7814 43 45.7763 43 48.1262V58.2136C43 58.724 42.587 59.1382 42.0773 59.1382H0.922592C0.412907 59.1382 0.000576019 58.724 0.000576019 58.2136V48.1262C0.000576019 45.7706 0.843689 43.7585 2.20985 42.2358C3.66128 40.6183 5.70257 39.5633 7.94111 39.2465L15.7086 38.1469Z" fill="#00506C"/>
</g>
<mask id="mask1_204_890" style="mask-type:luminance" maskUnits="userSpaceOnUse" x="22" y="38" width="11" height="22">
<path d="M32.7539 38.7438H22.8548V59.1312H32.7539V38.7438Z" fill="white"/>
</mask>
<g mask="url(#mask1_204_890)">
<path d="M31.0563 39.1206C31.3967 38.7413 31.9789 38.7108 32.3562 39.0519C32.7348 39.3923 32.7654 39.9758 32.4256 40.355L24.7084 48.9236V58.2138C24.7084 58.7247 24.2954 59.1383 23.7864 59.1383C23.2767 59.1383 22.8637 58.7247 22.8637 58.2138V48.5704C22.8637 48.3496 22.9426 48.1276 23.1017 47.9513L23.103 47.9526L31.0563 39.1206Z" fill="#00506C"/>
</g>
<mask id="mask2_204_890" style="mask-type:luminance" maskUnits="userSpaceOnUse" x="10" y="38" width="11" height="22">
<path d="M20.2485 38.7438H10.3119V59.1312H20.2485V38.7438Z" fill="white"/>
</mask>
<g mask="url(#mask2_204_890)">
<path d="M10.5755 40.355C10.2351 39.9758 10.2662 39.3923 10.6436 39.0519C11.0222 38.7108 11.6044 38.7413 11.9442 39.1206L19.8981 47.9526L19.8994 47.9513C20.0578 48.1276 20.1367 48.3496 20.1361 48.5704H20.1367V58.2138C20.1367 58.7247 19.7238 59.1383 19.2147 59.1383C18.7057 59.1383 18.2927 58.7247 18.2927 58.2138V48.9236L10.5755 40.355Z" fill="#00506C"/>
</g>
<mask id="mask3_204_890" style="mask-type:luminance" maskUnits="userSpaceOnUse" x="5" y="0" width="34" height="37">
<path d="M38.4927 0H5.26192V36.1374H38.4927V0Z" fill="white"/>
</mask>
<g mask="url(#mask3_204_890)">
<path d="M27.0979 35.3427C26.6385 35.1282 26.44 34.5797 26.6544 34.1197C26.8695 33.659 27.4161 33.4605 27.8761 33.6755C29.3333 34.3577 30.6104 34.2749 31.6908 33.6386C32.8877 32.933 33.9001 31.5585 34.6936 29.7718C35.5227 27.9067 36.0992 25.609 36.3932 23.1484C37.1803 16.5568 35.9388 8.91537 32.0987 5.41565C29.4885 3.03775 25.7623 1.84785 22.0227 1.84785C18.2837 1.84785 14.5581 3.03775 11.948 5.41565C8.10146 8.92109 6.66657 16.5715 7.25198 23.177C7.47215 25.6574 7.97992 27.9786 8.75495 29.8647C9.48989 31.6552 10.4533 33.0265 11.6203 33.7169C12.5995 34.2966 13.7691 34.3844 15.1193 33.8047C15.5864 33.6055 16.1266 33.8232 16.3264 34.2921C16.525 34.7605 16.3067 35.3013 15.8396 35.5011C13.8957 36.3353 12.1681 36.1832 10.6836 35.3051C9.15455 34.3997 7.93793 32.7173 7.05472 30.5652C6.2097 28.51 5.65866 26.001 5.42258 23.3361C4.79391 16.2476 6.4165 7.96217 10.7091 4.0514C13.6724 1.35089 17.8542 0 22.0227 0C26.1924 0 30.3743 1.35089 33.3376 4.0514C37.6448 7.97617 39.0695 16.2762 38.2226 23.3654C37.9089 25.9959 37.2815 28.4775 36.3722 30.5226C35.4285 32.6466 34.1686 34.3138 32.6198 35.2269C31.0195 36.1699 29.1659 36.3111 27.0979 35.3427Z" fill="#00506C"/>
</g>
<path d="M18.7643 10.671C20.1241 11.9672 24.4669 15.7876 29.0745 16.436C30.4349 16.6275 31.1425 17.776 31.3175 19.3388C31.4594 20.6153 31.2678 22.1386 30.7976 23.6906C30.3204 25.2629 29.5568 26.8569 28.5616 28.2491C26.4669 31.1781 23.3438 33.1557 19.7856 31.8901C17.2728 30.9961 14.8389 27.9889 13.5694 24.4325C13.0788 23.0606 12.7683 21.6187 12.699 20.1979C12.6296 18.7922 12.7931 17.4 13.2507 16.1095C14.0505 13.8519 15.7755 11.8838 18.7643 10.671ZM29.3264 14.6091C24.6833 13.9556 20.2011 9.5199 19.6939 9.00448C19.4534 8.71624 19.0494 8.59343 18.6752 8.72769H18.6758C14.7708 10.1282 12.5373 12.6092 11.5148 15.4961C10.9752 17.0188 10.7805 18.6478 10.8613 20.2844C10.9415 21.9044 11.2876 23.527 11.8323 25.0529C13.2767 29.0967 16.1484 32.5538 19.1734 33.6298C23.6741 35.2314 27.5276 32.8668 30.0601 29.3245C31.166 27.7776 32.0193 25.9934 32.5557 24.2244C33.0985 22.4345 33.3168 20.6541 33.1475 19.1371C32.8777 16.7268 31.6776 14.9406 29.3264 14.6091Z" fill="#00506C"/>
<path d="M26.3724 44.774C26.8815 44.774 27.2944 45.1877 27.2944 45.6973C27.2944 46.2083 26.8815 46.6219 26.3724 46.6219H16.9696C16.4606 46.6219 16.0476 46.2083 16.0476 45.6973C16.0476 45.1877 16.4606 44.774 16.9696 44.774H26.3724Z" fill="#00506C"/>
<path d="M25.7392 31.645C25.6902 31.1385 26.0593 30.6874 26.5645 30.6378C27.0697 30.5881 27.519 30.9585 27.5692 31.4643L28.3207 38.9175C28.3704 39.4233 28.0013 39.8745 27.4961 39.9241C26.9908 39.9737 26.5403 39.604 26.4913 39.0975L25.7392 31.645Z" fill="#00506C"/>
<path d="M15.6513 30.7752C15.6952 30.2694 16.1407 29.8946 16.6459 29.9378C17.1505 29.9818 17.5253 30.4284 17.4814 30.9343L16.7496 39.1396C16.7063 39.6461 16.2609 40.0208 15.7557 39.9769C15.2505 39.933 14.8763 39.487 14.9202 38.9805L15.6513 30.7752Z" fill="#00506C"/>
<path d="M8.0833 57.0981C9.0155 57.0981 9.85862 56.7195 10.4688 56.108C11.0791 55.4965 11.457 54.6515 11.457 53.7187C11.457 52.7859 11.0791 51.9402 10.4688 51.3287C9.85862 50.7172 9.0155 50.3392 8.0833 50.3392C7.15238 50.3392 6.30927 50.7172 5.69904 51.3287C5.08882 51.9402 4.71149 52.7859 4.71149 53.7187C4.71149 54.6515 5.08882 55.4965 5.69904 56.108C6.30927 56.7195 7.15238 57.0981 8.0833 57.0981ZM9.1644 54.8017C8.88824 55.0785 8.50582 55.2503 8.0833 55.2503C7.66143 55.2503 7.27964 55.0785 7.00285 54.8017C6.72669 54.5243 6.55488 54.1418 6.55488 53.7187C6.55488 53.2955 6.72669 52.9125 7.00285 52.635C7.27964 52.3583 7.66143 52.1871 8.0833 52.1871C8.50645 52.1871 8.88824 52.3583 9.1644 52.635C9.44119 52.9125 9.61173 53.2955 9.61173 53.7187C9.61173 54.1418 9.44119 54.5243 9.1644 54.8017Z" fill="#00506C"/>
<path fill-rule="evenodd" clip-rule="evenodd" d="M8.0837 54.6427C7.57592 54.6427 7.16232 54.2278 7.16232 53.7188C7.16232 53.2091 7.57592 52.7942 8.0837 52.7942C8.59211 52.7942 9.00635 53.2091 9.00635 53.7188C9.00635 54.2278 8.59211 54.6427 8.0837 54.6427Z" fill="#00506C"/>
<path d="M9.00237 51.2625C9.00237 51.7709 8.59132 52.1833 8.08354 52.1833C7.5764 52.1833 7.16598 51.7709 7.16598 51.2625L7.15707 47.619C7.15071 44.949 7.8901 42.4458 9.17672 40.3084C10.5111 38.0921 12.4321 36.2647 14.7196 35.0468C15.1689 34.8069 15.7269 34.9787 15.9662 35.4285C16.2042 35.8791 16.0336 36.439 15.5838 36.6776C13.5902 37.7396 11.916 39.3317 10.7548 41.2616C9.6336 43.1247 8.98901 45.3009 8.9941 47.619L9.00237 51.2625ZM27.4694 36.8698C27.0278 36.6172 26.8745 36.0528 27.1271 35.6105C27.3797 35.1683 27.9428 35.0143 28.3844 35.2676C30.3443 36.3951 32.014 37.9776 33.2471 39.8675C34.4485 41.7083 35.2369 43.845 35.4761 46.1428C35.5277 46.6486 35.1599 47.101 34.6547 47.1532C34.1494 47.2054 33.6983 46.837 33.6461 46.3305C33.4393 44.3395 32.7527 42.4821 31.7054 40.8779C30.6306 39.2305 29.176 37.8523 27.4694 36.8698Z" fill="#00506C"/>
</svg>
