<svg width="52" height="52" viewBox="0 0 52 52" fill="none" xmlns="http://www.w3.org/2000/svg">
<mask id="mask0_204_865" style="mask-type:luminance" maskUnits="userSpaceOnUse" x="0" y="34" width="52" height="18">
<path d="M0 34.9261H52V52H0V34.9261Z" fill="white"/>
</mask>
<g mask="url(#mask0_204_865)">
<path d="M51.6751 41.2715C51.3913 40.825 50.9046 40.4601 50.4179 40.2573C49.6875 39.9734 48.8767 39.9326 48.1056 39.9326C44.293 39.9326 38.168 41.5956 35.9781 42.2449C35.4909 41.1089 34.1526 40.0544 30.9077 40.0544C28.9608 40.0544 27.1353 40.4601 27.0542 40.4601C26.4457 40.582 25.9188 40.5412 25.1884 40.3383C23.7283 39.9326 22.5113 39.0402 21.2132 38.1479C19.8749 37.2152 18.5366 36.282 16.8736 35.7551C14.1557 34.9437 11.6003 34.7409 9.32883 35.1874C8.2336 35.3897 7.17916 35.7953 6.12472 36.1608C5.19154 36.5257 4.29915 36.8503 3.36653 37.0532C3.16369 37.0934 2.96085 37.1744 2.71721 37.2152C2.2305 37.3371 1.70357 37.4991 1.33811 37.4991C1.21686 37.4991 1.17607 37.4991 1.13527 37.4583L0.0400391 37.1342C0.0400391 37.1342 0.0400391 45.287 0.0400391 48.0044C0.0400391 48.6537 0.608336 49.0996 1.29788 49.0996C1.62198 49.0996 1.98743 48.9784 2.31153 48.8968C2.47414 48.8565 2.67698 48.7755 2.758 48.7755L2.92005 48.7347C4.29915 48.5319 5.67825 48.329 7.01711 48.329C8.92315 48.329 18.4148 50.7626 21.9027 51.6958H21.9435C22.7141 51.8578 23.4445 51.9388 24.1742 51.9388C25.7159 51.9388 26.5675 51.5739 26.6486 51.5337C27.8248 51.0062 30.0153 50.3977 30.0153 50.3977C33.7877 49.3432 48.5113 44.7192 48.6331 44.6784C50.6609 44.1107 51.7159 43.3804 51.9188 42.488C51.9998 42.0421 51.878 41.6364 51.6751 41.2715ZM48.1464 43.0965C47.9843 43.1373 33.301 47.7613 29.5286 48.8157C29.4476 48.8565 27.2163 49.4651 25.9188 50.073C25.9188 50.073 25.3103 50.3569 24.134 50.3569C23.5663 50.3569 22.917 50.2759 22.2682 50.1546C20.8483 49.7892 9.45065 46.7471 7.01711 46.7471C5.55643 46.7471 4.09631 46.9499 2.67698 47.1936L2.51437 47.2338C2.2713 47.2746 2.06846 47.3556 1.82482 47.3964H1.78459C1.78459 43.9487 1.78459 40.7038 1.7438 39.1621C2.2305 39.1218 2.71721 38.9592 3.16369 38.8374C3.36653 38.7972 3.56937 38.7161 3.73142 38.6754C4.78585 38.4323 5.75927 38.0668 6.73268 37.7427C7.74689 37.3773 8.68008 37.0124 9.65349 36.8503C11.6411 36.4447 13.9528 36.6475 16.3864 37.3773C17.8063 37.783 18.9825 38.6351 20.2398 39.5269C21.5787 40.4601 22.998 41.4335 24.7017 41.961C25.6751 42.2449 26.4865 42.2851 27.3381 42.0829C27.4191 42.0829 29.0827 41.7174 30.8266 41.7174C32.4086 41.7174 34.3554 42.0013 34.5175 43.3804L34.5583 43.8671C34.4364 43.9079 34.2744 43.9889 34.1526 44.0297C33.382 44.3136 32.6114 44.4756 31.8001 44.6784C30.9887 44.8411 30.1773 45.0433 29.3665 45.2462C28.5954 45.4898 27.8248 45.6519 27.095 45.5306C26.3647 45.4088 25.5131 45.1652 24.7017 45.0433C23.8904 44.9221 23.0388 44.8003 22.2274 44.7595C21.416 44.7192 20.5644 44.7192 19.7129 44.7595C18.9015 44.8411 18.0901 44.8813 17.2385 44.8003C18.0091 45.0841 18.8607 45.1249 19.7129 45.1652C20.5237 45.2059 21.335 45.287 22.1464 45.368C22.9578 45.4898 23.7686 45.6116 24.5397 45.8145C24.9454 45.8955 25.3505 45.9765 25.7159 46.0983C26.1216 46.1794 26.5267 46.3012 26.9732 46.3822C27.8656 46.504 28.7982 46.3012 29.5694 46.0173C30.3399 45.7737 31.1105 45.5708 31.9219 45.3278C32.7327 45.0841 33.5038 44.8003 34.2744 44.4354C34.3554 44.3946 34.4772 44.4756 34.5583 44.3946L35.4909 44.1107C35.5725 44.0699 43.5632 41.6364 47.9435 41.6364C49.4847 41.6364 49.9714 41.961 50.053 42.1231L50.0932 42.2449C50.0932 42.407 49.5663 42.6908 48.1464 43.0965Z" fill="#00506C"/>
</g>
<path d="M25.9996 17.0966C21.0509 17.0966 17.0757 21.0718 17.0757 26.0205C17.0757 30.9685 21.0509 34.9438 25.9996 34.9438C30.9482 34.9438 34.9229 30.9685 34.9229 26.0205C34.9229 21.0718 30.9482 17.0966 25.9996 17.0966ZM25.9996 33.3211C21.9841 33.3211 18.6984 30.0359 18.6984 26.0205C18.6984 22.0044 21.9841 18.7193 25.9996 18.7193C30.0151 18.7193 33.3008 22.0044 33.3008 26.0205C33.3008 30.0359 30.0151 33.3211 25.9996 33.3211Z" fill="#00506C"/>
<path d="M26.8111 25.3309C25.8779 24.9655 25.513 24.7224 25.5533 24.3575C25.5941 24.0328 25.8371 23.749 26.5267 23.7892C27.3381 23.8702 27.8248 24.1139 28.0684 24.2759L28.4741 23.0996C28.1086 22.8968 27.6219 22.7348 26.9324 22.6537L26.9732 21.7205L25.9187 21.6395L25.8779 22.6537C24.7017 22.7756 23.9713 23.4651 23.9311 24.4385C23.8903 25.4522 24.6207 26.0607 25.7561 26.5072C26.5675 26.8313 26.8921 27.1151 26.8513 27.5208C26.8111 27.9265 26.3646 28.1701 25.7561 28.1293C25.0666 28.0891 24.4586 27.8455 24.0121 27.5616L23.6064 28.7786C23.9713 29.0217 24.6609 29.2654 25.3912 29.3464L25.3102 30.3606L26.3646 30.4008L26.4457 29.3056C27.7035 29.1838 28.4333 28.4132 28.4741 27.4398C28.5143 26.4664 28.0684 25.8578 26.8111 25.3309Z" fill="#00506C"/>
<mask id="mask1_204_865" style="mask-type:luminance" maskUnits="userSpaceOnUse" x="0" y="0" width="52" height="18">
<path d="M0 0H52V17.0852H0V0Z" fill="white"/>
</mask>
<g mask="url(#mask1_204_865)">
<path d="M0.324644 10.7286C0.608509 11.1745 1.09522 11.5399 1.58192 11.7428C2.3117 12.0266 3.12307 12.0669 3.89364 12.0669C7.70684 12.0669 13.8312 10.4039 16.0216 9.75514C16.5084 10.8906 17.8472 11.9456 21.0921 11.9456C23.0389 11.9456 24.864 11.5399 24.9455 11.5399C25.5535 11.4181 26.081 11.4583 26.8113 11.6612C28.2715 12.0669 29.488 12.9592 30.786 13.8516C32.1249 14.7848 33.4632 15.7174 35.1262 16.2449C37.8441 17.0563 40.3995 17.2592 42.671 16.8127C43.7656 16.6098 44.8206 16.2041 45.8751 15.8393C46.8083 15.4744 47.7006 15.1497 48.6333 14.9469C48.8361 14.9061 49.0389 14.8251 49.282 14.7848C49.7687 14.663 50.2962 14.501 50.6611 14.501C50.7829 14.501 50.8237 14.501 50.864 14.5412L51.919 14.8658C51.919 14.8658 51.919 6.71308 51.919 3.99512C51.919 3.34636 51.3507 2.89989 50.6611 2.89989C50.337 2.89989 49.9716 3.0217 49.6475 3.10273C49.4849 3.14352 49.282 3.22455 49.201 3.22455L49.0389 3.26534C47.6599 3.46818 46.2808 3.67102 44.9425 3.67102C43.0359 3.67102 33.5442 1.23692 30.0562 0.304306C29.2851 0.141692 28.5553 0.0606689 27.825 0.0606689C26.2838 0.0606689 25.4323 0.426124 25.3507 0.466352C24.1744 0.993854 21.9845 1.60238 21.9845 1.60238C18.2121 2.65682 3.48795 7.28081 3.3667 7.32104C1.33829 7.88934 0.283849 8.61912 0.0810071 9.51151C-1.61864e-05 9.95798 0.121802 10.3637 0.324644 10.7286ZM3.85341 8.90298C4.01546 8.86275 18.6988 4.23875 22.4712 3.18375C22.5522 3.14352 24.7829 2.535 26.081 1.92647C26.081 1.92647 26.6895 1.64261 27.8658 1.64261C28.4335 1.64261 29.0828 1.72363 29.7316 1.84545C31.1515 2.21034 42.5491 5.2524 44.9827 5.2524C46.4428 5.2524 47.9029 5.05012 49.3228 4.80648L49.4849 4.76569C49.7285 4.72546 49.9313 4.64444 50.1744 4.60364H50.2152C50.2152 8.05139 50.2152 11.2963 50.256 12.8374C49.7687 12.8782 49.282 13.0403 48.8361 13.1621C48.6333 13.2029 48.4304 13.2839 48.2684 13.3247C47.2134 13.5678 46.24 13.9327 45.2665 14.2573C44.2529 14.6222 43.3197 14.9877 42.3463 15.1497C40.3587 15.5554 38.047 15.3526 35.6129 14.6222C34.1935 14.2165 33.0173 13.3649 31.7594 12.4725C30.4211 11.5399 29.0012 10.5665 27.2981 10.039C26.3246 9.75514 25.5133 9.71435 24.6611 9.91719C24.5801 9.91719 22.9171 10.2821 21.1731 10.2821C19.5912 10.2821 17.6444 9.99821 17.4818 8.61912L17.4415 8.13241C17.5634 8.09218 17.7254 8.01059 17.8472 7.97036C18.6178 7.6865 19.3884 7.52388 20.1997 7.32104C21.0111 7.159 21.8219 6.95615 22.6333 6.75331C23.4038 6.51024 24.1744 6.34763 24.9048 6.46945C25.6351 6.59127 26.4867 6.83434 27.2981 6.95615C28.1089 7.07797 28.961 7.19979 29.7724 7.24002C30.5832 7.28081 31.4353 7.28081 32.2869 7.24002C33.0983 7.159 33.9097 7.11877 34.7613 7.19979C33.9907 6.91593 33.1385 6.87513 32.2869 6.83434C31.4756 6.79411 30.6642 6.71308 29.8534 6.63149C29.042 6.51024 28.2307 6.38842 27.4601 6.18558C27.0544 6.10456 26.6487 6.02353 26.2838 5.90172C25.8782 5.82069 25.4725 5.69887 25.0266 5.61785C24.1342 5.49603 23.201 5.69887 22.4304 5.98274C21.6598 6.22638 20.8893 6.42922 20.0779 6.67229C19.2665 6.91593 18.496 7.19979 17.7254 7.56468C17.6444 7.60547 17.5226 7.52388 17.4415 7.60547L16.5084 7.88934C16.4273 7.92957 8.43661 10.3637 4.05625 10.3637C2.51454 10.3637 2.02783 10.039 1.94681 9.87696L1.90602 9.75514C1.90602 9.59253 2.43352 9.30866 3.85341 8.90298Z" fill="#00506C"/>
</g>
</svg>
