<svg width="52" height="52" viewBox="0 0 52 52" fill="none" xmlns="http://www.w3.org/2000/svg">
<path d="M27.0711 29.4596C25.1286 29.4506 23.1987 29.1463 21.3476 28.557C18.39 27.5676 16.1933 25.0637 15.597 22.0026C14.9445 18.8598 16.1336 15.5368 18.8586 12.8859C19.151 12.6011 19.4549 12.3283 19.7701 12.0675C22.5603 9.73163 26.3219 8.91986 29.8271 9.89721C33.2205 10.9803 35.5653 14.0815 35.6826 17.6416C35.8096 19.6909 35.1417 21.7103 33.8177 23.2797C32.7966 24.566 31.1421 25.1735 29.5312 24.8538C28.8724 24.7171 28.2976 24.3181 27.9392 23.7487C27.6176 23.1956 27.5351 22.5354 27.7108 21.9201C28.4686 19.0555 29.2391 14.7021 29.2467 14.658C29.3005 14.353 29.513 14.0999 29.804 13.9941C30.095 13.8882 30.4204 13.9456 30.6576 14.1447C30.8948 14.3438 31.0078 14.6543 30.9539 14.9593C30.9218 15.1404 30.1631 19.4286 29.3866 22.3632C29.3312 22.5258 29.3451 22.704 29.4251 22.8561C29.5449 23.0219 29.7257 23.1333 29.9277 23.1658C30.9138 23.3304 31.9099 22.9348 32.5144 22.1384C33.5426 20.9084 34.0577 19.3298 33.953 17.7301C33.8683 14.8963 32.01 12.4222 29.312 11.5512C26.367 10.7412 23.212 11.4332 20.8764 13.4014C20.5979 13.6325 20.3271 13.8745 20.0673 14.1275C18.7201 15.438 16.5687 18.1573 17.2936 21.6497C17.7807 24.0896 19.5233 26.0892 21.8737 26.9052C25.9381 28.2017 31.7783 28.3578 34.8555 24.5317C35.1578 24.1677 35.6963 24.1134 36.0652 24.4099C36.434 24.7064 36.4968 25.244 36.2062 25.6175C33.9307 28.4472 30.4681 29.4596 27.0711 29.4596Z" fill="white"/>
<path d="M24.1046 24.9664C23.1886 24.9822 22.2951 24.6818 21.5746 24.1159C19.9113 22.7847 19.8655 20.4721 20.3318 18.8972C20.4889 18.3728 20.6997 17.8659 20.9611 17.3848C21.6113 16.0729 22.651 14.9939 23.938 14.2955C25.5406 13.4639 27.4987 13.7792 28.7592 15.072C29.3846 15.7573 29.8556 16.5688 30.1406 17.4517C30.2915 17.8998 30.0555 18.3861 29.6101 18.5447C29.1647 18.7034 28.6744 18.4757 28.5081 18.0331C28.3026 17.3808 27.9611 16.7796 27.5061 16.269C26.7712 15.5174 25.6261 15.3464 24.7037 15.8505C23.7386 16.3948 22.9629 17.2212 22.4808 18.2189C22.2783 18.5927 22.1146 18.9863 21.9925 19.3935C21.6557 20.5327 21.7298 22.0194 22.659 22.7635C23.6749 23.5793 25.3888 23.2344 26.3531 22.4026C27.0717 21.7556 27.6892 21.0045 28.1848 20.1743C28.3454 19.9053 28.6385 19.7439 28.9516 19.7521C29.2647 19.7602 29.549 19.9367 29.6953 20.2137C29.8416 20.4907 29.827 20.825 29.6572 21.0882C29.0701 22.0665 28.3392 22.9508 27.489 23.7117C26.5413 24.5112 25.3444 24.955 24.1046 24.9664Z" fill="white"/>
<path d="M49.3965 52H2.59982C1.16463 51.9984 0.0015761 50.8354 0 49.4002V17.3358C1.3623e-05 16.9997 0.194308 16.694 0.498544 16.5513C0.80278 16.4085 1.1621 16.4546 1.42054 16.6694L22.6845 34.3416C24.6085 35.9306 27.3897 35.9301 29.3131 34.3404L50.5751 16.6694C50.8335 16.4541 51.1931 16.4078 51.4976 16.5506C51.8021 16.6934 51.9965 16.9995 51.9963 17.3358V49.4002C51.9948 50.8354 50.8317 51.9984 49.3965 52ZM9.92905 25.9943C6.67121 23.2867 1.73321 25.6035 1.73321 29.8396V49.4002C1.73383 49.8786 2.12146 50.2662 2.59982 50.2668H49.3965C49.875 50.2664 50.2627 49.8786 50.2631 49.4002V29.8395C50.2631 25.6035 45.3252 23.2866 42.0673 25.9942L30.4197 35.6743C27.854 37.7946 24.1443 37.7952 21.578 35.6756L9.92905 25.9943Z" fill="white"/>
<path d="M0.867454 18.2023C0.489986 18.2027 0.155715 17.9587 0.0410292 17.599C-0.0736565 17.2394 0.0576265 16.8469 0.365602 16.6287L8.16505 11.0997C8.55554 10.8291 9.09113 10.9233 9.3658 11.311C9.64048 11.6986 9.55181 12.2352 9.16702 12.5139L1.36757 18.0428C1.22153 18.1467 1.0467 18.2025 0.867454 18.2023Z" fill="white"/>
<path d="M51.1286 18.2023C50.9494 18.2025 50.7745 18.1467 50.6285 18.0428L42.8291 12.5139C42.4443 12.2352 42.3556 11.6986 42.6303 11.311C42.9049 10.9233 43.4405 10.8291 43.831 11.0997L51.6305 16.6287C51.9384 16.8469 52.0697 17.2394 51.955 17.599C51.8404 17.9587 51.5061 18.2027 51.1286 18.2023Z" fill="white"/>
<path d="M34.0048 6.0699C33.8254 6.07 33.6504 6.01424 33.5041 5.91036L29.3617 2.97257C27.4388 1.34767 24.629 1.33074 22.6866 2.93236L18.4923 5.91045C18.2397 6.08959 17.9107 6.12035 17.6292 5.99116C17.3478 5.86196 17.1566 5.59243 17.1278 5.28409C17.099 4.97576 17.2368 4.67546 17.4894 4.49632L21.6318 1.55853C24.1914 -0.534354 27.8758 -0.517707 30.4164 1.59822L34.5068 4.49598C34.815 4.71417 34.9465 5.10685 34.8317 5.46664C34.717 5.82644 34.3824 6.07048 34.0048 6.0699Z" fill="white"/>
<path d="M1.42991 51.5321C1.06469 51.5324 0.738474 51.3037 0.614232 50.9603C0.489989 50.6168 0.594391 50.2324 0.875279 49.999L20.6512 33.5681C20.8889 33.3661 21.2167 33.3073 21.5098 33.4142C21.8028 33.5212 22.0157 33.7774 22.0673 34.085C22.1189 34.3927 22.0011 34.7043 21.759 34.901L1.98306 51.3318C1.82779 51.4612 1.63205 51.5321 1.42991 51.5321Z" fill="white"/>
<path d="M50.5648 51.532C50.3628 51.5321 50.1672 51.4613 50.0122 51.3318L30.2362 34.901C29.9941 34.7043 29.8764 34.3927 29.928 34.085C29.9795 33.7774 30.1925 33.5212 30.4855 33.4142C30.7785 33.3073 31.1064 33.3661 31.344 33.5681L51.1194 49.999C51.4003 50.2324 51.5047 50.6168 51.3805 50.9603C51.2562 51.3037 50.93 51.5323 50.5648 51.532Z" fill="white"/>
<path d="M43.3297 24.6847C42.851 24.6847 42.4631 24.2967 42.4631 23.818V6.07672C42.4605 6.09492 42.4258 6.0704 42.3677 6.06996H9.62737C9.55509 6.06553 9.52339 6.14837 9.52343 6.22078L9.53204 23.818C9.53204 24.2967 9.14405 24.6847 8.66543 24.6847C8.18682 24.6847 7.79883 24.2967 7.79883 23.818V6.06996C7.82679 5.08714 8.64446 4.3121 9.62737 4.33675H42.3677C43.3506 4.3122 44.1682 5.08719 44.1963 6.06996V23.818C44.1963 24.2967 43.8083 24.6847 43.3297 24.6847Z" fill="white"/>
</svg>
