<svg width="20" height="21" viewBox="0 0 20 21" fill="none" xmlns="http://www.w3.org/2000/svg">
<path d="M18.533 17.614C18.533 17.614 17.3743 18.7525 17.0904 19.0862C16.6278 19.58 16.0828 19.8132 15.3684 19.8132C15.2997 19.8132 15.2264 19.8132 15.1577 19.8086C13.7975 19.7218 12.5336 19.1914 11.5856 18.7388C8.99345 17.486 6.71734 15.7074 4.82592 13.4534C3.26424 11.5743 2.22007 9.83686 1.52854 7.97144C1.10263 6.83299 0.946916 5.946 1.01561 5.1093C1.06141 4.57436 1.26749 4.13087 1.64761 3.75138L3.20929 2.1923C3.43369 1.98198 3.67184 1.86768 3.9054 1.86768C4.19392 1.86768 4.42749 2.04142 4.57404 2.18772C4.57862 2.1923 4.5832 2.19687 4.58778 2.20144C4.86714 2.46205 5.13276 2.7318 5.41212 3.01985C5.55409 3.16616 5.70064 3.31246 5.84719 3.46334L7.09745 4.71153C7.5829 5.19617 7.5829 5.64424 7.09745 6.12888C6.96464 6.26147 6.83641 6.39406 6.7036 6.52208C6.3189 6.91528 6.6211 6.61358 6.22267 6.97021C6.21351 6.97935 6.20435 6.98392 6.19977 6.99307C5.80591 7.38627 5.87919 7.77033 5.96162 8.03094C5.9662 8.04465 5.97078 8.05837 5.97536 8.07209C6.30052 8.85849 6.75849 9.59917 7.45461 10.4816L7.45919 10.4862C8.72318 12.0407 10.0559 13.2523 11.526 14.1804C11.7137 14.2993 11.9061 14.3953 12.0893 14.4868C12.2541 14.5691 12.4098 14.6468 12.5427 14.7291C12.561 14.7382 12.5793 14.7519 12.5976 14.7611C12.7533 14.8388 12.8999 14.8754 13.051 14.8754C13.4311 14.8754 13.6693 14.6376 13.7471 14.5599L14.6448 13.6637C14.8005 13.5083 15.0478 13.3208 15.3363 13.3208C15.6203 13.3208 15.8538 13.4991 15.9958 13.6546C16.0004 13.6591 16.0004 13.6591 16.005 13.6637L18.5284 16.1829C19.0001 16.6493 18.533 17.614 18.533 17.614Z" stroke="#F5F5F5" stroke-width="2" stroke-linecap="round" stroke-linejoin="round"/>
</svg>
