<svg width="35" height="34" viewBox="0 0 35 34" fill="none" xmlns="http://www.w3.org/2000/svg">
<path d="M23.0174 18.3491L22.4718 17.511L22.4579 17.5201L22.4443 17.5296L23.0174 18.3491ZM23.0174 16.0554L22.4245 16.8607L22.4691 16.8935L22.517 16.9212L23.0174 16.0554ZM13.8251 9.28661L14.418 8.48136L14.3898 8.46059L14.3602 8.44184L13.8251 9.28661ZM11.8979 10.2976L12.8979 10.2947L12.8979 10.286L12.8977 10.2772L11.8979 10.2976ZM11.9365 23.5938L10.9365 23.5967L10.9366 23.625L10.9383 23.6532L11.9365 23.5938ZM13.9343 24.7018L14.4185 25.5768L14.4644 25.5514L14.5074 25.5213L13.9343 24.7018ZM17.0186 32C8.73428 32 2.01855 25.2843 2.01855 17H0.0185547C0.0185547 26.3888 7.62971 34 17.0186 34V32ZM32.0186 17C32.0186 25.2843 25.3028 32 17.0186 32V34C26.4074 34 34.0186 26.3888 34.0186 17H32.0186ZM17.0186 2C25.3028 2 32.0186 8.71573 32.0186 17H34.0186C34.0186 7.61116 26.4074 0 17.0186 0V2ZM17.0186 0C7.62971 0 0.0185547 7.61116 0.0185547 17H2.01855C2.01855 8.71573 8.73428 2 17.0186 2V0ZM23.563 19.1871C24.2325 18.7513 24.8987 18.0852 24.8975 17.1677C24.8962 16.2278 24.2014 15.5847 23.5178 15.1896L22.517 16.9212C22.7388 17.0494 22.8461 17.1529 22.8902 17.2091C22.9273 17.2564 22.8976 17.2392 22.8975 17.1705C22.8974 17.1054 22.9242 17.1006 22.8744 17.168C22.8199 17.2415 22.7011 17.3617 22.4718 17.511L23.563 19.1871ZM23.6104 15.2502L14.418 8.48136L13.2321 10.0919L22.4245 16.8607L23.6104 15.2502ZM14.3602 8.44184C13.699 8.02301 12.8428 7.82741 12.0715 8.18758C11.2449 8.57353 10.8798 9.41922 10.8982 10.318L12.8977 10.2772C12.894 10.0928 12.9292 10.0084 12.9405 9.98685C12.9478 9.97278 12.9411 9.98881 12.9176 9.99977C12.878 10.0183 12.9983 9.94662 13.2899 10.1314L14.3602 8.44184ZM10.8979 10.3005L10.9365 23.5967L12.9365 23.5909L12.8979 10.2947L10.8979 10.3005ZM10.9383 23.6532C10.9863 24.4609 11.2577 25.3471 12.0668 25.7793C12.8656 26.2058 13.7444 25.9498 14.4185 25.5768L13.45 23.8269C13.2368 23.9449 13.0929 23.986 13.0147 23.9968C12.9446 24.0065 12.9597 23.9888 13.009 24.0151C13.06 24.0423 13.056 24.0676 13.0278 24.0076C12.9953 23.9384 12.9501 23.7923 12.9347 23.5344L10.9383 23.6532ZM14.5074 25.5213L23.5905 19.1685L22.4443 17.5296L13.3611 23.8824L14.5074 25.5213Z" fill="#00506C"/>
</svg>
