<svg width="25" height="20" viewBox="0 0 25 20" fill="none" xmlns="http://www.w3.org/2000/svg">
<path d="M7.86475 19.75C17.2964 19.75 22.4565 12.2467 22.4565 5.74186C22.4565 5.53092 22.4517 5.3153 22.4419 5.10436C23.4457 4.40746 24.312 3.54425 25 2.5553C24.0651 2.9546 23.0725 3.21538 22.0562 3.32874C23.1263 2.71291 23.9276 1.74547 24.3115 0.605767C23.3047 1.17856 22.2037 1.58261 21.0557 1.80061C20.2821 1.01156 19.2594 0.489116 18.1455 0.314051C17.0316 0.138986 15.8887 0.32105 14.8935 0.832096C13.8982 1.34314 13.106 2.15471 12.6394 3.14131C12.1728 4.12792 12.0577 5.23462 12.312 6.2903C10.2734 6.19209 8.2791 5.6837 6.45831 4.7981C4.63753 3.91249 3.03093 2.66944 1.74268 1.14952C1.08792 2.23324 0.887559 3.51565 1.18232 4.73609C1.47709 5.95654 2.24486 7.02345 3.32959 7.71999C2.51524 7.69517 1.71872 7.48468 1.00586 7.10592V7.16686C1.00513 8.30415 1.41469 9.40659 2.16491 10.2868C2.91513 11.167 3.95971 11.7706 5.12109 11.995C4.36672 12.1931 3.57498 12.222 2.80713 12.0794C3.13485 13.0574 3.77247 13.9129 4.63101 14.5263C5.48955 15.1398 6.52617 15.4806 7.59619 15.5012C5.77961 16.8711 3.5356 17.6141 1.22559 17.6106C0.815924 17.61 0.406666 17.5859 0 17.5384C2.34673 18.9837 5.07659 19.7514 7.86475 19.75Z" fill="#F5F5F5"/>
</svg>
