<svg width="51" height="52" viewBox="0 0 51 52" fill="none" xmlns="http://www.w3.org/2000/svg">
<path d="M44.7314 0H6.26836C2.81195 0 0 2.83322 0 6.31577V45.6841C0 49.1667 2.81195 52 6.26836 52H44.7315C48.1879 52 51 49.1667 51 45.6841V6.31577C50.9999 2.83322 48.1878 0 44.7314 0ZM49.2279 45.6841C49.2279 48.1822 47.2108 50.2146 44.7314 50.2146H6.26836C3.7891 50.2146 1.77201 48.1822 1.77201 45.6841V6.31577C1.77201 3.81776 3.7891 1.78541 6.26836 1.78541H44.7315C47.2109 1.78541 49.228 3.81776 49.228 6.31577L49.2279 45.6841ZM15.7176 10.3753H9.65012C7.94025 10.3753 6.54911 11.777 6.54911 13.4997V19.613C6.54911 21.3358 7.94025 22.7375 9.65012 22.7375H15.7176C17.4275 22.7375 18.8186 21.3358 18.8186 19.613V13.4997C18.8186 11.777 17.4275 10.3753 15.7176 10.3753ZM17.0466 19.6132C17.0466 20.3515 16.4504 20.9522 15.7176 20.9522H9.65012C8.91729 20.9522 8.32112 20.3515 8.32112 19.6132V13.4998C8.32112 12.7615 8.91729 12.1609 9.65012 12.1609H15.7176C16.4504 12.1609 17.0466 12.7615 17.0466 13.4998V19.6132ZM15.6721 14.3387C16.0182 14.6873 16.0182 15.2525 15.6722 15.6011L12.5231 18.7741C12.3569 18.9416 12.1316 19.0357 11.8966 19.0357C11.6616 19.0357 11.4363 18.9416 11.2701 18.7741L9.69553 17.1876C9.34955 16.839 9.34955 16.2738 9.69564 15.9252C10.0416 15.5767 10.6026 15.5768 10.9486 15.9253C11.471 16.4517 12.3222 16.4517 12.8446 15.9253L14.419 14.3389C14.7651 13.9901 15.3262 13.9902 15.6721 14.3387ZM22.5089 11.268C22.5089 10.775 22.9056 10.3753 23.3949 10.3753H32.7157C33.205 10.3753 33.6017 10.775 33.6017 11.268C33.6017 11.761 33.205 12.1607 32.7157 12.1607H23.3949C22.9056 12.1607 22.5089 11.761 22.5089 11.268ZM44.4507 16.5564C44.4507 17.0494 44.054 17.4491 43.5647 17.4491H23.3949C22.9056 17.4491 22.5089 17.0494 22.5089 16.5564C22.5089 16.0634 22.9056 15.6637 23.3949 15.6637H43.5647C44.054 15.6637 44.4507 16.0634 44.4507 16.5564ZM44.4507 21.8449C44.4507 22.3379 44.054 22.7376 43.5647 22.7376H23.3949C22.9056 22.7376 22.5089 22.3379 22.5089 21.8449C22.5089 21.3519 22.9056 20.9522 23.3949 20.9522H43.5647C44.054 20.9522 44.4507 21.3519 44.4507 21.8449ZM15.7176 29.2624H9.65012C7.94025 29.2624 6.54911 30.664 6.54911 32.3867V38.5001C6.54911 40.2229 7.94025 41.6245 9.65012 41.6245H15.7176C17.4275 41.6245 18.8186 40.2229 18.8186 38.5001V32.3867C18.8186 30.664 17.4275 29.2624 15.7176 29.2624ZM17.0466 38.5002C17.0466 39.2386 16.4504 39.8393 15.7176 39.8393H9.65012C8.91729 39.8393 8.32112 39.2386 8.32112 38.5002V32.3868C8.32112 31.6486 8.91729 31.0479 9.65012 31.0479H15.7176C16.4504 31.0479 17.0466 31.6486 17.0466 32.3868V38.5002ZM22.5089 30.1551C22.5089 29.6621 22.9056 29.2624 23.3949 29.2624H32.7157C33.205 29.2624 33.6017 29.6621 33.6017 30.1551C33.6017 30.6481 33.205 31.0478 32.7157 31.0478H23.3949C22.9056 31.0478 22.5089 30.6481 22.5089 30.1551ZM44.4507 35.4435C44.4507 35.9365 44.054 36.3362 43.5647 36.3362H23.3949C22.9056 36.3362 22.5089 35.9365 22.5089 35.4435C22.5089 34.9505 22.9056 34.5508 23.3949 34.5508H43.5647C44.054 34.5508 44.4507 34.9505 44.4507 35.4435ZM44.4507 40.732C44.4507 41.225 44.054 41.6247 43.5647 41.6247H23.3949C22.9056 41.6247 22.5089 41.225 22.5089 40.732C22.5089 40.239 22.9056 39.8393 23.3949 39.8393H43.5647C44.054 39.8393 44.4507 40.239 44.4507 40.732ZM15.6722 33.2258C16.0182 33.5745 16.0182 34.1396 15.6722 34.4883L12.5231 37.6612C12.35 37.8355 12.1234 37.9226 11.8966 37.9226C11.6698 37.9226 11.4431 37.8355 11.2701 37.6612L9.69553 36.0747C9.34955 35.726 9.34955 35.1609 9.69553 34.8122C10.0415 34.4638 10.6024 34.4636 10.9486 34.8122C11.471 35.3386 12.3222 35.3387 12.8446 34.8123L14.419 33.2259C14.7654 32.8773 15.3263 32.8775 15.6722 33.2258Z" fill="white"/>
</svg>
