<svg width="58" height="65" viewBox="0 0 58 65" fill="none" xmlns="http://www.w3.org/2000/svg">
<path d="M0.343582 58.3236C0.332732 60.0545 1.04427 61.7112 2.30821 62.8866C3.85695 64.033 5.80802 64.4834 7.69851 64.1209C10.2065 63.7285 12.3917 62.1761 13.6014 59.9286C15.6447 64.2614 20.7828 66.1029 25.08 64.0475C26.7436 63.2482 28.1124 61.9323 28.9749 60.2983C31.1737 64.5568 36.3814 66.2134 40.6045 63.9949C42.3123 63.1014 43.6739 61.6586 44.4732 59.8914C45.6874 62.1616 47.8808 63.7221 50.4041 64.1209C52.2937 64.4825 54.2448 64.0321 55.7899 62.8866C57.0548 61.7112 57.7708 60.0545 57.7554 58.3236C57.9191 55.4472 57.9191 52.5934 57.7554 47.7794C57.6008 43.0406 55.4988 42.67 52.5035 42.67C52.2368 42.67 51.9646 42.6781 51.6843 42.6781C51.1491 42.6854 50.5642 42.6935 49.9322 42.6781C47.1303 42.67 45.6919 43.1503 44.8023 43.9641C44.2372 43.1657 43.3231 42.6854 42.3458 42.6781H30.9992C30.3094 42.6854 29.6394 42.9291 29.1069 43.3732C28.5581 42.8693 27.8466 42.5893 27.1007 42.5893H15.7559C14.7524 42.5893 13.8193 43.085 13.2552 43.9206C12.3999 43.1512 11.0347 42.679 8.4878 42.679C8.38293 42.679 8.27624 42.679 8.16503 42.679C7.53397 42.6944 6.9481 42.6863 6.41287 42.679C6.1344 42.679 5.86136 42.6709 5.59646 42.6709C2.60114 42.6709 0.498185 43.0406 0.341774 47.7803C0.18265 52.5934 0.18265 55.4472 0.343582 58.3236ZM45.3673 55.9574V47.0988C45.4143 46.9882 45.4704 46.8777 45.5147 46.7671C46.0734 45.4956 46.3953 44.7996 49.9033 44.845C50.5569 44.8522 51.1563 44.845 51.7106 44.8368C55.1516 44.7996 55.516 44.7996 55.6163 47.8537C55.7736 52.5925 55.7736 55.4037 55.6163 58.2058C55.6489 59.3449 55.2113 60.4388 54.4048 61.2299C53.3036 61.9848 51.9447 62.2585 50.6437 61.9767C47.2542 61.5924 45.6458 57.6213 45.3294 56.7268C45.3474 56.4758 45.3673 56.2175 45.3673 55.9574ZM30.1213 55.8613V45.7231C30.1213 45.2355 30.5164 44.844 30.9992 44.8359H42.3458C42.8277 44.844 43.2192 45.2346 43.2192 45.7231V55.9574C43.2192 56.2238 43.2047 56.4821 43.1758 56.7413V56.7567C42.844 60.098 40.1244 62.679 36.7937 62.8195C36.7539 62.8195 36.7132 62.8195 36.6725 62.8195C33.0534 62.8195 30.1213 59.8606 30.1213 56.2166V55.8613ZM14.878 45.628C14.878 45.1404 15.2686 44.748 15.7559 44.748H27.1016C27.5889 44.748 27.9795 45.1404 27.9795 45.628V55.8613C28.031 59.5298 25.184 62.5676 21.554 62.7234C21.5097 62.7234 21.469 62.7234 21.4283 62.7234C18.0867 62.7234 15.284 60.1869 14.9178 56.8374C14.9178 56.7857 14.9142 56.7268 14.907 56.6742C14.888 56.4903 14.878 56.3054 14.878 56.1196V45.628ZM2.48271 47.8537C2.58487 44.7996 2.94018 44.7996 6.39298 44.8368C6.94087 44.845 7.54391 44.8522 8.19668 44.845C11.71 44.7996 12.0274 45.4956 12.5843 46.7671C12.6331 46.8777 12.6883 46.9882 12.7353 47.0988V56.1196C12.7353 56.3344 12.7543 56.5419 12.7688 56.7485C12.4288 57.6874 10.8358 61.5924 7.45892 61.9767C6.1552 62.2585 4.79451 61.9921 3.6915 61.2299C2.89136 60.4388 2.45468 59.3449 2.4818 58.2058C2.3281 55.4037 2.3281 52.5934 2.48271 47.8537ZM23.7962 11.5221C23.892 11.5992 23.9472 11.7179 23.9436 11.8475L23.7076 19.9584C23.6859 20.5466 24.1425 21.0378 24.7256 21.0568V22.0618H24.5927C23.1687 22.0618 21.9301 23.046 21.6055 24.4362L20.8569 27.5863C20.3334 29.7967 21.6797 32.0088 23.8703 32.5408C24.1795 32.6142 24.4978 32.6514 24.8178 32.6514H32.7857C35.0343 32.6514 36.8579 30.8099 36.8579 28.5479C36.8579 28.2225 36.8208 27.9053 36.7476 27.5936L35.998 24.4371C35.6708 23.0469 34.4321 22.0627 33.01 22.0627H32.8734V21.0577C33.4575 21.0423 33.9132 20.5475 33.8933 19.9593C33.8933 19.9258 33.8879 19.8968 33.8842 19.8669L32.7885 10.479C32.6302 9.13689 31.8916 7.93158 30.7732 7.18845L21.3976 0.97339C20.8994 0.651671 20.2394 0.79939 19.9221 1.30689C19.612 1.79445 19.7449 2.44514 20.2213 2.77411L29.5924 8.98826C30.1837 9.3843 30.5752 10.0241 30.6557 10.7337L31.6158 18.9108H25.8829L26.0827 11.9091C26.1125 11.1098 25.7653 10.3522 25.1533 9.85011L14.4866 1.03683C14.0291 0.656202 13.3573 0.715108 12.974 1.16914C12.5979 1.6277 12.6566 2.30739 13.1069 2.69255C13.1132 2.69617 13.1214 2.70342 13.1286 2.70795L23.7962 11.5221ZM26.8683 21.0722H30.7307V22.0618H26.8683V21.0722ZM33.01 24.2214C33.4385 24.2214 33.8137 24.5169 33.9132 24.9392L34.6627 28.0893C34.9095 29.1396 34.2712 30.1891 33.2342 30.441C33.0877 30.47 32.9367 30.4936 32.7857 30.4936H24.8178C23.7519 30.4936 22.8885 29.6199 22.8885 28.5488C22.8885 28.3938 22.9038 28.2452 22.9409 28.0902L23.6895 24.9401C23.789 24.5178 24.1614 24.2223 24.5927 24.2223H33.01V24.2214ZM28.8013 34.9134C29.3917 34.9134 29.8745 35.4018 29.8745 35.9927V38.9145C29.8745 39.5135 29.3917 39.9929 28.8013 39.9929C28.2082 39.9929 27.7282 39.5135 27.7282 38.9145V35.9927C27.7282 35.4018 28.2082 34.9134 28.7977 34.9134C28.7977 34.9134 28.7977 34.9134 28.8013 34.9134ZM36.838 33.1471C37.2927 32.7619 37.9681 32.8226 38.3469 33.273L40.2103 35.5133C40.5936 35.9646 40.5349 36.6452 40.0801 37.0295C39.628 37.4146 38.9527 37.3548 38.5711 36.8971L36.7096 34.6632C36.329 34.2101 36.385 33.5304 36.838 33.1471ZM20.0713 32.887C20.6653 32.887 21.1444 33.3755 21.1408 33.9736C21.1408 34.2246 21.0522 34.4702 20.8904 34.6614L19.0306 36.8953C18.6473 37.3539 17.9755 37.4128 17.519 37.0276C17.0687 36.6434 17.0099 35.9628 17.3897 35.5115L19.253 33.2712C19.4547 33.0284 19.7539 32.887 20.0713 32.887Z" fill="#3BC7F7"/>
</svg>
